M48
;Layer_Color=9474304
;FILE_FORMAT=4:4
METRIC,LZ
;TYPE=PLATED
T01F00S00C0.4000
T02F00S00C0.5000
T03F00S00C1.0200
T04F00S00C4.5000
%
T01
X00087499Y0009988
X00074999Y0012488
X00062499Y0014988
X00049999Y0017488
X00057149Y0020054
X00049999Y0022488
X00024999
X00027239Y00208998
X00074999Y0022488
X00099999
X00087499Y0024988
X00112499
X00137499
X00156209Y0026531
X00124999Y0027488
X00099999
X00112499Y0029988
X00099999Y0032488
X00074999
X00049999
X00024999
X00037499Y0034988
X00062499
X00087499
X00088899Y0037072
X00118109
X00112499Y0034988
X00137499
X00124999Y0032488
X00149999
X00167639Y0038469
X00104139Y0039231
X00057149Y0037707
X00237489Y0037834
X0024257Y0035179
X00281939Y0034024
X00281149Y0030877
X00312499Y0029988
X00324999Y0032488
X0030608Y0035231
X00281939Y0038215
X00374999Y0037488
X0034671Y0028067
X0032893Y0027432
X00324999Y0022488
X0029972Y0023622
X0028702Y0021717
X0029972Y0019812
X00337499Y0019988
X00324999Y0017488
X00337499Y0014988
X00324999Y0012488
X0030099Y0011811
Y0014224
X00281184Y00137978
X0026924Y0013843
X00268028Y00162658
X0028956Y0016256
X0024511Y0015748
Y0018161
X00212499Y0019988
X00187499
X001651Y0021463
X00174999Y0017488
X00199999
X00187499Y0014988
X00212499
X0022987Y0013716
X0023368Y0011557
X0024765Y0011938
X0025908Y0012192
X00254Y0009144
X0025146Y0007366
X0024892Y0004445
X0028702Y0003937
X002667Y000127
X00327659Y0002274
X00374999Y0002488
X00387499Y0009988
X0033147Y0010033
X0030099Y0009271
X00241084Y00103174
X0022479Y0008255
X0019558Y0008636
X0020193Y0010414
X0021461Y0011559
X001778Y001143
X00146049Y0007989
X0012827Y0006604
X00154939Y0005068
X00185419Y0004687
X00199999Y0002488
X00131613Y00137772
X0014478Y0016002
X0013335Y0018415
X0024511Y0024511
X0025527Y00258306
X0025019Y0028321
X00230986Y00264532
X0021082Y0028321
X00399999Y0022488
Y0017488
X00400049Y0014085
X00399999Y0007488
X00412499Y0004988
X00399999Y0037488
Y0042488
Y0047488
X00412499Y0049988
X00437499
X00399999Y0052488
X00387499Y0044988
X00362499
X00337499
X00309959Y0046893
X00281939Y0045708
X00251286Y004572
X00258486Y0044831
X0026543Y0043942
X0027305Y0043053
X00236219Y0041644
X00200659Y0043422
X00162559
X00149859Y0041009
X00143509Y0046089
X00181609
X00219709
X00224999Y0052488
X00199999
X00162499Y0049988
X00099999Y0047488
X00112499Y0044988
X00093979Y0042914
X00068579Y0039993
X00337499Y0039988
X0029718Y0052451
X0024765Y0050419
T02
X0017018Y0039624
X0018268
X0019518
X0020768
X0022018
X0032258Y0038481
Y0037231
Y0039731
X0014066Y00495376
X0013081Y0048768
X0012096Y00479984
T03
X0003556Y00375944
X0036107Y003816
X0038647
Y003562
X0036107
Y003308
Y003054
Y0028
X0038647
Y003054
Y003308
Y002546
Y002292
Y002038
Y001784
Y00153
Y001276
X0036107
Y00153
Y001784
Y002038
Y002292
Y002546
Y00407
X0038647
Y004324
X0036107
X0007366Y00441936
X0006096Y00419939
X0004826Y00397941
T04
X000525Y0028
X0035837Y00066426
X00358374Y00493574
M30
