G04*
G04 #@! TF.GenerationSoftware,Altium Limited,Altium Designer,25.8.1 (18)*
G04*
G04 Layer_Color=32896*
%FSLAX44Y44*%
%MOMM*%
G71*
G04*
G04 #@! TF.SameCoordinates,39AAA382-7428-4F97-BBA3-EFEDAE657E92*
G04*
G04*
G04 #@! TF.FilePolarity,Positive*
G04*
G01*
G75*
%ADD13C,0.2000*%
%ADD14C,0.1270*%
%ADD17C,0.1500*%
G36*
X235104Y58126D02*
X235436Y58099D01*
X235728Y58057D01*
X235963Y58001D01*
X236158Y57946D01*
X236296Y57904D01*
X236380Y57877D01*
X236393Y57863D01*
X236407D01*
X236629Y57752D01*
X236810Y57627D01*
X236976Y57502D01*
X237101Y57377D01*
X237212Y57267D01*
X237295Y57183D01*
X237337Y57128D01*
X237350Y57100D01*
X237461Y56892D01*
X237558Y56670D01*
X237628Y56448D01*
X237697Y56226D01*
X237739Y56018D01*
X237766Y55866D01*
X237780Y55796D01*
X237794Y55755D01*
Y55727D01*
Y55713D01*
X235672Y55547D01*
X235631Y55769D01*
X235589Y55949D01*
X235534Y56101D01*
X235478Y56226D01*
X235423Y56323D01*
X235381Y56393D01*
X235353Y56420D01*
X235339Y56434D01*
X235229Y56518D01*
X235117Y56587D01*
X235007Y56628D01*
X234909Y56670D01*
X234812Y56684D01*
X234743Y56698D01*
X234674D01*
X234535Y56684D01*
X234410Y56656D01*
X234299Y56615D01*
X234202Y56573D01*
X234119Y56532D01*
X234063Y56490D01*
X234036Y56462D01*
X234022Y56448D01*
X233939Y56351D01*
X233869Y56254D01*
X233828Y56157D01*
X233786Y56060D01*
X233772Y55977D01*
X233758Y55907D01*
Y55866D01*
Y55852D01*
X233772Y55727D01*
X233800Y55616D01*
X233842Y55491D01*
X233883Y55394D01*
X233939Y55297D01*
X233980Y55228D01*
X234008Y55186D01*
X234022Y55172D01*
X234077Y55103D01*
X234147Y55020D01*
X234313Y54853D01*
X234521Y54687D01*
X234715Y54507D01*
X234909Y54354D01*
X235062Y54229D01*
X235131Y54188D01*
X235173Y54146D01*
X235201Y54132D01*
X235215Y54118D01*
X235492Y53910D01*
X235742Y53716D01*
X235977Y53522D01*
X236185Y53342D01*
X236380Y53161D01*
X236546Y53009D01*
X236698Y52856D01*
X236823Y52718D01*
X236934Y52593D01*
X237045Y52482D01*
X237115Y52385D01*
X237184Y52316D01*
X237239Y52246D01*
X237267Y52204D01*
X237281Y52177D01*
X237295Y52163D01*
X237475Y51858D01*
X237628Y51539D01*
X237739Y51248D01*
X237822Y50984D01*
X237891Y50748D01*
X237905Y50651D01*
X237919Y50568D01*
X237933Y50513D01*
X237947Y50457D01*
Y50429D01*
Y50416D01*
X231595D01*
Y52135D01*
X234909D01*
X234701Y52316D01*
X234549Y52468D01*
X234494Y52510D01*
X234452Y52551D01*
X234424Y52565D01*
X234410Y52579D01*
X234313Y52662D01*
X234188Y52759D01*
X234036Y52856D01*
X233897Y52953D01*
X233758Y53050D01*
X233647Y53134D01*
X233578Y53189D01*
X233550Y53203D01*
X233356Y53342D01*
X233176Y53480D01*
X233009Y53619D01*
X232857Y53744D01*
X232732Y53869D01*
X232607Y53980D01*
X232399Y54188D01*
X232247Y54354D01*
X232150Y54479D01*
X232080Y54562D01*
X232066Y54590D01*
X231928Y54826D01*
X231831Y55061D01*
X231747Y55297D01*
X231706Y55491D01*
X231678Y55672D01*
X231650Y55810D01*
Y55852D01*
Y55894D01*
Y55907D01*
Y55921D01*
X231664Y56157D01*
X231706Y56379D01*
X231761Y56587D01*
X231831Y56753D01*
X231900Y56906D01*
X231956Y57003D01*
X231997Y57072D01*
X232011Y57100D01*
X232150Y57280D01*
X232316Y57447D01*
X232482Y57572D01*
X232635Y57682D01*
X232774Y57766D01*
X232899Y57835D01*
X232968Y57863D01*
X232982Y57877D01*
X232996D01*
X233245Y57960D01*
X233523Y58029D01*
X233814Y58071D01*
X234091Y58113D01*
X234341Y58126D01*
X234452D01*
X234549Y58140D01*
X234729D01*
X235104Y58126D01*
D02*
G37*
G36*
X199698D02*
X200030Y58099D01*
X200322Y58057D01*
X200557Y58001D01*
X200752Y57946D01*
X200890Y57904D01*
X200973Y57877D01*
X200987Y57863D01*
X201001D01*
X201223Y57752D01*
X201404Y57627D01*
X201570Y57502D01*
X201695Y57377D01*
X201806Y57267D01*
X201889Y57183D01*
X201931Y57128D01*
X201944Y57100D01*
X202055Y56892D01*
X202152Y56670D01*
X202222Y56448D01*
X202291Y56226D01*
X202333Y56018D01*
X202360Y55866D01*
X202374Y55796D01*
X202388Y55755D01*
Y55727D01*
Y55713D01*
X200266Y55547D01*
X200225Y55769D01*
X200183Y55949D01*
X200128Y56101D01*
X200072Y56226D01*
X200017Y56323D01*
X199975Y56393D01*
X199947Y56420D01*
X199933Y56434D01*
X199823Y56518D01*
X199711Y56587D01*
X199601Y56628D01*
X199503Y56670D01*
X199406Y56684D01*
X199337Y56698D01*
X199268D01*
X199129Y56684D01*
X199004Y56656D01*
X198893Y56615D01*
X198796Y56573D01*
X198713Y56532D01*
X198657Y56490D01*
X198630Y56462D01*
X198616Y56448D01*
X198533Y56351D01*
X198463Y56254D01*
X198422Y56157D01*
X198380Y56060D01*
X198366Y55977D01*
X198352Y55907D01*
Y55866D01*
Y55852D01*
X198366Y55727D01*
X198394Y55616D01*
X198436Y55491D01*
X198477Y55394D01*
X198533Y55297D01*
X198574Y55228D01*
X198602Y55186D01*
X198616Y55172D01*
X198671Y55103D01*
X198741Y55020D01*
X198907Y54853D01*
X199115Y54687D01*
X199309Y54507D01*
X199503Y54354D01*
X199656Y54229D01*
X199725Y54188D01*
X199767Y54146D01*
X199795Y54132D01*
X199809Y54118D01*
X200086Y53910D01*
X200336Y53716D01*
X200571Y53522D01*
X200779Y53342D01*
X200973Y53161D01*
X201140Y53009D01*
X201292Y52856D01*
X201417Y52718D01*
X201528Y52593D01*
X201639Y52482D01*
X201709Y52385D01*
X201778Y52316D01*
X201833Y52246D01*
X201861Y52204D01*
X201875Y52177D01*
X201889Y52163D01*
X202069Y51858D01*
X202222Y51539D01*
X202333Y51248D01*
X202416Y50984D01*
X202485Y50748D01*
X202499Y50651D01*
X202513Y50568D01*
X202527Y50513D01*
X202541Y50457D01*
Y50429D01*
Y50416D01*
X196189D01*
Y52135D01*
X199503D01*
X199296Y52316D01*
X199143Y52468D01*
X199087Y52510D01*
X199046Y52551D01*
X199018Y52565D01*
X199004Y52579D01*
X198907Y52662D01*
X198782Y52759D01*
X198630Y52856D01*
X198491Y52953D01*
X198352Y53050D01*
X198242Y53134D01*
X198172Y53189D01*
X198144Y53203D01*
X197950Y53342D01*
X197770Y53480D01*
X197603Y53619D01*
X197451Y53744D01*
X197326Y53869D01*
X197201Y53980D01*
X196993Y54188D01*
X196841Y54354D01*
X196744Y54479D01*
X196674Y54562D01*
X196660Y54590D01*
X196522Y54826D01*
X196425Y55061D01*
X196341Y55297D01*
X196300Y55491D01*
X196272Y55672D01*
X196244Y55810D01*
Y55852D01*
Y55894D01*
Y55907D01*
Y55921D01*
X196258Y56157D01*
X196300Y56379D01*
X196355Y56587D01*
X196425Y56753D01*
X196494Y56906D01*
X196549Y57003D01*
X196591Y57072D01*
X196605Y57100D01*
X196744Y57280D01*
X196910Y57447D01*
X197076Y57572D01*
X197229Y57682D01*
X197368Y57766D01*
X197493Y57835D01*
X197562Y57863D01*
X197576Y57877D01*
X197590D01*
X197839Y57960D01*
X198117Y58029D01*
X198408Y58071D01*
X198685Y58113D01*
X198935Y58126D01*
X199046D01*
X199143Y58140D01*
X199323D01*
X199698Y58126D01*
D02*
G37*
G36*
X189657D02*
X189990Y58099D01*
X190281Y58057D01*
X190517Y58001D01*
X190711Y57946D01*
X190850Y57904D01*
X190933Y57877D01*
X190947Y57863D01*
X190961D01*
X191182Y57752D01*
X191363Y57627D01*
X191529Y57502D01*
X191654Y57377D01*
X191765Y57267D01*
X191848Y57183D01*
X191890Y57128D01*
X191904Y57100D01*
X192015Y56892D01*
X192112Y56670D01*
X192181Y56448D01*
X192250Y56226D01*
X192292Y56018D01*
X192320Y55866D01*
X192334Y55796D01*
X192347Y55755D01*
Y55727D01*
Y55713D01*
X190226Y55547D01*
X190184Y55769D01*
X190142Y55949D01*
X190087Y56101D01*
X190031Y56226D01*
X189976Y56323D01*
X189934Y56393D01*
X189907Y56420D01*
X189893Y56434D01*
X189782Y56518D01*
X189671Y56587D01*
X189560Y56628D01*
X189463Y56670D01*
X189366Y56684D01*
X189296Y56698D01*
X189227D01*
X189088Y56684D01*
X188964Y56656D01*
X188853Y56615D01*
X188755Y56573D01*
X188672Y56532D01*
X188617Y56490D01*
X188589Y56462D01*
X188575Y56448D01*
X188492Y56351D01*
X188423Y56254D01*
X188381Y56157D01*
X188339Y56060D01*
X188326Y55977D01*
X188312Y55907D01*
Y55866D01*
Y55852D01*
X188326Y55727D01*
X188353Y55616D01*
X188395Y55491D01*
X188437Y55394D01*
X188492Y55297D01*
X188534Y55228D01*
X188561Y55186D01*
X188575Y55172D01*
X188631Y55103D01*
X188700Y55020D01*
X188866Y54853D01*
X189074Y54687D01*
X189269Y54507D01*
X189463Y54354D01*
X189615Y54229D01*
X189685Y54188D01*
X189726Y54146D01*
X189754Y54132D01*
X189768Y54118D01*
X190045Y53910D01*
X190295Y53716D01*
X190531Y53522D01*
X190739Y53342D01*
X190933Y53161D01*
X191099Y53009D01*
X191252Y52856D01*
X191377Y52718D01*
X191488Y52593D01*
X191598Y52482D01*
X191668Y52385D01*
X191737Y52316D01*
X191793Y52246D01*
X191820Y52204D01*
X191834Y52177D01*
X191848Y52163D01*
X192028Y51858D01*
X192181Y51539D01*
X192292Y51248D01*
X192375Y50984D01*
X192444Y50748D01*
X192458Y50651D01*
X192472Y50568D01*
X192486Y50513D01*
X192500Y50457D01*
Y50429D01*
Y50416D01*
X186148D01*
Y52135D01*
X189463D01*
X189255Y52316D01*
X189102Y52468D01*
X189047Y52510D01*
X189005Y52551D01*
X188977Y52565D01*
X188964Y52579D01*
X188866Y52662D01*
X188742Y52759D01*
X188589Y52856D01*
X188450Y52953D01*
X188312Y53050D01*
X188201Y53134D01*
X188131Y53189D01*
X188104Y53203D01*
X187910Y53342D01*
X187729Y53480D01*
X187563Y53619D01*
X187410Y53744D01*
X187285Y53869D01*
X187161Y53980D01*
X186953Y54188D01*
X186800Y54354D01*
X186703Y54479D01*
X186634Y54562D01*
X186620Y54590D01*
X186481Y54826D01*
X186384Y55061D01*
X186301Y55297D01*
X186259Y55491D01*
X186231Y55672D01*
X186204Y55810D01*
Y55852D01*
Y55894D01*
Y55907D01*
Y55921D01*
X186218Y56157D01*
X186259Y56379D01*
X186315Y56587D01*
X186384Y56753D01*
X186453Y56906D01*
X186509Y57003D01*
X186550Y57072D01*
X186564Y57100D01*
X186703Y57280D01*
X186869Y57447D01*
X187036Y57572D01*
X187188Y57682D01*
X187327Y57766D01*
X187452Y57835D01*
X187521Y57863D01*
X187535Y57877D01*
X187549D01*
X187799Y57960D01*
X188076Y58029D01*
X188367Y58071D01*
X188645Y58113D01*
X188894Y58126D01*
X189005D01*
X189102Y58140D01*
X189282D01*
X189657Y58126D01*
D02*
G37*
G36*
X185067Y53924D02*
X183277Y53661D01*
X183180Y53758D01*
X183097Y53841D01*
X183014Y53910D01*
X182945Y53966D01*
X182889Y54007D01*
X182847Y54035D01*
X182820Y54063D01*
X182806D01*
X182695Y54118D01*
X182584Y54146D01*
X182404Y54202D01*
X182320D01*
X182265Y54215D01*
X182210D01*
X182043Y54202D01*
X181877Y54160D01*
X181752Y54118D01*
X181641Y54063D01*
X181544Y53994D01*
X181488Y53952D01*
X181447Y53910D01*
X181433Y53896D01*
X181336Y53758D01*
X181266Y53605D01*
X181211Y53439D01*
X181183Y53272D01*
X181156Y53134D01*
X181142Y53009D01*
Y52926D01*
Y52912D01*
Y52898D01*
X181156Y52662D01*
X181183Y52468D01*
X181239Y52302D01*
X181280Y52163D01*
X181336Y52052D01*
X181391Y51983D01*
X181419Y51927D01*
X181433Y51913D01*
X181544Y51802D01*
X181669Y51719D01*
X181793Y51664D01*
X181905Y51622D01*
X182015Y51594D01*
X182099Y51580D01*
X182168D01*
X182307Y51594D01*
X182445Y51622D01*
X182570Y51664D01*
X182667Y51719D01*
X182750Y51761D01*
X182806Y51802D01*
X182847Y51830D01*
X182861Y51844D01*
X182959Y51955D01*
X183028Y52080D01*
X183097Y52204D01*
X183139Y52329D01*
X183167Y52440D01*
X183194Y52537D01*
X183208Y52593D01*
Y52621D01*
X185344Y52385D01*
X185288Y52191D01*
X185219Y52010D01*
X185164Y51858D01*
X185094Y51733D01*
X185053Y51622D01*
X185011Y51553D01*
X184983Y51497D01*
X184969Y51483D01*
X184775Y51234D01*
X184678Y51123D01*
X184581Y51040D01*
X184484Y50956D01*
X184415Y50901D01*
X184373Y50859D01*
X184359Y50845D01*
X184054Y50665D01*
X183902Y50596D01*
X183749Y50540D01*
X183624Y50485D01*
X183527Y50457D01*
X183472Y50443D01*
X183444Y50429D01*
X183236Y50388D01*
X183014Y50346D01*
X182792Y50318D01*
X182598Y50304D01*
X182418D01*
X182279Y50291D01*
X182154D01*
X181780Y50304D01*
X181447Y50346D01*
X181142Y50402D01*
X180892Y50471D01*
X180698Y50526D01*
X180615Y50554D01*
X180559Y50582D01*
X180504Y50610D01*
X180462Y50623D01*
X180448Y50637D01*
X180434D01*
X180199Y50790D01*
X179991Y50956D01*
X179810Y51123D01*
X179658Y51289D01*
X179547Y51442D01*
X179464Y51567D01*
X179408Y51650D01*
X179394Y51664D01*
Y51677D01*
X179270Y51927D01*
X179172Y52191D01*
X179117Y52426D01*
X179062Y52634D01*
X179034Y52829D01*
X179020Y52967D01*
Y53023D01*
Y53064D01*
Y53078D01*
Y53092D01*
X179034Y53286D01*
X179048Y53467D01*
X179131Y53799D01*
X179242Y54104D01*
X179380Y54354D01*
X179519Y54548D01*
X179575Y54632D01*
X179630Y54701D01*
X179672Y54756D01*
X179713Y54798D01*
X179727Y54812D01*
X179741Y54826D01*
X179880Y54950D01*
X180018Y55061D01*
X180171Y55145D01*
X180324Y55228D01*
X180629Y55353D01*
X180934Y55436D01*
X181183Y55477D01*
X181294Y55505D01*
X181391D01*
X181475Y55519D01*
X181586D01*
X181835Y55505D01*
X181946Y55491D01*
X182043Y55477D01*
X182140Y55464D01*
X182210Y55450D01*
X182251Y55436D01*
X182265D01*
X182515Y55367D01*
X182640Y55325D01*
X182750Y55283D01*
X182834Y55242D01*
X182917Y55214D01*
X182959Y55200D01*
X182972Y55186D01*
X182792Y56323D01*
X179380D01*
Y58015D01*
X184401D01*
X185067Y53924D01*
D02*
G37*
G36*
X206562Y57877D02*
X206715Y57641D01*
X206868Y57433D01*
X207020Y57267D01*
X207159Y57114D01*
X207270Y57003D01*
X207339Y56947D01*
X207353Y56920D01*
X207367D01*
X207603Y56740D01*
X207880Y56587D01*
X208157Y56448D01*
X208421Y56323D01*
X208657Y56226D01*
X208768Y56185D01*
X208851Y56143D01*
X208934Y56129D01*
X208990Y56101D01*
X209017Y56088D01*
X209031D01*
Y54368D01*
X208768Y54451D01*
X208532Y54521D01*
X208338Y54604D01*
X208157Y54673D01*
X208019Y54729D01*
X207908Y54770D01*
X207852Y54798D01*
X207824Y54812D01*
X207644Y54909D01*
X207464Y55020D01*
X207284Y55131D01*
X207131Y55228D01*
X207006Y55325D01*
X206895Y55394D01*
X206840Y55450D01*
X206812Y55464D01*
Y50416D01*
X204676D01*
Y58140D01*
X206424D01*
X206562Y57877D01*
D02*
G37*
G36*
X302560Y56032D02*
X302740Y56018D01*
X302906Y56005D01*
X303045Y55977D01*
X303156Y55963D01*
X303211Y55949D01*
X303239D01*
X303419Y55921D01*
X303572Y55880D01*
X303711Y55838D01*
X303822Y55796D01*
X303905Y55755D01*
X303974Y55727D01*
X304016Y55713D01*
X304030Y55699D01*
X304168Y55616D01*
X304293Y55519D01*
X304404Y55436D01*
X304487Y55353D01*
X304557Y55283D01*
X304612Y55228D01*
X304640Y55186D01*
X304654Y55172D01*
X304723Y55047D01*
X304792Y54909D01*
X304848Y54770D01*
X304890Y54645D01*
X304931Y54521D01*
X304945Y54423D01*
X304973Y54368D01*
Y54340D01*
X302948Y54132D01*
X302906Y54257D01*
X302851Y54354D01*
X302795Y54437D01*
X302740Y54507D01*
X302698Y54562D01*
X302657Y54590D01*
X302643Y54618D01*
X302629D01*
X302518Y54673D01*
X302393Y54715D01*
X302143Y54770D01*
X302033D01*
X301936Y54784D01*
X301714D01*
X301589Y54756D01*
X301492Y54729D01*
X301422Y54701D01*
X301353Y54673D01*
X301311Y54645D01*
X301297Y54632D01*
X301284Y54618D01*
X301228Y54548D01*
X301187Y54465D01*
X301131Y54299D01*
Y54215D01*
X301117Y54146D01*
Y54104D01*
Y54091D01*
X301409Y53980D01*
X301533Y53938D01*
X301644Y53896D01*
X301741Y53869D01*
X301811Y53841D01*
X301866Y53827D01*
X301880D01*
X301949Y53813D01*
X302046Y53786D01*
X302268Y53730D01*
X302518Y53675D01*
X302782Y53619D01*
X303017Y53577D01*
X303128Y53550D01*
X303225Y53536D01*
X303309Y53522D01*
X303364Y53508D01*
X303405Y53494D01*
X303419D01*
X303600Y53453D01*
X303766Y53411D01*
X304044Y53314D01*
X304279Y53217D01*
X304473Y53120D01*
X304612Y53037D01*
X304709Y52967D01*
X304765Y52912D01*
X304778Y52898D01*
X304903Y52745D01*
X304986Y52565D01*
X305056Y52399D01*
X305098Y52232D01*
X305125Y52094D01*
X305139Y51983D01*
Y51899D01*
Y51885D01*
Y51872D01*
X305111Y51622D01*
X305056Y51414D01*
X304986Y51220D01*
X304890Y51053D01*
X304792Y50915D01*
X304723Y50818D01*
X304668Y50762D01*
X304640Y50735D01*
X304432Y50582D01*
X304182Y50485D01*
X303932Y50402D01*
X303697Y50346D01*
X303475Y50318D01*
X303378Y50304D01*
X303295D01*
X303225Y50291D01*
X303128D01*
X302865Y50304D01*
X302615Y50332D01*
X302393Y50360D01*
X302199Y50402D01*
X302046Y50443D01*
X301922Y50485D01*
X301852Y50499D01*
X301824Y50513D01*
X301672Y50582D01*
X301533Y50679D01*
X301395Y50762D01*
X301270Y50859D01*
X301159Y50943D01*
X301076Y51012D01*
X301020Y51067D01*
X301006Y51081D01*
X300979Y50929D01*
X300951Y50818D01*
X300937Y50762D01*
Y50735D01*
X300895Y50637D01*
X300840Y50540D01*
X300784Y50457D01*
X300770Y50429D01*
Y50416D01*
X298787D01*
X298898Y50637D01*
X298926Y50735D01*
X298954Y50818D01*
X298981Y50887D01*
X298995Y50929D01*
X299009Y50956D01*
Y50970D01*
X299023Y51067D01*
X299037Y51164D01*
X299051Y51358D01*
Y51442D01*
Y51511D01*
Y51567D01*
Y51580D01*
Y54007D01*
Y54160D01*
X299079Y54299D01*
X299106Y54437D01*
X299134Y54562D01*
X299162Y54673D01*
X299189Y54756D01*
X299203Y54812D01*
X299217Y54826D01*
X299273Y54978D01*
X299342Y55117D01*
X299411Y55228D01*
X299481Y55325D01*
X299536Y55394D01*
X299592Y55450D01*
X299620Y55477D01*
X299633Y55491D01*
X299786Y55602D01*
X299952Y55699D01*
X300105Y55783D01*
X300257Y55838D01*
X300396Y55880D01*
X300507Y55907D01*
X300576Y55935D01*
X300604D01*
X300826Y55977D01*
X301076Y56005D01*
X301339Y56018D01*
X301575Y56032D01*
X301797Y56046D01*
X302351D01*
X302560Y56032D01*
D02*
G37*
G36*
X278359D02*
X278540Y56018D01*
X278706Y56005D01*
X278845Y55977D01*
X278956Y55963D01*
X279011Y55949D01*
X279039D01*
X279219Y55921D01*
X279372Y55880D01*
X279510Y55838D01*
X279621Y55796D01*
X279704Y55755D01*
X279774Y55727D01*
X279815Y55713D01*
X279829Y55699D01*
X279968Y55616D01*
X280093Y55519D01*
X280204Y55436D01*
X280287Y55353D01*
X280356Y55283D01*
X280412Y55228D01*
X280439Y55186D01*
X280453Y55172D01*
X280523Y55047D01*
X280592Y54909D01*
X280648Y54770D01*
X280689Y54645D01*
X280731Y54521D01*
X280745Y54423D01*
X280772Y54368D01*
Y54340D01*
X278748Y54132D01*
X278706Y54257D01*
X278650Y54354D01*
X278595Y54437D01*
X278540Y54507D01*
X278498Y54562D01*
X278456Y54590D01*
X278442Y54618D01*
X278429D01*
X278318Y54673D01*
X278193Y54715D01*
X277943Y54770D01*
X277832D01*
X277735Y54784D01*
X277513D01*
X277388Y54756D01*
X277291Y54729D01*
X277222Y54701D01*
X277153Y54673D01*
X277111Y54645D01*
X277097Y54632D01*
X277083Y54618D01*
X277028Y54548D01*
X276986Y54465D01*
X276931Y54299D01*
Y54215D01*
X276917Y54146D01*
Y54104D01*
Y54091D01*
X277208Y53980D01*
X277333Y53938D01*
X277444Y53896D01*
X277541Y53869D01*
X277610Y53841D01*
X277666Y53827D01*
X277680D01*
X277749Y53813D01*
X277846Y53786D01*
X278068Y53730D01*
X278318Y53675D01*
X278581Y53619D01*
X278817Y53577D01*
X278928Y53550D01*
X279025Y53536D01*
X279108Y53522D01*
X279164Y53508D01*
X279205Y53494D01*
X279219D01*
X279399Y53453D01*
X279566Y53411D01*
X279843Y53314D01*
X280079Y53217D01*
X280273Y53120D01*
X280412Y53037D01*
X280509Y52967D01*
X280564Y52912D01*
X280578Y52898D01*
X280703Y52745D01*
X280786Y52565D01*
X280856Y52399D01*
X280897Y52232D01*
X280925Y52094D01*
X280939Y51983D01*
Y51899D01*
Y51885D01*
Y51872D01*
X280911Y51622D01*
X280856Y51414D01*
X280786Y51220D01*
X280689Y51053D01*
X280592Y50915D01*
X280523Y50818D01*
X280467Y50762D01*
X280439Y50735D01*
X280231Y50582D01*
X279982Y50485D01*
X279732Y50402D01*
X279496Y50346D01*
X279275Y50318D01*
X279177Y50304D01*
X279094D01*
X279025Y50291D01*
X278928D01*
X278664Y50304D01*
X278415Y50332D01*
X278193Y50360D01*
X277999Y50402D01*
X277846Y50443D01*
X277721Y50485D01*
X277652Y50499D01*
X277624Y50513D01*
X277472Y50582D01*
X277333Y50679D01*
X277194Y50762D01*
X277069Y50859D01*
X276959Y50943D01*
X276875Y51012D01*
X276820Y51067D01*
X276806Y51081D01*
X276778Y50929D01*
X276751Y50818D01*
X276737Y50762D01*
Y50735D01*
X276695Y50637D01*
X276639Y50540D01*
X276584Y50457D01*
X276570Y50429D01*
Y50416D01*
X274587D01*
X274698Y50637D01*
X274726Y50735D01*
X274753Y50818D01*
X274781Y50887D01*
X274795Y50929D01*
X274809Y50956D01*
Y50970D01*
X274823Y51067D01*
X274837Y51164D01*
X274851Y51358D01*
Y51442D01*
Y51511D01*
Y51567D01*
Y51580D01*
Y54007D01*
Y54160D01*
X274878Y54299D01*
X274906Y54437D01*
X274934Y54562D01*
X274961Y54673D01*
X274989Y54756D01*
X275003Y54812D01*
X275017Y54826D01*
X275072Y54978D01*
X275142Y55117D01*
X275211Y55228D01*
X275280Y55325D01*
X275336Y55394D01*
X275391Y55450D01*
X275419Y55477D01*
X275433Y55491D01*
X275585Y55602D01*
X275752Y55699D01*
X275905Y55783D01*
X276057Y55838D01*
X276196Y55880D01*
X276307Y55907D01*
X276376Y55935D01*
X276404D01*
X276626Y55977D01*
X276875Y56005D01*
X277139Y56018D01*
X277375Y56032D01*
X277596Y56046D01*
X278151D01*
X278359Y56032D01*
D02*
G37*
G36*
X245949Y50416D02*
X244076D01*
X241733Y55921D01*
X243869D01*
X244978Y52426D01*
X246046Y55921D01*
X248237D01*
X245949Y50416D01*
D02*
G37*
G36*
X216742Y52371D02*
X213677D01*
Y54007D01*
X216742D01*
Y52371D01*
D02*
G37*
G36*
X296097Y50416D02*
X296152Y50263D01*
X296222Y50138D01*
X296291Y50041D01*
X296346Y49958D01*
X296402Y49889D01*
X296444Y49847D01*
X296471Y49833D01*
X296485Y49819D01*
X296582Y49764D01*
X296679Y49722D01*
X296873Y49667D01*
X296971Y49653D01*
X297026Y49639D01*
X297095D01*
X297303Y49653D01*
X297484Y49667D01*
X297664Y49694D01*
X297803Y49722D01*
X297927Y49750D01*
X298025Y49764D01*
X298080Y49791D01*
X298108D01*
X297941Y48307D01*
X297609Y48266D01*
X297317Y48238D01*
X297082Y48210D01*
X296887Y48197D01*
X296735D01*
X296624Y48183D01*
X296333D01*
X296138Y48210D01*
X295792Y48266D01*
X295514Y48335D01*
X295279Y48432D01*
X295098Y48529D01*
X294960Y48599D01*
X294890Y48654D01*
X294863Y48682D01*
X294793Y48751D01*
X294724Y48848D01*
X294585Y49043D01*
X294447Y49264D01*
X294336Y49500D01*
X294238Y49708D01*
X294169Y49875D01*
X294141Y49944D01*
X294114Y49999D01*
X294100Y50027D01*
Y50041D01*
X291909Y55921D01*
X293989D01*
X295043Y52246D01*
X296180Y55921D01*
X298399D01*
X296097Y50416D01*
D02*
G37*
G36*
X252120Y56032D02*
X252370Y56018D01*
X252606Y55977D01*
X252827Y55921D01*
X253036Y55866D01*
X253216Y55796D01*
X253396Y55713D01*
X253549Y55644D01*
X253687Y55574D01*
X253798Y55491D01*
X253909Y55422D01*
X253992Y55367D01*
X254062Y55311D01*
X254103Y55283D01*
X254131Y55256D01*
X254145Y55242D01*
X254284Y55089D01*
X254408Y54923D01*
X254519Y54756D01*
X254617Y54576D01*
X254700Y54396D01*
X254769Y54229D01*
X254866Y53896D01*
X254894Y53744D01*
X254922Y53605D01*
X254935Y53467D01*
X254949Y53356D01*
X254963Y53272D01*
Y53203D01*
Y53161D01*
Y53148D01*
X254949Y52815D01*
X254894Y52523D01*
X254838Y52246D01*
X254755Y52024D01*
X254686Y51830D01*
X254617Y51691D01*
X254603Y51636D01*
X254575Y51594D01*
X254561Y51580D01*
Y51567D01*
X254395Y51331D01*
X254228Y51137D01*
X254048Y50970D01*
X253881Y50831D01*
X253743Y50735D01*
X253618Y50651D01*
X253549Y50610D01*
X253521Y50596D01*
X253271Y50499D01*
X252994Y50416D01*
X252703Y50360D01*
X252425Y50332D01*
X252176Y50304D01*
X252079D01*
X251982Y50291D01*
X251565D01*
X251357Y50304D01*
X251149Y50318D01*
X250969Y50346D01*
X250789Y50374D01*
X250636Y50402D01*
X250498Y50443D01*
X250359Y50471D01*
X250248Y50499D01*
X250151Y50540D01*
X250068Y50568D01*
X249998Y50596D01*
X249943Y50623D01*
X249901Y50637D01*
X249887Y50651D01*
X249874D01*
X249624Y50804D01*
X249402Y50984D01*
X249208Y51192D01*
X249041Y51386D01*
X248903Y51567D01*
X248792Y51705D01*
X248764Y51761D01*
X248736Y51802D01*
X248709Y51830D01*
Y51844D01*
X250789Y52038D01*
X250858Y51941D01*
X250941Y51872D01*
X250997Y51802D01*
X251052Y51761D01*
X251136Y51691D01*
X251149Y51677D01*
X251163D01*
X251274Y51622D01*
X251371Y51594D01*
X251552Y51539D01*
X251635D01*
X251690Y51525D01*
X251746D01*
X251926Y51539D01*
X252079Y51580D01*
X252217Y51636D01*
X252328Y51705D01*
X252425Y51775D01*
X252495Y51830D01*
X252536Y51872D01*
X252550Y51885D01*
X252619Y51996D01*
X252675Y52107D01*
X252758Y52357D01*
X252786Y52468D01*
X252800Y52565D01*
X252814Y52621D01*
Y52648D01*
X248584D01*
Y52884D01*
X248598Y53272D01*
X248639Y53619D01*
X248695Y53910D01*
X248764Y54174D01*
X248833Y54368D01*
X248861Y54451D01*
X248889Y54521D01*
X248917Y54576D01*
X248930Y54618D01*
X248944Y54632D01*
Y54645D01*
X249097Y54881D01*
X249263Y55089D01*
X249430Y55269D01*
X249610Y55422D01*
X249763Y55533D01*
X249887Y55616D01*
X249971Y55672D01*
X249984Y55686D01*
X249998D01*
X250276Y55810D01*
X250581Y55894D01*
X250886Y55963D01*
X251177Y56005D01*
X251441Y56032D01*
X251565D01*
X251663Y56046D01*
X251857D01*
X252120Y56032D01*
D02*
G37*
G36*
X312420Y50416D02*
X310062D01*
Y53245D01*
X308787D01*
X308523Y53259D01*
X308287Y53272D01*
X308065Y53300D01*
X307857Y53342D01*
X307663Y53397D01*
X307483Y53453D01*
X307330Y53508D01*
X307192Y53564D01*
X307067Y53619D01*
X306956Y53675D01*
X306873Y53730D01*
X306789Y53786D01*
X306734Y53827D01*
X306692Y53855D01*
X306679Y53883D01*
X306665D01*
X306540Y54007D01*
X306429Y54146D01*
X306346Y54285D01*
X306262Y54437D01*
X306138Y54742D01*
X306054Y55034D01*
X306013Y55283D01*
X305985Y55394D01*
Y55491D01*
X305971Y55574D01*
Y55630D01*
Y55672D01*
Y55686D01*
Y55894D01*
X305999Y56074D01*
X306068Y56420D01*
X306179Y56712D01*
X306290Y56961D01*
X306401Y57155D01*
X306512Y57294D01*
X306554Y57336D01*
X306581Y57377D01*
X306595Y57405D01*
X306609D01*
X306734Y57516D01*
X306873Y57613D01*
X307178Y57752D01*
X307497Y57863D01*
X307802Y57946D01*
X308079Y57988D01*
X308204Y58001D01*
X308315D01*
X308398Y58015D01*
X312420D01*
Y50416D01*
D02*
G37*
G36*
X291229D02*
X289107D01*
Y58015D01*
X291229D01*
Y50416D01*
D02*
G37*
G36*
X262799D02*
X260441D01*
Y53494D01*
X260247D01*
X260122Y53480D01*
X260011Y53467D01*
X259914Y53439D01*
X259831Y53411D01*
X259762Y53369D01*
X259706Y53342D01*
X259678Y53328D01*
X259665Y53314D01*
X259595Y53245D01*
X259512Y53161D01*
X259373Y52967D01*
X259318Y52884D01*
X259276Y52801D01*
X259249Y52745D01*
X259235Y52731D01*
X257973Y50416D01*
X255310D01*
X256461Y52607D01*
X256503Y52676D01*
X256544Y52745D01*
X256655Y52912D01*
X256711Y52967D01*
X256752Y53023D01*
X256780Y53064D01*
X256794Y53078D01*
X256877Y53189D01*
X256960Y53272D01*
X257016Y53342D01*
X257071Y53397D01*
X257113Y53439D01*
X257141Y53467D01*
X257168Y53480D01*
X257251Y53536D01*
X257349Y53577D01*
X257543Y53675D01*
X257640Y53702D01*
X257709Y53730D01*
X257765Y53758D01*
X257778D01*
X257598Y53813D01*
X257432Y53855D01*
X257293Y53910D01*
X257168Y53952D01*
X257085Y53994D01*
X257016Y54035D01*
X256974Y54049D01*
X256960Y54063D01*
X256794Y54174D01*
X256641Y54299D01*
X256516Y54423D01*
X256406Y54534D01*
X256322Y54645D01*
X256253Y54729D01*
X256225Y54784D01*
X256211Y54798D01*
X256114Y54978D01*
X256045Y55172D01*
X256003Y55353D01*
X255962Y55519D01*
X255948Y55672D01*
X255934Y55783D01*
Y55866D01*
Y55894D01*
X255948Y56157D01*
X255989Y56393D01*
X256045Y56601D01*
X256114Y56781D01*
X256184Y56934D01*
X256239Y57045D01*
X256281Y57100D01*
X256295Y57128D01*
X256433Y57308D01*
X256586Y57447D01*
X256738Y57572D01*
X256891Y57669D01*
X257016Y57738D01*
X257127Y57780D01*
X257196Y57807D01*
X257224Y57821D01*
X257460Y57891D01*
X257723Y57932D01*
X258000Y57974D01*
X258264Y57988D01*
X258514Y58001D01*
X258611Y58015D01*
X262799D01*
Y50416D01*
D02*
G37*
G36*
X230499D02*
X228239D01*
Y52537D01*
X230499D01*
Y50416D01*
D02*
G37*
G36*
X285141Y56032D02*
X285390Y56005D01*
X285626Y55977D01*
X285848Y55921D01*
X286056Y55852D01*
X286250Y55783D01*
X286417Y55713D01*
X286569Y55644D01*
X286708Y55561D01*
X286833Y55491D01*
X286944Y55422D01*
X287027Y55353D01*
X287096Y55297D01*
X287138Y55269D01*
X287166Y55242D01*
X287180Y55228D01*
X287332Y55075D01*
X287457Y54909D01*
X287568Y54729D01*
X287665Y54562D01*
X287748Y54382D01*
X287817Y54215D01*
X287915Y53883D01*
X287956Y53730D01*
X287984Y53591D01*
X287998Y53467D01*
X288012Y53356D01*
X288025Y53272D01*
Y53203D01*
Y53161D01*
Y53148D01*
X288012Y52898D01*
X287984Y52662D01*
X287928Y52440D01*
X287873Y52232D01*
X287790Y52038D01*
X287707Y51858D01*
X287623Y51691D01*
X287526Y51539D01*
X287429Y51414D01*
X287346Y51289D01*
X287263Y51192D01*
X287180Y51109D01*
X287124Y51040D01*
X287069Y50998D01*
X287041Y50970D01*
X287027Y50956D01*
X286874Y50845D01*
X286694Y50735D01*
X286347Y50568D01*
X285987Y50457D01*
X285640Y50374D01*
X285488Y50346D01*
X285335Y50332D01*
X285210Y50304D01*
X285099D01*
X285002Y50291D01*
X284877D01*
X284600Y50304D01*
X284350Y50332D01*
X284101Y50360D01*
X283879Y50416D01*
X283671Y50471D01*
X283477Y50540D01*
X283296Y50623D01*
X283144Y50693D01*
X283005Y50762D01*
X282880Y50845D01*
X282769Y50915D01*
X282686Y50970D01*
X282617Y51026D01*
X282575Y51067D01*
X282547Y51081D01*
X282534Y51095D01*
X282381Y51248D01*
X282256Y51414D01*
X282145Y51594D01*
X282048Y51761D01*
X281965Y51941D01*
X281896Y52107D01*
X281799Y52440D01*
X281757Y52593D01*
X281729Y52731D01*
X281715Y52856D01*
X281702Y52967D01*
X281688Y53050D01*
Y53120D01*
Y53161D01*
Y53175D01*
X281702Y53383D01*
X281715Y53577D01*
X281799Y53952D01*
X281910Y54271D01*
X282034Y54548D01*
X282104Y54673D01*
X282159Y54770D01*
X282215Y54867D01*
X282270Y54937D01*
X282312Y54992D01*
X282353Y55047D01*
X282367Y55061D01*
X282381Y55075D01*
X282547Y55242D01*
X282728Y55394D01*
X282922Y55519D01*
X283130Y55644D01*
X283338Y55727D01*
X283546Y55810D01*
X283754Y55880D01*
X283948Y55921D01*
X284128Y55963D01*
X284309Y55991D01*
X284475Y56018D01*
X284600Y56032D01*
X284725Y56046D01*
X284877D01*
X285141Y56032D01*
D02*
G37*
G36*
X269927Y55380D02*
X270052Y55491D01*
X270177Y55602D01*
X270302Y55686D01*
X270413Y55755D01*
X270510Y55810D01*
X270579Y55852D01*
X270634Y55866D01*
X270648Y55880D01*
X270801Y55935D01*
X270954Y55977D01*
X271106Y56005D01*
X271245Y56032D01*
X271356D01*
X271453Y56046D01*
X271536D01*
X271716Y56032D01*
X271896Y56018D01*
X272229Y55935D01*
X272507Y55810D01*
X272743Y55686D01*
X272937Y55547D01*
X273075Y55422D01*
X273131Y55380D01*
X273172Y55339D01*
X273186Y55325D01*
X273200Y55311D01*
X273311Y55172D01*
X273408Y55020D01*
X273575Y54687D01*
X273686Y54326D01*
X273769Y53994D01*
X273797Y53841D01*
X273810Y53688D01*
X273838Y53564D01*
Y53439D01*
X273852Y53356D01*
Y53272D01*
Y53231D01*
Y53217D01*
X273824Y52773D01*
X273755Y52371D01*
X273672Y52024D01*
X273616Y51858D01*
X273561Y51719D01*
X273505Y51594D01*
X273450Y51469D01*
X273408Y51372D01*
X273367Y51289D01*
X273325Y51220D01*
X273297Y51178D01*
X273270Y51150D01*
Y51137D01*
X273145Y50984D01*
X273020Y50859D01*
X272895Y50748D01*
X272743Y50651D01*
X272604Y50568D01*
X272465Y50499D01*
X272188Y50402D01*
X271938Y50332D01*
X271827Y50318D01*
X271730Y50304D01*
X271661Y50291D01*
X271550D01*
X271342Y50304D01*
X271161Y50332D01*
X270981Y50360D01*
X270829Y50416D01*
X270718Y50457D01*
X270621Y50485D01*
X270551Y50513D01*
X270537Y50526D01*
X270399Y50610D01*
X270274Y50707D01*
X270149Y50831D01*
X270024Y50943D01*
X269927Y51053D01*
X269844Y51137D01*
X269788Y51192D01*
X269775Y51220D01*
Y50416D01*
X267792D01*
Y58015D01*
X269927D01*
Y55380D01*
D02*
G37*
G36*
X224300Y58126D02*
X224578Y58099D01*
X224827Y58057D01*
X225063Y58001D01*
X225271Y57932D01*
X225465Y57863D01*
X225645Y57780D01*
X225798Y57710D01*
X225937Y57627D01*
X226061Y57544D01*
X226159Y57474D01*
X226242Y57405D01*
X226311Y57350D01*
X226353Y57308D01*
X226380Y57280D01*
X226394Y57267D01*
X226533Y57086D01*
X226644Y56892D01*
X226755Y56670D01*
X226838Y56434D01*
X226977Y55935D01*
X227074Y55436D01*
X227102Y55200D01*
X227129Y54978D01*
X227143Y54770D01*
X227157Y54590D01*
X227171Y54451D01*
Y54340D01*
Y54271D01*
Y54243D01*
X227157Y53924D01*
X227143Y53619D01*
X227115Y53342D01*
X227088Y53106D01*
X227060Y52898D01*
X227046Y52745D01*
X227032Y52690D01*
X227018Y52648D01*
Y52634D01*
Y52621D01*
X226963Y52371D01*
X226894Y52135D01*
X226824Y51941D01*
X226755Y51789D01*
X226699Y51650D01*
X226644Y51567D01*
X226616Y51497D01*
X226602Y51483D01*
X226450Y51275D01*
X226283Y51095D01*
X226131Y50943D01*
X225964Y50818D01*
X225840Y50721D01*
X225729Y50651D01*
X225659Y50610D01*
X225632Y50596D01*
X225396Y50499D01*
X225132Y50416D01*
X224869Y50360D01*
X224619Y50332D01*
X224397Y50304D01*
X224314D01*
X224231Y50291D01*
X224064D01*
X223759Y50304D01*
X223468Y50332D01*
X223205Y50374D01*
X222969Y50443D01*
X222747Y50513D01*
X222553Y50596D01*
X222372Y50679D01*
X222220Y50776D01*
X222081Y50859D01*
X221970Y50943D01*
X221873Y51026D01*
X221790Y51095D01*
X221721Y51164D01*
X221679Y51206D01*
X221665Y51234D01*
X221651Y51248D01*
X221527Y51442D01*
X221416Y51650D01*
X221318Y51885D01*
X221235Y52121D01*
X221110Y52621D01*
X221027Y53120D01*
X221000Y53356D01*
X220986Y53564D01*
X220972Y53758D01*
X220958Y53938D01*
X220944Y54077D01*
Y54174D01*
Y54243D01*
Y54271D01*
X220958Y54604D01*
X220972Y54937D01*
X221013Y55228D01*
X221055Y55491D01*
X221097Y55713D01*
X221110Y55810D01*
X221124Y55880D01*
X221138Y55949D01*
X221152Y55991D01*
X221166Y56018D01*
Y56032D01*
X221208Y56199D01*
X221263Y56337D01*
X221305Y56476D01*
X221346Y56587D01*
X221388Y56684D01*
X221429Y56753D01*
X221443Y56795D01*
X221457Y56809D01*
X221610Y57059D01*
X221693Y57169D01*
X221776Y57253D01*
X221845Y57336D01*
X221901Y57391D01*
X221943Y57433D01*
X221956Y57447D01*
X222081Y57558D01*
X222206Y57655D01*
X222345Y57738D01*
X222470Y57807D01*
X222581Y57863D01*
X222678Y57918D01*
X222733Y57932D01*
X222761Y57946D01*
X222955Y58015D01*
X223163Y58057D01*
X223371Y58099D01*
X223565Y58113D01*
X223745Y58126D01*
X223884Y58140D01*
X224009D01*
X224300Y58126D01*
D02*
G37*
G36*
X195731Y50291D02*
X194663D01*
X192750Y58140D01*
X193831D01*
X195731Y50291D01*
D02*
G37*
G36*
X290660Y45220D02*
X288552D01*
Y46663D01*
X290660D01*
Y45220D01*
D02*
G37*
G36*
X255310Y39063D02*
X253341D01*
Y39867D01*
X253188Y39687D01*
X253049Y39548D01*
X252911Y39423D01*
X252800Y39326D01*
X252703Y39257D01*
X252633Y39215D01*
X252592Y39188D01*
X252578Y39174D01*
X252398Y39090D01*
X252231Y39035D01*
X252051Y38993D01*
X251898Y38966D01*
X251760Y38952D01*
X251663Y38938D01*
X251565D01*
X251330Y38952D01*
X251108Y38993D01*
X250900Y39049D01*
X250733Y39104D01*
X250581Y39160D01*
X250484Y39215D01*
X250414Y39257D01*
X250387Y39271D01*
X250193Y39409D01*
X250040Y39576D01*
X249887Y39742D01*
X249776Y39909D01*
X249679Y40061D01*
X249610Y40186D01*
X249568Y40269D01*
X249555Y40283D01*
Y40297D01*
X249457Y40561D01*
X249374Y40838D01*
X249319Y41101D01*
X249291Y41351D01*
X249263Y41573D01*
Y41656D01*
X249249Y41739D01*
Y41809D01*
Y41850D01*
Y41878D01*
Y41892D01*
X249263Y42142D01*
X249277Y42364D01*
X249305Y42585D01*
X249347Y42779D01*
X249402Y42974D01*
X249457Y43140D01*
X249513Y43293D01*
X249582Y43431D01*
X249638Y43556D01*
X249707Y43653D01*
X249763Y43750D01*
X249804Y43820D01*
X249860Y43889D01*
X249887Y43931D01*
X249901Y43945D01*
X249915Y43958D01*
X250040Y44083D01*
X250179Y44208D01*
X250303Y44305D01*
X250456Y44388D01*
X250733Y44513D01*
X250997Y44596D01*
X251219Y44652D01*
X251330Y44666D01*
X251413Y44679D01*
X251482Y44693D01*
X251760D01*
X251926Y44666D01*
X252079Y44638D01*
X252203Y44610D01*
X252314Y44582D01*
X252398Y44555D01*
X252453Y44541D01*
X252467Y44527D01*
X252606Y44458D01*
X252744Y44374D01*
X252869Y44291D01*
X252966Y44222D01*
X253049Y44139D01*
X253119Y44083D01*
X253160Y44042D01*
X253174Y44028D01*
Y46663D01*
X255310D01*
Y39063D01*
D02*
G37*
G36*
X238058D02*
X235714D01*
Y40907D01*
X234507Y42169D01*
X232899Y39063D01*
X230000D01*
X232913Y43792D01*
X230125Y46663D01*
X233259D01*
X235714Y43778D01*
Y46663D01*
X238058D01*
Y39063D01*
D02*
G37*
G36*
X285404Y44679D02*
X285585Y44666D01*
X285904Y44582D01*
X286181Y44485D01*
X286417Y44360D01*
X286611Y44236D01*
X286750Y44125D01*
X286791Y44083D01*
X286833Y44042D01*
X286847Y44028D01*
X286861Y44014D01*
X286971Y43875D01*
X287055Y43737D01*
X287207Y43418D01*
X287318Y43099D01*
X287388Y42779D01*
X287443Y42502D01*
X287457Y42377D01*
Y42266D01*
X287471Y42183D01*
Y42114D01*
Y42072D01*
Y42058D01*
X287457Y41656D01*
X287401Y41296D01*
X287318Y40991D01*
X287235Y40727D01*
X287193Y40616D01*
X287152Y40519D01*
X287110Y40436D01*
X287069Y40366D01*
X287041Y40311D01*
X287013Y40269D01*
X286999Y40255D01*
Y40242D01*
X286861Y40075D01*
X286722Y39923D01*
X286569Y39798D01*
X286431Y39687D01*
X286278Y39590D01*
X286126Y39520D01*
X285987Y39451D01*
X285848Y39409D01*
X285599Y39340D01*
X285488Y39312D01*
X285390Y39299D01*
X285321Y39285D01*
X285210D01*
X285002Y39299D01*
X284808Y39326D01*
X284628Y39368D01*
X284461Y39409D01*
X284336Y39451D01*
X284226Y39493D01*
X284170Y39520D01*
X284142Y39534D01*
X284031Y39604D01*
X283920Y39687D01*
X283810Y39770D01*
X283712Y39867D01*
X283629Y39936D01*
X283574Y40006D01*
X283532Y40047D01*
X283518Y40061D01*
Y39229D01*
X283532Y39021D01*
X283560Y38855D01*
X283588Y38716D01*
X283629Y38591D01*
X283685Y38508D01*
X283712Y38453D01*
X283740Y38411D01*
X283754Y38397D01*
X283851Y38314D01*
X283962Y38258D01*
X284073Y38203D01*
X284184Y38175D01*
X284281Y38161D01*
X284364Y38147D01*
X284447D01*
X284572Y38161D01*
X284683Y38175D01*
X284780Y38203D01*
X284863Y38231D01*
X284933Y38258D01*
X284988Y38286D01*
X285016Y38314D01*
X285030D01*
X285085Y38369D01*
X285141Y38425D01*
X285210Y38550D01*
X285238Y38605D01*
X285252Y38661D01*
X285266Y38688D01*
Y38702D01*
X287318Y38938D01*
Y38827D01*
Y38744D01*
Y38674D01*
Y38661D01*
X287304Y38508D01*
X287290Y38369D01*
X287221Y38106D01*
X287124Y37870D01*
X287013Y37690D01*
X286902Y37537D01*
X286805Y37426D01*
X286736Y37357D01*
X286708Y37329D01*
X286583Y37246D01*
X286431Y37163D01*
X286264Y37094D01*
X286084Y37038D01*
X285709Y36955D01*
X285335Y36899D01*
X285155Y36872D01*
X284974Y36858D01*
X284822Y36844D01*
X284683D01*
X284572Y36830D01*
X284156D01*
X283920Y36858D01*
X283699Y36872D01*
X283504Y36899D01*
X283352Y36927D01*
X283241Y36941D01*
X283172Y36969D01*
X283144D01*
X282936Y37024D01*
X282756Y37094D01*
X282603Y37149D01*
X282464Y37218D01*
X282353Y37288D01*
X282284Y37343D01*
X282229Y37371D01*
X282215Y37385D01*
X282076Y37496D01*
X281965Y37620D01*
X281854Y37759D01*
X281771Y37870D01*
X281702Y37981D01*
X281660Y38064D01*
X281632Y38134D01*
X281618Y38147D01*
X281549Y38328D01*
X281493Y38494D01*
X281452Y38661D01*
X281424Y38813D01*
X281410Y38938D01*
X281396Y39035D01*
Y39090D01*
Y39118D01*
Y39368D01*
Y44569D01*
X283380D01*
Y43750D01*
X283518Y43931D01*
X283657Y44069D01*
X283782Y44194D01*
X283907Y44305D01*
X284004Y44374D01*
X284087Y44430D01*
X284142Y44458D01*
X284156Y44472D01*
X284323Y44541D01*
X284503Y44596D01*
X284683Y44638D01*
X284850Y44666D01*
X285002Y44679D01*
X285113Y44693D01*
X285224D01*
X285404Y44679D01*
D02*
G37*
G36*
X246545Y39063D02*
X246601Y38910D01*
X246670Y38785D01*
X246739Y38688D01*
X246795Y38605D01*
X246850Y38536D01*
X246892Y38494D01*
X246919Y38480D01*
X246933Y38466D01*
X247031Y38411D01*
X247128Y38369D01*
X247322Y38314D01*
X247419Y38300D01*
X247474Y38286D01*
X247544D01*
X247752Y38300D01*
X247932Y38314D01*
X248112Y38342D01*
X248251Y38369D01*
X248376Y38397D01*
X248473Y38411D01*
X248528Y38439D01*
X248556D01*
X248390Y36955D01*
X248057Y36913D01*
X247766Y36885D01*
X247530Y36858D01*
X247336Y36844D01*
X247183D01*
X247072Y36830D01*
X246781D01*
X246587Y36858D01*
X246240Y36913D01*
X245963Y36983D01*
X245727Y37080D01*
X245547Y37177D01*
X245408Y37246D01*
X245338Y37301D01*
X245311Y37329D01*
X245242Y37399D01*
X245172Y37496D01*
X245033Y37690D01*
X244895Y37912D01*
X244784Y38147D01*
X244687Y38356D01*
X244617Y38522D01*
X244590Y38591D01*
X244562Y38647D01*
X244548Y38674D01*
Y38688D01*
X242357Y44569D01*
X244437D01*
X245491Y40893D01*
X246628Y44569D01*
X248847D01*
X246545Y39063D01*
D02*
G37*
G36*
X227670D02*
X227726Y38910D01*
X227795Y38785D01*
X227864Y38688D01*
X227920Y38605D01*
X227975Y38536D01*
X228017Y38494D01*
X228045Y38480D01*
X228058Y38466D01*
X228156Y38411D01*
X228253Y38369D01*
X228447Y38314D01*
X228544Y38300D01*
X228599Y38286D01*
X228669D01*
X228877Y38300D01*
X229057Y38314D01*
X229237Y38342D01*
X229376Y38369D01*
X229501Y38397D01*
X229598Y38411D01*
X229653Y38439D01*
X229681D01*
X229515Y36955D01*
X229182Y36913D01*
X228891Y36885D01*
X228655Y36858D01*
X228461Y36844D01*
X228308D01*
X228197Y36830D01*
X227906D01*
X227712Y36858D01*
X227365Y36913D01*
X227088Y36983D01*
X226852Y37080D01*
X226672Y37177D01*
X226533Y37246D01*
X226464Y37301D01*
X226436Y37329D01*
X226367Y37399D01*
X226297Y37496D01*
X226159Y37690D01*
X226020Y37912D01*
X225909Y38147D01*
X225812Y38356D01*
X225742Y38522D01*
X225715Y38591D01*
X225687Y38647D01*
X225673Y38674D01*
Y38688D01*
X223482Y44569D01*
X225562D01*
X226616Y40893D01*
X227753Y44569D01*
X229972D01*
X227670Y39063D01*
D02*
G37*
G36*
X200460Y41060D02*
X200433Y40685D01*
X200377Y40353D01*
X200308Y40075D01*
X200211Y39853D01*
X200128Y39673D01*
X200044Y39548D01*
X199989Y39479D01*
X199975Y39451D01*
X199767Y39285D01*
X199545Y39160D01*
X199323Y39063D01*
X199101Y39007D01*
X198907Y38966D01*
X198741Y38952D01*
X198685Y38938D01*
X198602D01*
X198366Y38952D01*
X198158Y38980D01*
X197964Y39007D01*
X197812Y39049D01*
X197687Y39090D01*
X197590Y39132D01*
X197520Y39146D01*
X197506Y39160D01*
X197340Y39257D01*
X197174Y39382D01*
X197021Y39520D01*
X196882Y39645D01*
X196771Y39756D01*
X196674Y39867D01*
X196619Y39923D01*
X196605Y39950D01*
Y39063D01*
X194636D01*
Y44569D01*
X196744D01*
Y41920D01*
X196758Y41656D01*
X196785Y41434D01*
X196827Y41254D01*
X196868Y41101D01*
X196910Y41004D01*
X196952Y40921D01*
X196979Y40880D01*
X196993Y40866D01*
X197090Y40769D01*
X197188Y40699D01*
X197298Y40658D01*
X197395Y40630D01*
X197479Y40602D01*
X197548Y40588D01*
X197617D01*
X197742Y40602D01*
X197853Y40616D01*
X197936Y40658D01*
X198020Y40699D01*
X198075Y40727D01*
X198117Y40769D01*
X198144Y40782D01*
X198158Y40796D01*
X198214Y40893D01*
X198255Y41004D01*
X198311Y41254D01*
X198325Y41351D01*
X198339Y41448D01*
Y41504D01*
Y41531D01*
Y44569D01*
X200460D01*
Y41060D01*
D02*
G37*
G36*
X301741Y44679D02*
X301991Y44666D01*
X302227Y44624D01*
X302449Y44569D01*
X302657Y44513D01*
X302837Y44444D01*
X303017Y44360D01*
X303170Y44291D01*
X303309Y44222D01*
X303419Y44139D01*
X303530Y44069D01*
X303614Y44014D01*
X303683Y43958D01*
X303724Y43931D01*
X303752Y43903D01*
X303766Y43889D01*
X303905Y43737D01*
X304030Y43570D01*
X304141Y43404D01*
X304238Y43223D01*
X304321Y43043D01*
X304390Y42877D01*
X304487Y42544D01*
X304515Y42391D01*
X304543Y42252D01*
X304557Y42114D01*
X304571Y42003D01*
X304584Y41920D01*
Y41850D01*
Y41809D01*
Y41795D01*
X304571Y41462D01*
X304515Y41171D01*
X304459Y40893D01*
X304376Y40672D01*
X304307Y40477D01*
X304238Y40339D01*
X304224Y40283D01*
X304196Y40242D01*
X304182Y40228D01*
Y40214D01*
X304016Y39978D01*
X303849Y39784D01*
X303669Y39618D01*
X303503Y39479D01*
X303364Y39382D01*
X303239Y39299D01*
X303170Y39257D01*
X303142Y39243D01*
X302892Y39146D01*
X302615Y39063D01*
X302324Y39007D01*
X302046Y38980D01*
X301797Y38952D01*
X301700D01*
X301603Y38938D01*
X301187D01*
X300979Y38952D01*
X300770Y38966D01*
X300590Y38993D01*
X300410Y39021D01*
X300257Y39049D01*
X300119Y39090D01*
X299980Y39118D01*
X299869Y39146D01*
X299772Y39188D01*
X299689Y39215D01*
X299620Y39243D01*
X299564Y39271D01*
X299522Y39285D01*
X299508Y39299D01*
X299495D01*
X299245Y39451D01*
X299023Y39631D01*
X298829Y39839D01*
X298662Y40034D01*
X298524Y40214D01*
X298413Y40353D01*
X298385Y40408D01*
X298357Y40450D01*
X298330Y40477D01*
Y40491D01*
X300410Y40685D01*
X300479Y40588D01*
X300562Y40519D01*
X300618Y40450D01*
X300674Y40408D01*
X300757Y40339D01*
X300770Y40325D01*
X300784D01*
X300895Y40269D01*
X300992Y40242D01*
X301173Y40186D01*
X301256D01*
X301311Y40172D01*
X301367D01*
X301547Y40186D01*
X301700Y40228D01*
X301838Y40283D01*
X301949Y40353D01*
X302046Y40422D01*
X302116Y40477D01*
X302157Y40519D01*
X302171Y40533D01*
X302241Y40644D01*
X302296Y40755D01*
X302379Y41004D01*
X302407Y41115D01*
X302421Y41212D01*
X302435Y41268D01*
Y41296D01*
X298205D01*
Y41531D01*
X298219Y41920D01*
X298260Y42266D01*
X298316Y42558D01*
X298385Y42821D01*
X298454Y43015D01*
X298482Y43099D01*
X298510Y43168D01*
X298538Y43223D01*
X298552Y43265D01*
X298566Y43279D01*
Y43293D01*
X298718Y43528D01*
X298884Y43737D01*
X299051Y43917D01*
X299231Y44069D01*
X299384Y44180D01*
X299508Y44264D01*
X299592Y44319D01*
X299606Y44333D01*
X299620D01*
X299897Y44458D01*
X300202Y44541D01*
X300507Y44610D01*
X300798Y44652D01*
X301062Y44679D01*
X301187D01*
X301284Y44693D01*
X301478D01*
X301741Y44679D01*
D02*
G37*
G36*
X270454D02*
X270704Y44666D01*
X270940Y44624D01*
X271161Y44569D01*
X271369Y44513D01*
X271550Y44444D01*
X271730Y44360D01*
X271883Y44291D01*
X272021Y44222D01*
X272132Y44139D01*
X272243Y44069D01*
X272327Y44014D01*
X272396Y43958D01*
X272437Y43931D01*
X272465Y43903D01*
X272479Y43889D01*
X272618Y43737D01*
X272743Y43570D01*
X272854Y43404D01*
X272950Y43223D01*
X273034Y43043D01*
X273103Y42877D01*
X273200Y42544D01*
X273228Y42391D01*
X273256Y42252D01*
X273270Y42114D01*
X273283Y42003D01*
X273297Y41920D01*
Y41850D01*
Y41809D01*
Y41795D01*
X273283Y41462D01*
X273228Y41171D01*
X273172Y40893D01*
X273089Y40672D01*
X273020Y40477D01*
X272950Y40339D01*
X272937Y40283D01*
X272909Y40242D01*
X272895Y40228D01*
Y40214D01*
X272729Y39978D01*
X272562Y39784D01*
X272382Y39618D01*
X272215Y39479D01*
X272077Y39382D01*
X271952Y39299D01*
X271883Y39257D01*
X271855Y39243D01*
X271605Y39146D01*
X271328Y39063D01*
X271037Y39007D01*
X270759Y38980D01*
X270510Y38952D01*
X270413D01*
X270315Y38938D01*
X269900D01*
X269692Y38952D01*
X269483Y38966D01*
X269303Y38993D01*
X269123Y39021D01*
X268970Y39049D01*
X268832Y39090D01*
X268693Y39118D01*
X268582Y39146D01*
X268485Y39188D01*
X268402Y39215D01*
X268332Y39243D01*
X268277Y39271D01*
X268235Y39285D01*
X268221Y39299D01*
X268207D01*
X267958Y39451D01*
X267736Y39631D01*
X267542Y39839D01*
X267375Y40034D01*
X267237Y40214D01*
X267126Y40353D01*
X267098Y40408D01*
X267070Y40450D01*
X267043Y40477D01*
Y40491D01*
X269123Y40685D01*
X269192Y40588D01*
X269275Y40519D01*
X269331Y40450D01*
X269386Y40408D01*
X269470Y40339D01*
X269483Y40325D01*
X269497D01*
X269608Y40269D01*
X269705Y40242D01*
X269886Y40186D01*
X269969D01*
X270024Y40172D01*
X270080D01*
X270260Y40186D01*
X270413Y40228D01*
X270551Y40283D01*
X270662Y40353D01*
X270759Y40422D01*
X270829Y40477D01*
X270870Y40519D01*
X270884Y40533D01*
X270954Y40644D01*
X271009Y40755D01*
X271092Y41004D01*
X271120Y41115D01*
X271134Y41212D01*
X271148Y41268D01*
Y41296D01*
X266918D01*
Y41531D01*
X266932Y41920D01*
X266973Y42266D01*
X267029Y42558D01*
X267098Y42821D01*
X267167Y43015D01*
X267195Y43099D01*
X267223Y43168D01*
X267251Y43223D01*
X267264Y43265D01*
X267278Y43279D01*
Y43293D01*
X267431Y43528D01*
X267597Y43737D01*
X267764Y43917D01*
X267944Y44069D01*
X268097Y44180D01*
X268221Y44264D01*
X268305Y44319D01*
X268319Y44333D01*
X268332D01*
X268610Y44458D01*
X268915Y44541D01*
X269220Y44610D01*
X269511Y44652D01*
X269775Y44679D01*
X269900D01*
X269997Y44693D01*
X270191D01*
X270454Y44679D01*
D02*
G37*
G36*
X216756D02*
X217005Y44666D01*
X217241Y44624D01*
X217463Y44569D01*
X217671Y44513D01*
X217851Y44444D01*
X218032Y44360D01*
X218184Y44291D01*
X218323Y44222D01*
X218434Y44139D01*
X218545Y44069D01*
X218628Y44014D01*
X218697Y43958D01*
X218739Y43931D01*
X218767Y43903D01*
X218781Y43889D01*
X218919Y43737D01*
X219044Y43570D01*
X219155Y43404D01*
X219252Y43223D01*
X219335Y43043D01*
X219405Y42877D01*
X219502Y42544D01*
X219529Y42391D01*
X219557Y42252D01*
X219571Y42114D01*
X219585Y42003D01*
X219599Y41920D01*
Y41850D01*
Y41809D01*
Y41795D01*
X219585Y41462D01*
X219529Y41171D01*
X219474Y40893D01*
X219391Y40672D01*
X219321Y40477D01*
X219252Y40339D01*
X219238Y40283D01*
X219210Y40242D01*
X219197Y40228D01*
Y40214D01*
X219030Y39978D01*
X218864Y39784D01*
X218683Y39618D01*
X218517Y39479D01*
X218378Y39382D01*
X218254Y39299D01*
X218184Y39257D01*
X218157Y39243D01*
X217907Y39146D01*
X217630Y39063D01*
X217338Y39007D01*
X217061Y38980D01*
X216811Y38952D01*
X216714D01*
X216617Y38938D01*
X216201D01*
X215993Y38952D01*
X215785Y38966D01*
X215605Y38993D01*
X215424Y39021D01*
X215272Y39049D01*
X215133Y39090D01*
X214995Y39118D01*
X214883Y39146D01*
X214786Y39188D01*
X214703Y39215D01*
X214634Y39243D01*
X214578Y39271D01*
X214537Y39285D01*
X214523Y39299D01*
X214509D01*
X214259Y39451D01*
X214038Y39631D01*
X213843Y39839D01*
X213677Y40034D01*
X213538Y40214D01*
X213427Y40353D01*
X213400Y40408D01*
X213372Y40450D01*
X213344Y40477D01*
Y40491D01*
X215424Y40685D01*
X215494Y40588D01*
X215577Y40519D01*
X215632Y40450D01*
X215688Y40408D01*
X215771Y40339D01*
X215785Y40325D01*
X215799D01*
X215910Y40269D01*
X216007Y40242D01*
X216187Y40186D01*
X216270D01*
X216326Y40172D01*
X216381D01*
X216562Y40186D01*
X216714Y40228D01*
X216853Y40283D01*
X216964Y40353D01*
X217061Y40422D01*
X217130Y40477D01*
X217172Y40519D01*
X217186Y40533D01*
X217255Y40644D01*
X217311Y40755D01*
X217394Y41004D01*
X217421Y41115D01*
X217435Y41212D01*
X217449Y41268D01*
Y41296D01*
X213219D01*
Y41531D01*
X213233Y41920D01*
X213275Y42266D01*
X213330Y42558D01*
X213400Y42821D01*
X213469Y43015D01*
X213497Y43099D01*
X213524Y43168D01*
X213552Y43223D01*
X213566Y43265D01*
X213580Y43279D01*
Y43293D01*
X213732Y43528D01*
X213899Y43737D01*
X214065Y43917D01*
X214246Y44069D01*
X214398Y44180D01*
X214523Y44264D01*
X214606Y44319D01*
X214620Y44333D01*
X214634D01*
X214911Y44458D01*
X215216Y44541D01*
X215522Y44610D01*
X215813Y44652D01*
X216076Y44679D01*
X216201D01*
X216298Y44693D01*
X216492D01*
X216756Y44679D01*
D02*
G37*
G36*
X178978D02*
X179228Y44666D01*
X179464Y44624D01*
X179685Y44569D01*
X179894Y44513D01*
X180074Y44444D01*
X180254Y44360D01*
X180407Y44291D01*
X180545Y44222D01*
X180656Y44139D01*
X180767Y44069D01*
X180851Y44014D01*
X180920Y43958D01*
X180961Y43931D01*
X180989Y43903D01*
X181003Y43889D01*
X181142Y43737D01*
X181266Y43570D01*
X181378Y43404D01*
X181475Y43223D01*
X181558Y43043D01*
X181627Y42877D01*
X181724Y42544D01*
X181752Y42391D01*
X181780Y42252D01*
X181793Y42114D01*
X181807Y42003D01*
X181821Y41920D01*
Y41850D01*
Y41809D01*
Y41795D01*
X181807Y41462D01*
X181752Y41171D01*
X181696Y40893D01*
X181613Y40672D01*
X181544Y40477D01*
X181475Y40339D01*
X181461Y40283D01*
X181433Y40242D01*
X181419Y40228D01*
Y40214D01*
X181253Y39978D01*
X181086Y39784D01*
X180906Y39618D01*
X180739Y39479D01*
X180601Y39382D01*
X180476Y39299D01*
X180407Y39257D01*
X180379Y39243D01*
X180129Y39146D01*
X179852Y39063D01*
X179561Y39007D01*
X179283Y38980D01*
X179034Y38952D01*
X178937D01*
X178840Y38938D01*
X178424D01*
X178216Y38952D01*
X178008Y38966D01*
X177827Y38993D01*
X177647Y39021D01*
X177494Y39049D01*
X177356Y39090D01*
X177217Y39118D01*
X177106Y39146D01*
X177009Y39188D01*
X176926Y39215D01*
X176856Y39243D01*
X176801Y39271D01*
X176759Y39285D01*
X176745Y39299D01*
X176732D01*
X176482Y39451D01*
X176260Y39631D01*
X176066Y39839D01*
X175900Y40034D01*
X175761Y40214D01*
X175650Y40353D01*
X175622Y40408D01*
X175594Y40450D01*
X175567Y40477D01*
Y40491D01*
X177647Y40685D01*
X177716Y40588D01*
X177799Y40519D01*
X177855Y40450D01*
X177910Y40408D01*
X177994Y40339D01*
X178008Y40325D01*
X178021D01*
X178132Y40269D01*
X178229Y40242D01*
X178410Y40186D01*
X178493D01*
X178548Y40172D01*
X178604D01*
X178784Y40186D01*
X178937Y40228D01*
X179075Y40283D01*
X179186Y40353D01*
X179283Y40422D01*
X179353Y40477D01*
X179394Y40519D01*
X179408Y40533D01*
X179478Y40644D01*
X179533Y40755D01*
X179616Y41004D01*
X179644Y41115D01*
X179658Y41212D01*
X179672Y41268D01*
Y41296D01*
X175442D01*
Y41531D01*
X175456Y41920D01*
X175497Y42266D01*
X175553Y42558D01*
X175622Y42821D01*
X175691Y43015D01*
X175719Y43099D01*
X175747Y43168D01*
X175775Y43223D01*
X175788Y43265D01*
X175802Y43279D01*
Y43293D01*
X175955Y43528D01*
X176121Y43737D01*
X176288Y43917D01*
X176468Y44069D01*
X176621Y44180D01*
X176745Y44264D01*
X176829Y44319D01*
X176842Y44333D01*
X176856D01*
X177134Y44458D01*
X177439Y44541D01*
X177744Y44610D01*
X178035Y44652D01*
X178299Y44679D01*
X178424D01*
X178521Y44693D01*
X178715D01*
X178978Y44679D01*
D02*
G37*
G36*
X312420Y39063D02*
X308939D01*
X308689Y39077D01*
X308454Y39090D01*
X308204Y39118D01*
X307996Y39160D01*
X307802Y39202D01*
X307649Y39229D01*
X307594Y39243D01*
X307552D01*
X307538Y39257D01*
X307525D01*
X307316Y39326D01*
X307122Y39423D01*
X306956Y39520D01*
X306789Y39618D01*
X306665Y39715D01*
X306567Y39798D01*
X306512Y39853D01*
X306484Y39867D01*
X306304Y40047D01*
X306152Y40242D01*
X306013Y40422D01*
X305902Y40602D01*
X305819Y40755D01*
X305763Y40880D01*
X305722Y40963D01*
X305708Y40977D01*
Y40991D01*
X305611Y41268D01*
X305541Y41573D01*
X305486Y41892D01*
X305458Y42183D01*
X305430Y42461D01*
Y42572D01*
X305417Y42682D01*
Y42766D01*
Y42821D01*
Y42863D01*
Y42877D01*
X305430Y43168D01*
X305444Y43431D01*
X305472Y43681D01*
X305513Y43903D01*
X305555Y44083D01*
X305583Y44222D01*
X305597Y44277D01*
Y44319D01*
X305611Y44333D01*
Y44347D01*
X305694Y44596D01*
X305777Y44832D01*
X305874Y45040D01*
X305971Y45220D01*
X306068Y45373D01*
X306138Y45470D01*
X306193Y45539D01*
X306207Y45567D01*
X306373Y45747D01*
X306540Y45914D01*
X306720Y46052D01*
X306887Y46163D01*
X307039Y46260D01*
X307150Y46316D01*
X307233Y46358D01*
X307247Y46371D01*
X307261D01*
X307511Y46469D01*
X307788Y46538D01*
X308065Y46593D01*
X308343Y46621D01*
X308578Y46649D01*
X308675D01*
X308773Y46663D01*
X312420D01*
Y39063D01*
D02*
G37*
G36*
X290660D02*
X288552D01*
Y44569D01*
X290660D01*
Y39063D01*
D02*
G37*
G36*
X276404Y44679D02*
X276612Y44652D01*
X276806Y44624D01*
X276972Y44582D01*
X277097Y44527D01*
X277194Y44499D01*
X277250Y44472D01*
X277278Y44458D01*
X277444Y44360D01*
X277596Y44236D01*
X277749Y44111D01*
X277888Y43972D01*
X277999Y43861D01*
X278082Y43764D01*
X278151Y43695D01*
X278165Y43667D01*
Y44569D01*
X280121D01*
Y39063D01*
X278013D01*
Y41698D01*
X277999Y41961D01*
X277971Y42183D01*
X277943Y42364D01*
X277888Y42516D01*
X277846Y42613D01*
X277818Y42696D01*
X277791Y42738D01*
X277777Y42752D01*
X277680Y42849D01*
X277583Y42918D01*
X277472Y42974D01*
X277375Y43001D01*
X277291Y43029D01*
X277222Y43043D01*
X277153D01*
X277028Y43029D01*
X276917Y43015D01*
X276834Y42974D01*
X276751Y42932D01*
X276695Y42891D01*
X276653Y42863D01*
X276626Y42835D01*
X276612Y42821D01*
X276542Y42724D01*
X276501Y42613D01*
X276445Y42377D01*
X276432Y42266D01*
X276418Y42169D01*
Y42114D01*
Y42086D01*
Y39063D01*
X274296D01*
Y42558D01*
X274324Y42932D01*
X274379Y43265D01*
X274448Y43542D01*
X274545Y43764D01*
X274643Y43945D01*
X274712Y44069D01*
X274767Y44139D01*
X274795Y44166D01*
X275003Y44347D01*
X275225Y44472D01*
X275447Y44569D01*
X275669Y44624D01*
X275863Y44666D01*
X276029Y44679D01*
X276085Y44693D01*
X276168D01*
X276404Y44679D01*
D02*
G37*
G36*
X222802Y39063D02*
X220681D01*
Y46663D01*
X222802D01*
Y39063D01*
D02*
G37*
G36*
X208573D02*
X204399D01*
X204247Y39077D01*
X204080Y39090D01*
X203900Y39118D01*
X203733Y39132D01*
X203595Y39146D01*
X203539D01*
X203498Y39160D01*
X203470D01*
X203262Y39202D01*
X203081Y39229D01*
X202929Y39271D01*
X202804Y39312D01*
X202707Y39354D01*
X202638Y39382D01*
X202596Y39409D01*
X202582D01*
X202416Y39520D01*
X202263Y39645D01*
X202125Y39770D01*
X202014Y39895D01*
X201931Y39992D01*
X201875Y40075D01*
X201833Y40145D01*
X201819Y40158D01*
X201722Y40339D01*
X201653Y40519D01*
X201611Y40699D01*
X201570Y40866D01*
X201556Y41004D01*
X201542Y41115D01*
Y41185D01*
Y41212D01*
X201556Y41476D01*
X201598Y41712D01*
X201667Y41920D01*
X201736Y42086D01*
X201806Y42225D01*
X201875Y42336D01*
X201917Y42391D01*
X201931Y42419D01*
X202097Y42585D01*
X202277Y42724D01*
X202485Y42849D01*
X202679Y42946D01*
X202860Y43015D01*
X202998Y43057D01*
X203054Y43085D01*
X203095D01*
X203123Y43099D01*
X203137D01*
X202943Y43182D01*
X202776Y43265D01*
X202638Y43348D01*
X202527Y43431D01*
X202430Y43501D01*
X202374Y43556D01*
X202333Y43598D01*
X202319Y43612D01*
X202180Y43806D01*
X202069Y44000D01*
X202000Y44194D01*
X201944Y44374D01*
X201917Y44527D01*
X201889Y44652D01*
Y44735D01*
Y44749D01*
Y44763D01*
Y44915D01*
X201917Y45054D01*
X201986Y45318D01*
X202083Y45539D01*
X202180Y45733D01*
X202291Y45900D01*
X202388Y46011D01*
X202458Y46080D01*
X202471Y46108D01*
X202485D01*
X202735Y46288D01*
X202998Y46427D01*
X203276Y46524D01*
X203553Y46593D01*
X203803Y46635D01*
X203900Y46649D01*
X203997D01*
X204066Y46663D01*
X208573D01*
Y39063D01*
D02*
G37*
G36*
X190184Y44679D02*
X190323Y44666D01*
X190461Y44624D01*
X190572Y44582D01*
X190655Y44541D01*
X190725Y44513D01*
X190766Y44485D01*
X190780Y44472D01*
X190891Y44374D01*
X190988Y44250D01*
X191182Y43986D01*
X191252Y43861D01*
X191307Y43764D01*
X191349Y43695D01*
X191363Y43667D01*
Y44569D01*
X193332D01*
Y39063D01*
X191210D01*
Y40907D01*
Y41143D01*
X191196Y41365D01*
X191182Y41559D01*
X191155Y41739D01*
X191141Y41906D01*
X191113Y42058D01*
X191085Y42183D01*
X191044Y42308D01*
X191016Y42405D01*
X190988Y42488D01*
X190961Y42558D01*
X190947Y42613D01*
X190905Y42682D01*
X190891Y42710D01*
X190794Y42821D01*
X190683Y42904D01*
X190586Y42974D01*
X190475Y43015D01*
X190378Y43043D01*
X190309Y43057D01*
X190156D01*
X190059Y43029D01*
X189865Y42974D01*
X189782Y42946D01*
X189712Y42918D01*
X189671Y42904D01*
X189657Y42891D01*
X188991Y44402D01*
X189199Y44499D01*
X189393Y44569D01*
X189560Y44624D01*
X189712Y44652D01*
X189837Y44679D01*
X189934Y44693D01*
X190018D01*
X190184Y44679D01*
D02*
G37*
G36*
X170754D02*
X170962Y44652D01*
X171157Y44624D01*
X171323Y44582D01*
X171448Y44527D01*
X171545Y44499D01*
X171600Y44472D01*
X171628Y44458D01*
X171794Y44360D01*
X171947Y44236D01*
X172099Y44111D01*
X172238Y43972D01*
X172349Y43861D01*
X172432Y43764D01*
X172502Y43695D01*
X172516Y43667D01*
Y44569D01*
X174471D01*
Y39063D01*
X172363D01*
Y41698D01*
X172349Y41961D01*
X172321Y42183D01*
X172294Y42364D01*
X172238Y42516D01*
X172197Y42613D01*
X172169Y42696D01*
X172141Y42738D01*
X172127Y42752D01*
X172030Y42849D01*
X171933Y42918D01*
X171822Y42974D01*
X171725Y43001D01*
X171642Y43029D01*
X171572Y43043D01*
X171503D01*
X171378Y43029D01*
X171267Y43015D01*
X171184Y42974D01*
X171101Y42932D01*
X171045Y42891D01*
X171004Y42863D01*
X170976Y42835D01*
X170962Y42821D01*
X170893Y42724D01*
X170851Y42613D01*
X170796Y42377D01*
X170782Y42266D01*
X170768Y42169D01*
Y42114D01*
Y42086D01*
Y39063D01*
X168646D01*
Y42558D01*
X168674Y42932D01*
X168729Y43265D01*
X168799Y43542D01*
X168896Y43764D01*
X168993Y43945D01*
X169062Y44069D01*
X169118Y44139D01*
X169146Y44166D01*
X169354Y44347D01*
X169576Y44472D01*
X169797Y44569D01*
X170019Y44624D01*
X170213Y44666D01*
X170380Y44679D01*
X170435Y44693D01*
X170518D01*
X170754Y44679D01*
D02*
G37*
G36*
X295029D02*
X295334Y44666D01*
X295584Y44624D01*
X295792Y44596D01*
X295972Y44555D01*
X296097Y44513D01*
X296166Y44499D01*
X296194Y44485D01*
X296388Y44402D01*
X296568Y44319D01*
X296707Y44222D01*
X296832Y44125D01*
X296943Y44042D01*
X297012Y43972D01*
X297054Y43917D01*
X297068Y43903D01*
X297165Y43750D01*
X297248Y43598D01*
X297303Y43431D01*
X297331Y43293D01*
X297359Y43154D01*
X297373Y43057D01*
Y42988D01*
Y42960D01*
X297359Y42779D01*
X297331Y42613D01*
X297276Y42474D01*
X297220Y42336D01*
X297179Y42239D01*
X297123Y42155D01*
X297095Y42100D01*
X297082Y42086D01*
X296971Y41947D01*
X296846Y41837D01*
X296735Y41739D01*
X296624Y41670D01*
X296527Y41601D01*
X296444Y41559D01*
X296388Y41545D01*
X296374Y41531D01*
X296291Y41504D01*
X296180Y41462D01*
X295958Y41407D01*
X295695Y41351D01*
X295445Y41296D01*
X295209Y41240D01*
X295098Y41226D01*
X295015Y41199D01*
X294946Y41185D01*
X294876D01*
X294849Y41171D01*
X294835D01*
X294585Y41129D01*
X294377Y41088D01*
X294225Y41046D01*
X294114Y41018D01*
X294030Y40991D01*
X293975Y40963D01*
X293947Y40949D01*
X293933D01*
X293850Y40893D01*
X293795Y40838D01*
X293753Y40782D01*
X293725Y40727D01*
X293698Y40644D01*
Y40616D01*
Y40602D01*
X293711Y40533D01*
X293725Y40464D01*
X293795Y40353D01*
X293864Y40297D01*
X293878Y40269D01*
X293892D01*
X293989Y40214D01*
X294086Y40172D01*
X294294Y40117D01*
X294391Y40103D01*
X294474Y40089D01*
X294544D01*
X294682Y40103D01*
X294807Y40117D01*
X294918Y40145D01*
X295001Y40172D01*
X295071Y40200D01*
X295126Y40214D01*
X295154Y40242D01*
X295168D01*
X295251Y40311D01*
X295320Y40394D01*
X295417Y40588D01*
X295459Y40672D01*
X295487Y40727D01*
X295514Y40782D01*
Y40796D01*
X297609Y40602D01*
X297525Y40325D01*
X297400Y40075D01*
X297276Y39853D01*
X297137Y39687D01*
X296998Y39548D01*
X296887Y39451D01*
X296818Y39382D01*
X296790Y39368D01*
X296665Y39299D01*
X296513Y39229D01*
X296180Y39118D01*
X295833Y39049D01*
X295473Y38993D01*
X295306Y38980D01*
X295154Y38966D01*
X295015Y38952D01*
X294890D01*
X294779Y38938D01*
X294641D01*
X294266Y38952D01*
X293933Y38980D01*
X293642Y39021D01*
X293406Y39077D01*
X293212Y39118D01*
X293074Y39160D01*
X292990Y39188D01*
X292963Y39202D01*
X292741Y39312D01*
X292561Y39423D01*
X292394Y39548D01*
X292269Y39659D01*
X292172Y39756D01*
X292103Y39839D01*
X292061Y39895D01*
X292047Y39909D01*
X291950Y40075D01*
X291881Y40242D01*
X291825Y40408D01*
X291798Y40547D01*
X291770Y40672D01*
X291756Y40755D01*
Y40824D01*
Y40838D01*
X291770Y41004D01*
X291798Y41171D01*
X291839Y41323D01*
X291895Y41448D01*
X291950Y41545D01*
X291992Y41628D01*
X292020Y41684D01*
X292034Y41698D01*
X292144Y41837D01*
X292269Y41961D01*
X292408Y42072D01*
X292533Y42155D01*
X292644Y42225D01*
X292741Y42266D01*
X292796Y42294D01*
X292824Y42308D01*
X293032Y42391D01*
X293282Y42461D01*
X293545Y42516D01*
X293795Y42558D01*
X294030Y42599D01*
X294128Y42613D01*
X294225Y42627D01*
X294294D01*
X294349Y42641D01*
X294391D01*
X294627Y42669D01*
X294821Y42710D01*
X294987Y42738D01*
X295098Y42766D01*
X295195Y42793D01*
X295251Y42821D01*
X295279Y42835D01*
X295292D01*
X295362Y42877D01*
X295403Y42918D01*
X295459Y43029D01*
X295487Y43112D01*
Y43126D01*
Y43140D01*
X295473Y43210D01*
X295459Y43265D01*
X295403Y43362D01*
X295362Y43418D01*
X295334Y43445D01*
X295265Y43487D01*
X295182Y43528D01*
X295001Y43570D01*
X294932Y43584D01*
X294682D01*
X294557Y43556D01*
X294460Y43528D01*
X294363Y43501D01*
X294294Y43473D01*
X294238Y43445D01*
X294211Y43431D01*
X294197Y43418D01*
X294086Y43306D01*
X294003Y43182D01*
X293975Y43126D01*
X293947Y43071D01*
X293933Y43043D01*
Y43029D01*
X291936Y43223D01*
X292020Y43418D01*
X292103Y43584D01*
X292200Y43723D01*
X292283Y43847D01*
X292352Y43945D01*
X292408Y44014D01*
X292449Y44055D01*
X292463Y44069D01*
X292588Y44180D01*
X292727Y44277D01*
X292852Y44360D01*
X292976Y44430D01*
X293088Y44472D01*
X293171Y44513D01*
X293226Y44541D01*
X293254D01*
X293448Y44596D01*
X293670Y44624D01*
X293906Y44652D01*
X294141Y44679D01*
X294363D01*
X294447Y44693D01*
X294696D01*
X295029Y44679D01*
D02*
G37*
G36*
X262286Y44028D02*
X262411Y44139D01*
X262535Y44250D01*
X262660Y44333D01*
X262771Y44402D01*
X262868Y44458D01*
X262938Y44499D01*
X262993Y44513D01*
X263007Y44527D01*
X263159Y44582D01*
X263312Y44624D01*
X263465Y44652D01*
X263603Y44679D01*
X263714D01*
X263811Y44693D01*
X263895D01*
X264075Y44679D01*
X264255Y44666D01*
X264588Y44582D01*
X264865Y44458D01*
X265101Y44333D01*
X265295Y44194D01*
X265434Y44069D01*
X265489Y44028D01*
X265531Y43986D01*
X265545Y43972D01*
X265559Y43958D01*
X265670Y43820D01*
X265767Y43667D01*
X265933Y43334D01*
X266044Y42974D01*
X266127Y42641D01*
X266155Y42488D01*
X266169Y42336D01*
X266197Y42211D01*
Y42086D01*
X266210Y42003D01*
Y41920D01*
Y41878D01*
Y41864D01*
X266183Y41420D01*
X266113Y41018D01*
X266030Y40672D01*
X265975Y40505D01*
X265919Y40366D01*
X265864Y40242D01*
X265808Y40117D01*
X265767Y40020D01*
X265725Y39936D01*
X265683Y39867D01*
X265656Y39826D01*
X265628Y39798D01*
Y39784D01*
X265503Y39631D01*
X265378Y39507D01*
X265254Y39396D01*
X265101Y39299D01*
X264962Y39215D01*
X264824Y39146D01*
X264546Y39049D01*
X264297Y38980D01*
X264186Y38966D01*
X264089Y38952D01*
X264019Y38938D01*
X263908D01*
X263700Y38952D01*
X263520Y38980D01*
X263340Y39007D01*
X263187Y39063D01*
X263076Y39104D01*
X262979Y39132D01*
X262910Y39160D01*
X262896Y39174D01*
X262757Y39257D01*
X262632Y39354D01*
X262508Y39479D01*
X262383Y39590D01*
X262286Y39701D01*
X262202Y39784D01*
X262147Y39839D01*
X262133Y39867D01*
Y39063D01*
X260150D01*
Y46663D01*
X262286D01*
Y44028D01*
D02*
G37*
G36*
X184983D02*
X185108Y44139D01*
X185233Y44250D01*
X185358Y44333D01*
X185469Y44402D01*
X185566Y44458D01*
X185635Y44499D01*
X185691Y44513D01*
X185704Y44527D01*
X185857Y44582D01*
X186010Y44624D01*
X186162Y44652D01*
X186301Y44679D01*
X186412D01*
X186509Y44693D01*
X186592D01*
X186772Y44679D01*
X186953Y44666D01*
X187285Y44582D01*
X187563Y44458D01*
X187799Y44333D01*
X187993Y44194D01*
X188131Y44069D01*
X188187Y44028D01*
X188228Y43986D01*
X188242Y43972D01*
X188256Y43958D01*
X188367Y43820D01*
X188464Y43667D01*
X188631Y43334D01*
X188742Y42974D01*
X188825Y42641D01*
X188853Y42488D01*
X188866Y42336D01*
X188894Y42211D01*
Y42086D01*
X188908Y42003D01*
Y41920D01*
Y41878D01*
Y41864D01*
X188880Y41420D01*
X188811Y41018D01*
X188728Y40672D01*
X188672Y40505D01*
X188617Y40366D01*
X188561Y40242D01*
X188506Y40117D01*
X188464Y40020D01*
X188423Y39936D01*
X188381Y39867D01*
X188353Y39826D01*
X188326Y39798D01*
Y39784D01*
X188201Y39631D01*
X188076Y39507D01*
X187951Y39396D01*
X187799Y39299D01*
X187660Y39215D01*
X187521Y39146D01*
X187244Y39049D01*
X186994Y38980D01*
X186883Y38966D01*
X186786Y38952D01*
X186717Y38938D01*
X186606D01*
X186398Y38952D01*
X186218Y38980D01*
X186037Y39007D01*
X185885Y39063D01*
X185774Y39104D01*
X185677Y39132D01*
X185607Y39160D01*
X185593Y39174D01*
X185455Y39257D01*
X185330Y39354D01*
X185205Y39479D01*
X185080Y39590D01*
X184983Y39701D01*
X184900Y39784D01*
X184845Y39839D01*
X184831Y39867D01*
Y39063D01*
X182847D01*
Y46663D01*
X184983D01*
Y44028D01*
D02*
G37*
%LPC*%
G36*
X301131Y53023D02*
X301117D01*
Y52676D01*
Y52537D01*
X301145Y52413D01*
X301159Y52302D01*
X301187Y52218D01*
X301214Y52135D01*
X301228Y52080D01*
X301256Y52052D01*
Y52038D01*
X301311Y51955D01*
X301381Y51872D01*
X301519Y51747D01*
X301589Y51705D01*
X301630Y51664D01*
X301672Y51650D01*
X301686Y51636D01*
X301797Y51580D01*
X301922Y51539D01*
X302033Y51511D01*
X302130Y51497D01*
X302213Y51483D01*
X302282Y51469D01*
X302338D01*
X302449Y51483D01*
X302560Y51497D01*
X302643Y51525D01*
X302712Y51553D01*
X302782Y51580D01*
X302823Y51594D01*
X302837Y51622D01*
X302851D01*
X302906Y51677D01*
X302948Y51747D01*
X302990Y51885D01*
X303003Y51941D01*
X303017Y51983D01*
Y52010D01*
Y52024D01*
X303003Y52107D01*
X302990Y52177D01*
X302934Y52302D01*
X302878Y52385D01*
X302851Y52399D01*
Y52413D01*
X302768Y52482D01*
X302643Y52537D01*
X302518Y52593D01*
X302379Y52648D01*
X302241Y52690D01*
X302130Y52718D01*
X302060Y52731D01*
X302033Y52745D01*
X301686Y52842D01*
X301533Y52884D01*
X301395Y52926D01*
X301284Y52967D01*
X301187Y52995D01*
X301131Y53023D01*
D02*
G37*
G36*
X276931D02*
X276917D01*
Y52676D01*
Y52537D01*
X276945Y52413D01*
X276959Y52302D01*
X276986Y52218D01*
X277014Y52135D01*
X277028Y52080D01*
X277056Y52052D01*
Y52038D01*
X277111Y51955D01*
X277180Y51872D01*
X277319Y51747D01*
X277388Y51705D01*
X277430Y51664D01*
X277472Y51650D01*
X277486Y51636D01*
X277596Y51580D01*
X277721Y51539D01*
X277832Y51511D01*
X277929Y51497D01*
X278013Y51483D01*
X278082Y51469D01*
X278137D01*
X278248Y51483D01*
X278359Y51497D01*
X278442Y51525D01*
X278512Y51553D01*
X278581Y51580D01*
X278623Y51594D01*
X278637Y51622D01*
X278650D01*
X278706Y51677D01*
X278748Y51747D01*
X278789Y51885D01*
X278803Y51941D01*
X278817Y51983D01*
Y52010D01*
Y52024D01*
X278803Y52107D01*
X278789Y52177D01*
X278734Y52302D01*
X278678Y52385D01*
X278650Y52399D01*
Y52413D01*
X278567Y52482D01*
X278442Y52537D01*
X278318Y52593D01*
X278179Y52648D01*
X278040Y52690D01*
X277929Y52718D01*
X277860Y52731D01*
X277832Y52745D01*
X277486Y52842D01*
X277333Y52884D01*
X277194Y52926D01*
X277083Y52967D01*
X276986Y52995D01*
X276931Y53023D01*
D02*
G37*
G36*
X251857Y54798D02*
X251773D01*
X251621Y54784D01*
X251468Y54756D01*
X251357Y54715D01*
X251246Y54659D01*
X251177Y54604D01*
X251108Y54562D01*
X251080Y54534D01*
X251066Y54521D01*
X250969Y54410D01*
X250900Y54271D01*
X250844Y54132D01*
X250803Y53994D01*
X250775Y53869D01*
X250747Y53758D01*
X250733Y53688D01*
Y53675D01*
Y53661D01*
X252814D01*
X252786Y53827D01*
X252758Y53980D01*
X252717Y54104D01*
X252675Y54215D01*
X252633Y54285D01*
X252606Y54354D01*
X252592Y54382D01*
X252578Y54396D01*
X252453Y54534D01*
X252328Y54632D01*
X252190Y54701D01*
X252065Y54742D01*
X251954Y54784D01*
X251857Y54798D01*
D02*
G37*
G36*
X310062Y56476D02*
X309397D01*
X309175Y56462D01*
X308981Y56434D01*
X308828Y56393D01*
X308703Y56351D01*
X308620Y56310D01*
X308551Y56268D01*
X308523Y56240D01*
X308509Y56226D01*
X308426Y56129D01*
X308370Y56032D01*
X308315Y55921D01*
X308287Y55824D01*
X308273Y55741D01*
X308260Y55672D01*
Y55630D01*
Y55616D01*
X308273Y55477D01*
X308301Y55367D01*
X308343Y55256D01*
X308398Y55172D01*
X308454Y55103D01*
X308495Y55047D01*
X308523Y55020D01*
X308537Y55006D01*
X308662Y54937D01*
X308800Y54881D01*
X308967Y54840D01*
X309119Y54812D01*
X309258Y54798D01*
X309383Y54784D01*
X310062D01*
Y56476D01*
D02*
G37*
G36*
X260441D02*
X259415D01*
X259193Y56462D01*
X258999Y56448D01*
X258846Y56407D01*
X258722Y56379D01*
X258638Y56337D01*
X258569Y56296D01*
X258541Y56282D01*
X258527Y56268D01*
X258444Y56185D01*
X258389Y56101D01*
X258347Y56005D01*
X258319Y55921D01*
X258305Y55838D01*
X258292Y55769D01*
Y55727D01*
Y55713D01*
Y55616D01*
X258319Y55533D01*
X258361Y55394D01*
X258389Y55339D01*
X258417Y55311D01*
X258430Y55283D01*
X258444Y55269D01*
X258500Y55200D01*
X258569Y55145D01*
X258694Y55075D01*
X258749Y55061D01*
X258791Y55047D01*
X258819Y55034D01*
X258832D01*
X258985Y55006D01*
X259124Y54978D01*
X259235Y54964D01*
X259318Y54950D01*
X259373Y54937D01*
X260441D01*
Y56476D01*
D02*
G37*
G36*
X284919Y54590D02*
X284850D01*
X284697Y54576D01*
X284545Y54534D01*
X284420Y54479D01*
X284309Y54410D01*
X284226Y54340D01*
X284170Y54285D01*
X284128Y54243D01*
X284115Y54229D01*
X284018Y54091D01*
X283934Y53924D01*
X283879Y53744D01*
X283851Y53577D01*
X283823Y53411D01*
X283810Y53286D01*
Y53203D01*
Y53189D01*
Y53175D01*
X283823Y52898D01*
X283851Y52676D01*
X283907Y52482D01*
X283962Y52329D01*
X284018Y52204D01*
X284073Y52121D01*
X284101Y52066D01*
X284115Y52052D01*
X284226Y51941D01*
X284350Y51858D01*
X284475Y51802D01*
X284600Y51761D01*
X284697Y51733D01*
X284780Y51719D01*
X284863D01*
X285016Y51733D01*
X285169Y51775D01*
X285293Y51830D01*
X285404Y51899D01*
X285488Y51955D01*
X285557Y52010D01*
X285599Y52052D01*
X285612Y52066D01*
X285709Y52218D01*
X285779Y52385D01*
X285834Y52565D01*
X285862Y52731D01*
X285890Y52898D01*
X285904Y53023D01*
Y53078D01*
Y53120D01*
Y53134D01*
Y53148D01*
X285890Y53397D01*
X285862Y53619D01*
X285807Y53813D01*
X285751Y53966D01*
X285709Y54077D01*
X285654Y54160D01*
X285626Y54215D01*
X285612Y54229D01*
X285488Y54354D01*
X285363Y54437D01*
X285238Y54507D01*
X285113Y54548D01*
X285016Y54576D01*
X284919Y54590D01*
D02*
G37*
G36*
X270940Y54465D02*
X270884D01*
X270732Y54451D01*
X270593Y54410D01*
X270482Y54368D01*
X270385Y54313D01*
X270302Y54243D01*
X270246Y54202D01*
X270205Y54160D01*
X270191Y54146D01*
X270094Y54007D01*
X270024Y53855D01*
X269983Y53702D01*
X269941Y53536D01*
X269927Y53397D01*
X269913Y53286D01*
Y53203D01*
Y53189D01*
Y53175D01*
X269927Y52926D01*
X269955Y52704D01*
X269997Y52523D01*
X270052Y52385D01*
X270107Y52274D01*
X270149Y52191D01*
X270177Y52149D01*
X270191Y52135D01*
X270288Y52038D01*
X270399Y51955D01*
X270524Y51899D01*
X270621Y51872D01*
X270718Y51844D01*
X270787Y51830D01*
X270856D01*
X270995Y51844D01*
X271120Y51872D01*
X271231Y51927D01*
X271314Y51983D01*
X271397Y52038D01*
X271453Y52094D01*
X271481Y52121D01*
X271494Y52135D01*
X271578Y52274D01*
X271633Y52426D01*
X271688Y52593D01*
X271716Y52745D01*
X271730Y52898D01*
X271744Y53009D01*
Y53092D01*
Y53106D01*
Y53120D01*
X271730Y53369D01*
X271702Y53591D01*
X271675Y53758D01*
X271619Y53910D01*
X271578Y54007D01*
X271550Y54091D01*
X271522Y54132D01*
X271508Y54146D01*
X271411Y54257D01*
X271300Y54326D01*
X271203Y54382D01*
X271106Y54423D01*
X271009Y54451D01*
X270940Y54465D01*
D02*
G37*
G36*
X224106Y56740D02*
X224078D01*
X223898Y56712D01*
X223745Y56656D01*
X223607Y56573D01*
X223496Y56476D01*
X223413Y56379D01*
X223357Y56296D01*
X223316Y56240D01*
X223302Y56213D01*
X223260Y56101D01*
X223218Y55977D01*
X223177Y55824D01*
X223149Y55672D01*
X223107Y55339D01*
X223066Y54992D01*
X223052Y54687D01*
Y54534D01*
X223038Y54423D01*
Y54313D01*
Y54243D01*
Y54188D01*
Y54174D01*
Y53813D01*
X223052Y53508D01*
X223080Y53245D01*
X223094Y53037D01*
X223121Y52870D01*
X223149Y52759D01*
X223163Y52690D01*
Y52662D01*
X223205Y52496D01*
X223260Y52343D01*
X223316Y52232D01*
X223371Y52121D01*
X223426Y52052D01*
X223468Y51996D01*
X223496Y51969D01*
X223510Y51955D01*
X223607Y51885D01*
X223704Y51830D01*
X223787Y51789D01*
X223884Y51761D01*
X223953Y51747D01*
X224023Y51733D01*
X224078D01*
X224245Y51761D01*
X224397Y51816D01*
X224522Y51899D01*
X224633Y51996D01*
X224716Y52094D01*
X224772Y52177D01*
X224813Y52232D01*
X224827Y52260D01*
X224869Y52371D01*
X224910Y52496D01*
X224938Y52634D01*
X224966Y52787D01*
X225021Y53120D01*
X225049Y53453D01*
X225063Y53758D01*
Y53896D01*
X225077Y54007D01*
Y54104D01*
Y54174D01*
Y54229D01*
Y54243D01*
Y54507D01*
X225063Y54742D01*
X225049Y54950D01*
X225035Y55159D01*
X225021Y55325D01*
X225007Y55491D01*
X224980Y55630D01*
X224952Y55755D01*
X224938Y55866D01*
X224910Y55963D01*
X224897Y56032D01*
X224883Y56088D01*
X224869Y56143D01*
X224855Y56171D01*
X224841Y56199D01*
X224744Y56379D01*
X224619Y56518D01*
X224494Y56615D01*
X224370Y56670D01*
X224259Y56712D01*
X224161Y56726D01*
X224106Y56740D01*
D02*
G37*
G36*
X252287Y43112D02*
X252217D01*
X252092Y43099D01*
X251982Y43057D01*
X251871Y43015D01*
X251787Y42960D01*
X251718Y42891D01*
X251663Y42849D01*
X251635Y42807D01*
X251621Y42793D01*
X251538Y42669D01*
X251468Y42516D01*
X251427Y42364D01*
X251385Y42197D01*
X251371Y42058D01*
X251357Y41947D01*
Y41864D01*
Y41850D01*
Y41837D01*
X251371Y41587D01*
X251399Y41365D01*
X251441Y41185D01*
X251482Y41032D01*
X251538Y40921D01*
X251579Y40838D01*
X251607Y40796D01*
X251621Y40782D01*
X251718Y40685D01*
X251829Y40602D01*
X251926Y40547D01*
X252037Y40519D01*
X252120Y40491D01*
X252190Y40477D01*
X252259D01*
X252398Y40491D01*
X252536Y40533D01*
X252647Y40574D01*
X252744Y40644D01*
X252827Y40699D01*
X252883Y40741D01*
X252925Y40782D01*
X252938Y40796D01*
X253022Y40935D01*
X253091Y41088D01*
X253133Y41268D01*
X253174Y41434D01*
X253188Y41587D01*
X253202Y41712D01*
Y41795D01*
Y41809D01*
Y41823D01*
X253188Y42058D01*
X253160Y42252D01*
X253119Y42419D01*
X253063Y42558D01*
X253008Y42655D01*
X252966Y42738D01*
X252938Y42779D01*
X252925Y42793D01*
X252814Y42904D01*
X252703Y42974D01*
X252578Y43029D01*
X252467Y43071D01*
X252370Y43099D01*
X252287Y43112D01*
D02*
G37*
G36*
X284545Y43168D02*
X284475D01*
X284336Y43154D01*
X284198Y43112D01*
X284087Y43057D01*
X283990Y43001D01*
X283907Y42946D01*
X283851Y42891D01*
X283810Y42849D01*
X283796Y42835D01*
X283699Y42710D01*
X283629Y42558D01*
X283574Y42405D01*
X283546Y42252D01*
X283518Y42128D01*
X283504Y42017D01*
Y41947D01*
Y41934D01*
Y41920D01*
X283518Y41712D01*
X283546Y41518D01*
X283588Y41365D01*
X283643Y41240D01*
X283699Y41129D01*
X283740Y41060D01*
X283768Y41018D01*
X283782Y41004D01*
X283879Y40907D01*
X283990Y40838D01*
X284115Y40782D01*
X284212Y40755D01*
X284309Y40727D01*
X284378Y40713D01*
X284447D01*
X284600Y40727D01*
X284725Y40755D01*
X284836Y40796D01*
X284933Y40852D01*
X285016Y40907D01*
X285072Y40949D01*
X285099Y40977D01*
X285113Y40991D01*
X285196Y41115D01*
X285252Y41254D01*
X285307Y41407D01*
X285335Y41545D01*
X285349Y41684D01*
X285363Y41795D01*
Y41864D01*
Y41892D01*
X285349Y42128D01*
X285321Y42336D01*
X285293Y42502D01*
X285238Y42627D01*
X285196Y42738D01*
X285169Y42807D01*
X285141Y42849D01*
X285127Y42863D01*
X285030Y42960D01*
X284919Y43043D01*
X284822Y43099D01*
X284711Y43126D01*
X284614Y43154D01*
X284545Y43168D01*
D02*
G37*
G36*
X301478Y43445D02*
X301395D01*
X301242Y43431D01*
X301089Y43404D01*
X300979Y43362D01*
X300868Y43306D01*
X300798Y43251D01*
X300729Y43210D01*
X300701Y43182D01*
X300687Y43168D01*
X300590Y43057D01*
X300521Y42918D01*
X300465Y42779D01*
X300424Y42641D01*
X300396Y42516D01*
X300368Y42405D01*
X300354Y42336D01*
Y42322D01*
Y42308D01*
X302435D01*
X302407Y42474D01*
X302379Y42627D01*
X302338Y42752D01*
X302296Y42863D01*
X302255Y42932D01*
X302227Y43001D01*
X302213Y43029D01*
X302199Y43043D01*
X302074Y43182D01*
X301949Y43279D01*
X301811Y43348D01*
X301686Y43390D01*
X301575Y43431D01*
X301478Y43445D01*
D02*
G37*
G36*
X270191D02*
X270107D01*
X269955Y43431D01*
X269802Y43404D01*
X269692Y43362D01*
X269580Y43306D01*
X269511Y43251D01*
X269442Y43210D01*
X269414Y43182D01*
X269400Y43168D01*
X269303Y43057D01*
X269234Y42918D01*
X269178Y42779D01*
X269137Y42641D01*
X269109Y42516D01*
X269081Y42405D01*
X269067Y42336D01*
Y42322D01*
Y42308D01*
X271148D01*
X271120Y42474D01*
X271092Y42627D01*
X271051Y42752D01*
X271009Y42863D01*
X270967Y42932D01*
X270940Y43001D01*
X270926Y43029D01*
X270912Y43043D01*
X270787Y43182D01*
X270662Y43279D01*
X270524Y43348D01*
X270399Y43390D01*
X270288Y43431D01*
X270191Y43445D01*
D02*
G37*
G36*
X216492D02*
X216409D01*
X216257Y43431D01*
X216104Y43404D01*
X215993Y43362D01*
X215882Y43306D01*
X215813Y43251D01*
X215743Y43210D01*
X215716Y43182D01*
X215702Y43168D01*
X215605Y43057D01*
X215535Y42918D01*
X215480Y42779D01*
X215438Y42641D01*
X215410Y42516D01*
X215383Y42405D01*
X215369Y42336D01*
Y42322D01*
Y42308D01*
X217449D01*
X217421Y42474D01*
X217394Y42627D01*
X217352Y42752D01*
X217311Y42863D01*
X217269Y42932D01*
X217241Y43001D01*
X217227Y43029D01*
X217213Y43043D01*
X217089Y43182D01*
X216964Y43279D01*
X216825Y43348D01*
X216700Y43390D01*
X216589Y43431D01*
X216492Y43445D01*
D02*
G37*
G36*
X178715D02*
X178631D01*
X178479Y43431D01*
X178326Y43404D01*
X178216Y43362D01*
X178104Y43306D01*
X178035Y43251D01*
X177966Y43210D01*
X177938Y43182D01*
X177924Y43168D01*
X177827Y43057D01*
X177758Y42918D01*
X177702Y42779D01*
X177661Y42641D01*
X177633Y42516D01*
X177605Y42405D01*
X177591Y42336D01*
Y42322D01*
Y42308D01*
X179672D01*
X179644Y42474D01*
X179616Y42627D01*
X179575Y42752D01*
X179533Y42863D01*
X179491Y42932D01*
X179464Y43001D01*
X179450Y43029D01*
X179436Y43043D01*
X179311Y43182D01*
X179186Y43279D01*
X179048Y43348D01*
X178923Y43390D01*
X178812Y43431D01*
X178715Y43445D01*
D02*
G37*
G36*
X310076Y44943D02*
X309494D01*
X309175Y44929D01*
X308897Y44874D01*
X308675Y44804D01*
X308495Y44721D01*
X308357Y44624D01*
X308260Y44555D01*
X308190Y44499D01*
X308176Y44485D01*
X308107Y44388D01*
X308038Y44291D01*
X307941Y44042D01*
X307871Y43764D01*
X307830Y43501D01*
X307788Y43237D01*
Y43126D01*
X307774Y43029D01*
Y42946D01*
Y42891D01*
Y42849D01*
Y42835D01*
X307788Y42516D01*
X307802Y42252D01*
X307830Y42017D01*
X307857Y41837D01*
X307899Y41698D01*
X307927Y41601D01*
X307941Y41531D01*
X307954Y41518D01*
X308024Y41379D01*
X308107Y41254D01*
X308190Y41157D01*
X308273Y41088D01*
X308343Y41018D01*
X308398Y40977D01*
X308440Y40963D01*
X308454Y40949D01*
X308592Y40893D01*
X308745Y40866D01*
X308925Y40838D01*
X309092Y40810D01*
X309258D01*
X309383Y40796D01*
X310076D01*
Y44943D01*
D02*
G37*
G36*
X206202Y45123D02*
X205162D01*
X204981Y45109D01*
X204815Y45096D01*
X204690Y45068D01*
X204593Y45026D01*
X204510Y44985D01*
X204454Y44957D01*
X204427Y44943D01*
X204413Y44929D01*
X204344Y44860D01*
X204288Y44777D01*
X204247Y44693D01*
X204219Y44610D01*
X204205Y44527D01*
X204191Y44472D01*
Y44430D01*
Y44416D01*
X204205Y44291D01*
X204219Y44180D01*
X204260Y44083D01*
X204302Y44000D01*
X204344Y43945D01*
X204371Y43903D01*
X204399Y43875D01*
X204413Y43861D01*
X204510Y43806D01*
X204621Y43764D01*
X204871Y43709D01*
X204995Y43695D01*
X205093Y43681D01*
X206202D01*
Y45123D01*
D02*
G37*
G36*
Y42239D02*
X205023D01*
X204801Y42225D01*
X204621Y42211D01*
X204468Y42169D01*
X204357Y42142D01*
X204260Y42100D01*
X204191Y42058D01*
X204163Y42045D01*
X204149Y42031D01*
X204066Y41947D01*
X204011Y41864D01*
X203955Y41767D01*
X203927Y41684D01*
X203914Y41601D01*
X203900Y41545D01*
Y41504D01*
Y41490D01*
X203914Y41365D01*
X203941Y41254D01*
X203983Y41143D01*
X204025Y41060D01*
X204066Y40991D01*
X204108Y40949D01*
X204135Y40921D01*
X204149Y40907D01*
X204260Y40838D01*
X204385Y40782D01*
X204524Y40755D01*
X204676Y40727D01*
X204801Y40713D01*
X204912Y40699D01*
X206202D01*
Y42239D01*
D02*
G37*
G36*
X263298Y43112D02*
X263243D01*
X263090Y43099D01*
X262951Y43057D01*
X262840Y43015D01*
X262743Y42960D01*
X262660Y42891D01*
X262605Y42849D01*
X262563Y42807D01*
X262549Y42793D01*
X262452Y42655D01*
X262383Y42502D01*
X262341Y42350D01*
X262300Y42183D01*
X262286Y42045D01*
X262272Y41934D01*
Y41850D01*
Y41837D01*
Y41823D01*
X262286Y41573D01*
X262313Y41351D01*
X262355Y41171D01*
X262411Y41032D01*
X262466Y40921D01*
X262508Y40838D01*
X262535Y40796D01*
X262549Y40782D01*
X262646Y40685D01*
X262757Y40602D01*
X262882Y40547D01*
X262979Y40519D01*
X263076Y40491D01*
X263146Y40477D01*
X263215D01*
X263354Y40491D01*
X263478Y40519D01*
X263589Y40574D01*
X263673Y40630D01*
X263756Y40685D01*
X263811Y40741D01*
X263839Y40769D01*
X263853Y40782D01*
X263936Y40921D01*
X263992Y41074D01*
X264047Y41240D01*
X264075Y41393D01*
X264089Y41545D01*
X264102Y41656D01*
Y41739D01*
Y41753D01*
Y41767D01*
X264089Y42017D01*
X264061Y42239D01*
X264033Y42405D01*
X263978Y42558D01*
X263936Y42655D01*
X263908Y42738D01*
X263881Y42779D01*
X263867Y42793D01*
X263770Y42904D01*
X263659Y42974D01*
X263562Y43029D01*
X263465Y43071D01*
X263368Y43099D01*
X263298Y43112D01*
D02*
G37*
G36*
X185996D02*
X185940D01*
X185788Y43099D01*
X185649Y43057D01*
X185538Y43015D01*
X185441Y42960D01*
X185358Y42891D01*
X185302Y42849D01*
X185261Y42807D01*
X185247Y42793D01*
X185150Y42655D01*
X185080Y42502D01*
X185039Y42350D01*
X184997Y42183D01*
X184983Y42045D01*
X184969Y41934D01*
Y41850D01*
Y41837D01*
Y41823D01*
X184983Y41573D01*
X185011Y41351D01*
X185053Y41171D01*
X185108Y41032D01*
X185164Y40921D01*
X185205Y40838D01*
X185233Y40796D01*
X185247Y40782D01*
X185344Y40685D01*
X185455Y40602D01*
X185580Y40547D01*
X185677Y40519D01*
X185774Y40491D01*
X185843Y40477D01*
X185912D01*
X186051Y40491D01*
X186176Y40519D01*
X186287Y40574D01*
X186370Y40630D01*
X186453Y40685D01*
X186509Y40741D01*
X186537Y40769D01*
X186550Y40782D01*
X186634Y40921D01*
X186689Y41074D01*
X186745Y41240D01*
X186772Y41393D01*
X186786Y41545D01*
X186800Y41656D01*
Y41739D01*
Y41753D01*
Y41767D01*
X186786Y42017D01*
X186758Y42239D01*
X186731Y42405D01*
X186675Y42558D01*
X186634Y42655D01*
X186606Y42738D01*
X186578Y42779D01*
X186564Y42793D01*
X186467Y42904D01*
X186356Y42974D01*
X186259Y43029D01*
X186162Y43071D01*
X186065Y43099D01*
X185996Y43112D01*
D02*
G37*
%LPD*%
D13*
X330310Y485810D02*
G03*
X330310Y485810I-1000J0D01*
G01*
D14*
X315560Y442010D02*
Y498610D01*
X178060Y442010D02*
Y498610D01*
Y525010D02*
Y530310D01*
X315560Y525010D02*
Y530310D01*
X178060D02*
X315560D01*
X178060Y392310D02*
Y415610D01*
Y392310D02*
X315560D01*
Y415610D01*
D17*
X161810Y513269D02*
Y507175D01*
X162191Y506033D01*
X162572Y505652D01*
X163334Y505271D01*
X164095D01*
X164857Y505652D01*
X165238Y506033D01*
X165619Y507175D01*
Y507937D01*
X154421Y513269D02*
X158230Y505271D01*
X159753Y513269D02*
X154421D01*
M02*
