G04*
G04 #@! TF.GenerationSoftware,Altium Limited,Altium Designer,25.8.1 (18)*
G04*
G04 Layer_Physical_Order=1*
G04 Layer_Color=255*
%FSLAX44Y44*%
%MOMM*%
G71*
G04*
G04 #@! TF.SameCoordinates,39AAA382-7428-4F97-BBA3-EFEDAE657E92*
G04*
G04*
G04 #@! TF.FilePolarity,Positive*
G04*
G01*
G75*
%ADD13C,0.2000*%
%ADD17C,0.1500*%
%ADD19O,0.3000X1.4500*%
%ADD20O,1.4500X0.3000*%
%ADD21R,1.0400X1.4700*%
%ADD22R,0.2540X0.2794*%
G04:AMPARAMS|DCode=23|XSize=0.8mm|YSize=1.6mm|CornerRadius=0mm|HoleSize=0mm|Usage=FLASHONLY|Rotation=305.000|XOffset=0mm|YOffset=0mm|HoleType=Round|Shape=Rectangle|*
%AMROTATEDRECTD23*
4,1,4,-0.8848,-0.1312,0.4259,0.7865,0.8848,0.1312,-0.4259,-0.7865,-0.8848,-0.1312,0.0*
%
%ADD23ROTATEDRECTD23*%

G04:AMPARAMS|DCode=24|XSize=2.1mm|YSize=3mm|CornerRadius=0mm|HoleSize=0mm|Usage=FLASHONLY|Rotation=305.000|XOffset=0mm|YOffset=0mm|HoleType=Round|Shape=Rectangle|*
%AMROTATEDRECTD24*
4,1,4,-1.8310,-0.0003,0.6265,1.7205,1.8310,0.0003,-0.6265,-1.7205,-1.8310,-0.0003,0.0*
%
%ADD24ROTATEDRECTD24*%

G04:AMPARAMS|DCode=25|XSize=1.04mm|YSize=1.47mm|CornerRadius=0mm|HoleSize=0mm|Usage=FLASHONLY|Rotation=125.000|XOffset=0mm|YOffset=0mm|HoleType=Round|Shape=Rectangle|*
%AMROTATEDRECTD25*
4,1,4,0.9003,-0.0044,-0.3038,-0.8475,-0.9003,0.0044,0.3038,0.8475,0.9003,-0.0044,0.0*
%
%ADD25ROTATEDRECTD25*%

%ADD26R,0.2794X0.2540*%
%ADD27R,1.4700X1.0400*%
%ADD28R,0.8000X0.8000*%
G04:AMPARAMS|DCode=35|XSize=0.44mm|YSize=0.6mm|CornerRadius=0mm|HoleSize=0mm|Usage=FLASHONLY|Rotation=150.000|XOffset=0mm|YOffset=0mm|HoleType=Round|Shape=Rectangle|*
%AMROTATEDRECTD35*
4,1,4,0.3405,0.1498,0.0405,-0.3698,-0.3405,-0.1498,-0.0405,0.3698,0.3405,0.1498,0.0*
%
%ADD35ROTATEDRECTD35*%

%ADD49C,0.5000*%
%ADD50R,0.2500X1.1750*%
%ADD51C,0.8000*%
%ADD52R,1.1750X0.2500*%
%ADD53C,0.8000*%
%ADD54C,0.3000*%
%ADD55C,1.0000*%
%ADD56R,1.0000X1.0000*%
%ADD57P,1.9375X4X285.0*%
%ADD58C,1.3700*%
%ADD59R,1.0000X1.0000*%
%ADD60P,1.4142X4X83.0*%
%ADD61R,1.3700X1.3700*%
%ADD62C,7.0000*%
G36*
X274336Y499496D02*
X286282D01*
X289267Y496511D01*
Y335280D01*
X289580Y333710D01*
X290469Y332379D01*
X320349Y302499D01*
X321680Y301609D01*
X323250Y301297D01*
X353769D01*
X354369Y300258D01*
X355928Y298699D01*
X357838Y297597D01*
X359967Y297026D01*
X362173D01*
X363331Y297336D01*
X370937Y289730D01*
Y284690D01*
X369437Y284288D01*
X368584Y285765D01*
X366836Y287514D01*
X364694Y288750D01*
X362306Y289390D01*
X359834D01*
X357446Y288750D01*
X355304Y287514D01*
X354093Y286302D01*
X346710D01*
X344555Y285874D01*
X342727Y284653D01*
X341507Y282825D01*
X341078Y280670D01*
X341507Y278515D01*
X342727Y276687D01*
X344555Y275466D01*
X346710Y275038D01*
X353092D01*
X353556Y274234D01*
X355304Y272486D01*
X357446Y271250D01*
X357528Y271228D01*
X357330Y269728D01*
X351985D01*
X350415Y269415D01*
X349084Y268526D01*
X339468Y258911D01*
X322478D01*
Y261532D01*
X304730D01*
Y258911D01*
X302722D01*
Y261532D01*
X288613D01*
X286520Y263625D01*
X285685Y264183D01*
X284700Y264379D01*
X280916D01*
X280166Y264881D01*
X278986Y265115D01*
X267486D01*
X266306Y264881D01*
X265306Y264212D01*
X264637Y263212D01*
X264403Y262032D01*
X264581Y261138D01*
X264039Y260120D01*
X263645Y259638D01*
X260698D01*
X259953Y261435D01*
X258399Y262989D01*
X256369Y263830D01*
X254171D01*
X252141Y262989D01*
X250587Y261435D01*
X249746Y259405D01*
Y257207D01*
X250308Y255851D01*
X249454Y254350D01*
X216397D01*
X215510Y254174D01*
X214757Y253671D01*
X198936Y237850D01*
X197395Y238198D01*
X197271Y238307D01*
X196666Y239212D01*
Y239852D01*
X197334Y240852D01*
X197569Y242032D01*
X197334Y243212D01*
X197204Y243407D01*
X196785Y244532D01*
X197204Y245657D01*
X197334Y245852D01*
X197569Y247032D01*
X197334Y248212D01*
X196666Y249212D01*
Y249852D01*
X197334Y250852D01*
X197569Y252032D01*
X197334Y253212D01*
X197204Y253407D01*
X196785Y254532D01*
X197204Y255657D01*
X197334Y255852D01*
X197569Y257032D01*
X197334Y258212D01*
X196666Y259212D01*
Y259852D01*
X197334Y260852D01*
X197569Y262032D01*
X197334Y263212D01*
X196666Y264212D01*
Y264852D01*
X197334Y265852D01*
X197569Y267032D01*
X197334Y268212D01*
X196666Y269212D01*
Y269852D01*
X197334Y270852D01*
X197569Y272032D01*
X197334Y273212D01*
X196666Y274212D01*
Y274852D01*
X197334Y275852D01*
X197569Y277032D01*
X197334Y278212D01*
X196666Y279212D01*
Y279852D01*
X197334Y280852D01*
X197569Y282032D01*
X197334Y283212D01*
X196666Y284212D01*
Y284852D01*
X197334Y285852D01*
X197569Y287032D01*
X197334Y288212D01*
X196666Y289212D01*
Y289852D01*
X197334Y290852D01*
X197569Y292032D01*
X197334Y293212D01*
X196666Y294212D01*
X201306Y298852D01*
X202306Y298183D01*
X203486Y297949D01*
X204666Y298183D01*
X205666Y298852D01*
X206306D01*
X207306Y298183D01*
X208486Y297949D01*
X209666Y298183D01*
X210666Y298852D01*
X211306D01*
X212306Y298183D01*
X213486Y297949D01*
X214666Y298183D01*
X215666Y298852D01*
X216306D01*
X217306Y298183D01*
X218486Y297949D01*
X219666Y298183D01*
X220666Y298852D01*
X221306D01*
X222306Y298183D01*
X223486Y297949D01*
X224666Y298183D01*
X225666Y298852D01*
X226306D01*
X227306Y298183D01*
X228486Y297949D01*
X229666Y298183D01*
X230666Y298852D01*
X231306D01*
X232306Y298183D01*
X233486Y297949D01*
X234666Y298183D01*
X235666Y298852D01*
X236306D01*
X237306Y298183D01*
X238486Y297949D01*
X239666Y298183D01*
X240666Y298852D01*
X241306D01*
X242306Y298183D01*
X243486Y297949D01*
X244666Y298183D01*
X245666Y298852D01*
X246306D01*
X247306Y298183D01*
X248486Y297949D01*
X249666Y298183D01*
X250666Y298852D01*
X251306D01*
X252306Y298183D01*
X253486Y297949D01*
X254666Y298183D01*
X255666Y298852D01*
X256306D01*
X257306Y298183D01*
X258486Y297949D01*
X259400Y298130D01*
X260545Y296985D01*
X260084Y296296D01*
X259888Y295311D01*
Y288604D01*
X260084Y287619D01*
X260642Y286784D01*
X261814Y285612D01*
X262649Y285054D01*
X263633Y284858D01*
X263934D01*
X264735Y283358D01*
X264637Y283212D01*
X264403Y282032D01*
X264637Y280852D01*
X265306Y279852D01*
Y279212D01*
X264637Y278212D01*
X264403Y277032D01*
X264637Y275852D01*
X265306Y274852D01*
Y274212D01*
X264637Y273212D01*
X264403Y272032D01*
X264637Y270852D01*
X265306Y269852D01*
X266306Y269183D01*
X267486Y268949D01*
X278986D01*
X280166Y269183D01*
X281166Y269852D01*
X281835Y270852D01*
X282069Y272032D01*
X281835Y273212D01*
X281166Y274212D01*
Y274852D01*
X281835Y275852D01*
X282069Y277032D01*
X281835Y278212D01*
X281166Y279212D01*
Y279852D01*
X281835Y280852D01*
X282069Y282032D01*
X281835Y283212D01*
X281166Y284212D01*
Y284852D01*
X281835Y285852D01*
X282069Y287032D01*
X281835Y288212D01*
X281166Y289212D01*
Y289852D01*
X281835Y290852D01*
X282069Y292032D01*
X281835Y293212D01*
X281166Y294212D01*
X280166Y294881D01*
X278986Y295115D01*
X275623D01*
Y387397D01*
X276179Y387627D01*
X277733Y389181D01*
X278574Y391211D01*
Y393409D01*
X277733Y395439D01*
X276179Y396993D01*
X275623Y397223D01*
Y425617D01*
X276179Y425847D01*
X277733Y427401D01*
X278574Y429431D01*
Y431629D01*
X277733Y433659D01*
X276179Y435213D01*
X274149Y436054D01*
X271951D01*
X271574Y435898D01*
X270426Y437046D01*
X270954Y438321D01*
Y440519D01*
X270113Y442549D01*
X268559Y444103D01*
X266529Y444944D01*
X264694D01*
X263878Y445794D01*
X263622Y446274D01*
X264010Y447211D01*
Y449409D01*
X263169Y451439D01*
X261615Y452993D01*
X259585Y453834D01*
X257387D01*
X256369Y455036D01*
X256810Y456101D01*
Y458299D01*
X255969Y460329D01*
X254415Y461883D01*
X252385Y462724D01*
X250187D01*
X248157Y461883D01*
X246603Y460329D01*
X245762Y458299D01*
Y456101D01*
X246603Y454071D01*
X248157Y452517D01*
X248713Y452287D01*
Y420131D01*
X248331Y419973D01*
X246777Y418419D01*
X245936Y416389D01*
Y414191D01*
X246777Y412161D01*
X248331Y410607D01*
X248713Y410449D01*
Y355315D01*
X247433Y354968D01*
X247213Y354960D01*
X245699Y356473D01*
X243669Y357314D01*
X241471D01*
X239441Y356473D01*
X237887Y354919D01*
X237046Y352889D01*
Y350691D01*
X237276Y350136D01*
X236666Y349526D01*
X236141Y348740D01*
X236100Y348689D01*
X234494Y348265D01*
X222754Y360006D01*
Y390192D01*
X224186Y391020D01*
X225401Y392234D01*
X226259Y393722D01*
X226704Y395381D01*
Y397099D01*
X226259Y398758D01*
X225401Y400246D01*
X224186Y401460D01*
X222698Y402319D01*
X221039Y402764D01*
X219321D01*
X217662Y402319D01*
X216174Y401460D01*
X214960Y400246D01*
X214796Y399963D01*
X213064D01*
X212901Y400246D01*
X211686Y401460D01*
X210198Y402319D01*
X208539Y402764D01*
X206821D01*
X205162Y402319D01*
X203674Y401460D01*
X202460Y400246D01*
X202296Y399963D01*
X200564D01*
X200401Y400246D01*
X199186Y401460D01*
X197698Y402319D01*
X196039Y402764D01*
X194321D01*
X192662Y402319D01*
X191174Y401460D01*
X189960Y400246D01*
X189796Y399963D01*
X188064D01*
X187901Y400246D01*
X186686Y401460D01*
X185198Y402319D01*
X183539Y402764D01*
X181821D01*
X180162Y402319D01*
X179220Y401776D01*
X177720Y402493D01*
Y403780D01*
X171450D01*
Y396240D01*
Y388700D01*
X177720D01*
Y389987D01*
X179005Y390602D01*
X180306Y389840D01*
Y361950D01*
X180502Y360965D01*
X181060Y360130D01*
X180045Y359115D01*
X178874Y358165D01*
X123533Y413506D01*
Y473989D01*
X124300Y474314D01*
X125653Y475372D01*
X126687Y476744D01*
X127331Y478337D01*
X127540Y480042D01*
X127494Y480365D01*
X128859Y481432D01*
X129162Y481309D01*
X130867Y481100D01*
X131499Y481189D01*
X136799Y475889D01*
X138130Y475000D01*
X139700Y474687D01*
X172720D01*
X174290Y475000D01*
X175621Y475889D01*
X199820Y500087D01*
X243941D01*
X244521Y499507D01*
X246551Y498666D01*
X248749D01*
X250779Y499507D01*
X251933Y500661D01*
X254016D01*
Y499496D01*
X271764D01*
Y500666D01*
X274336D01*
Y499496D01*
D02*
G37*
G36*
X84560Y409849D02*
X82067Y407821D01*
X81558Y404648D01*
X76674Y407468D01*
X78174Y410068D01*
X79676Y412668D01*
X84560Y409849D01*
D02*
G37*
G36*
X91399Y405896D02*
X88400Y400699D01*
X84590Y402899D01*
X85004Y406126D01*
X87590Y408095D01*
X91399Y405896D01*
D02*
G37*
G36*
X71860Y387851D02*
X69367Y385824D01*
X68857Y382651D01*
X63974Y385471D01*
X65474Y388071D01*
X66976Y390671D01*
X71860Y387851D01*
D02*
G37*
G36*
X78699Y383899D02*
X75700Y378701D01*
X71890Y380901D01*
X72304Y384129D01*
X74890Y386098D01*
X78699Y383899D01*
D02*
G37*
G36*
X59160Y365854D02*
X56667Y363827D01*
X56157Y360654D01*
X51274Y363474D01*
X52774Y366074D01*
X54276Y368674D01*
X59160Y365854D01*
D02*
G37*
G36*
X65999Y361902D02*
X63000Y356704D01*
X59190Y358904D01*
X59604Y362132D01*
X62190Y364101D01*
X65999Y361902D01*
D02*
G37*
G36*
X291672Y557284D02*
X307905Y556123D01*
X324042Y554013D01*
X340028Y550960D01*
X355807Y546976D01*
X371326Y542073D01*
X386531Y536269D01*
X401369Y529584D01*
X415790Y522041D01*
X429744Y513665D01*
X443183Y504486D01*
X456061Y494535D01*
X468054Y484090D01*
X467716Y482590D01*
X409130D01*
X408139Y482393D01*
X407299Y481831D01*
X406738Y480991D01*
X406540Y480000D01*
Y339104D01*
X405149Y338205D01*
X405040Y338219D01*
X404221Y339445D01*
X397298Y346368D01*
X395967Y347258D01*
X394397Y347570D01*
X391270D01*
X390868Y349070D01*
X391612Y349499D01*
X393171Y351058D01*
X394273Y352968D01*
X394844Y355098D01*
Y357303D01*
X394273Y359432D01*
X393171Y361342D01*
X391612Y362901D01*
X389702Y364003D01*
X387573Y364574D01*
X385368D01*
X383238Y364003D01*
X381328Y362901D01*
X379769Y361342D01*
X378667Y359432D01*
X378096Y357303D01*
Y355098D01*
X378667Y352968D01*
X379769Y351058D01*
X381328Y349499D01*
X382072Y349070D01*
X381670Y347570D01*
X365870D01*
X365468Y349070D01*
X366212Y349499D01*
X367771Y351058D01*
X368873Y352968D01*
X369444Y355098D01*
Y357303D01*
X368873Y359432D01*
X367771Y361342D01*
X366212Y362901D01*
X364302Y364003D01*
X362173Y364574D01*
X359967D01*
X357838Y364003D01*
X355928Y362901D01*
X354369Y361342D01*
X353267Y359432D01*
X352696Y357303D01*
Y355098D01*
X353267Y352968D01*
X354369Y351058D01*
X355928Y349499D01*
X356672Y349070D01*
X356270Y347570D01*
X354859D01*
X349543Y352886D01*
Y372991D01*
X349230Y374561D01*
X348341Y375892D01*
X336522Y387711D01*
X335191Y388601D01*
X333621Y388913D01*
X331265D01*
X330120Y389770D01*
Y396040D01*
X322580D01*
X315040D01*
Y389770D01*
X316327D01*
X317044Y388270D01*
X316501Y387328D01*
X316056Y385669D01*
Y383951D01*
X316501Y382292D01*
X317360Y380804D01*
X318574Y379590D01*
X318857Y379426D01*
Y377694D01*
X318574Y377531D01*
X317360Y376316D01*
X316501Y374828D01*
X316056Y373169D01*
Y371451D01*
X316501Y369792D01*
X317360Y368304D01*
X317897Y367766D01*
X307734Y357604D01*
X307179Y357834D01*
X304981D01*
X302951Y356993D01*
X301397Y355439D01*
X300556Y353409D01*
Y351211D01*
X301397Y349181D01*
X302951Y347627D01*
X304981Y346786D01*
X307179D01*
X309209Y347627D01*
X310763Y349181D01*
X311604Y351211D01*
Y353409D01*
X311374Y353964D01*
X322869Y365460D01*
X323087Y365786D01*
X323439D01*
X325098Y366231D01*
X326586Y367090D01*
X327800Y368304D01*
X328659Y369792D01*
X329104Y371451D01*
Y373169D01*
X328659Y374828D01*
X327800Y376316D01*
X326586Y377531D01*
X326303Y377694D01*
Y379426D01*
X326586Y379590D01*
X327704Y380707D01*
X331922D01*
X341337Y371292D01*
Y351187D01*
X341650Y349617D01*
X342539Y348286D01*
X350259Y340566D01*
X351444Y339774D01*
X351590Y339677D01*
X352696Y338749D01*
X352696Y322426D01*
X369444D01*
X369444Y339174D01*
X370865Y339364D01*
X376675D01*
X378096Y339174D01*
Y322426D01*
X394844D01*
Y335258D01*
X396230Y335832D01*
X397217Y334845D01*
Y251889D01*
X395063Y249735D01*
X393862Y250656D01*
X394273Y251368D01*
X394844Y253497D01*
Y255702D01*
X394273Y257832D01*
X393171Y259742D01*
X391612Y261301D01*
X389702Y262403D01*
X387573Y262974D01*
X385368D01*
X383238Y262403D01*
X381328Y261301D01*
X379769Y259742D01*
X378667Y257832D01*
X378096Y255702D01*
Y253497D01*
X378667Y251368D01*
X379769Y249458D01*
X381054Y248173D01*
X380761Y247036D01*
X380522Y246673D01*
X374799D01*
X369133Y252339D01*
X369444Y253497D01*
Y255702D01*
X368873Y257832D01*
X367771Y259742D01*
X367448Y260065D01*
X367965Y261669D01*
X368795Y261835D01*
X370126Y262724D01*
X377941Y270539D01*
X378830Y271870D01*
X379130Y273376D01*
X379323Y273505D01*
X380643Y273984D01*
X381328Y273299D01*
X383238Y272197D01*
X385368Y271626D01*
X387573D01*
X389702Y272197D01*
X391612Y273299D01*
X393171Y274858D01*
X394273Y276768D01*
X394844Y278897D01*
Y281102D01*
X394273Y283232D01*
X393171Y285142D01*
X391612Y286701D01*
X389702Y287803D01*
X387573Y288374D01*
X385368D01*
X383238Y287803D01*
X381328Y286701D01*
X380643Y286015D01*
X379143Y286637D01*
Y291430D01*
X378830Y293000D01*
X377941Y294331D01*
X369133Y303139D01*
X369444Y304297D01*
Y306502D01*
X368873Y308632D01*
X367771Y310542D01*
X366212Y312101D01*
X364302Y313203D01*
X362173Y313774D01*
X359967D01*
X357838Y313203D01*
X355928Y312101D01*
X354369Y310542D01*
X353769Y309503D01*
X324950D01*
X297473Y336979D01*
Y498210D01*
X297160Y499780D01*
X296271Y501111D01*
X292084Y505298D01*
Y512944D01*
X274336D01*
Y508871D01*
X271764D01*
Y512944D01*
X254016D01*
Y508867D01*
X250785D01*
X250779Y508873D01*
X248749Y509714D01*
X246551D01*
X244521Y508873D01*
X243941Y508293D01*
X198120D01*
X196550Y507980D01*
X195219Y507091D01*
X171021Y482893D01*
X141399D01*
X140239Y484053D01*
X140331Y485550D01*
X144302Y488652D01*
X139659Y494594D01*
X135017Y500536D01*
X130077Y496675D01*
X130869Y495661D01*
X130128Y494172D01*
X129052Y494021D01*
X127470Y493350D01*
X126117Y492292D01*
X125083Y490920D01*
X124439Y489328D01*
X124230Y487623D01*
X124276Y487299D01*
X122911Y486232D01*
X122607Y486355D01*
X120902Y486564D01*
X119201Y486325D01*
X117620Y485654D01*
X116266Y484596D01*
X115233Y483224D01*
X114589Y481632D01*
X114380Y479927D01*
X114619Y478226D01*
X115290Y476645D01*
X116348Y475291D01*
X117720Y474257D01*
X118386Y473988D01*
Y412440D01*
X118582Y411455D01*
X119140Y410620D01*
X119465Y410295D01*
X116140Y406970D01*
X92585D01*
X92423Y407064D01*
X92224Y407324D01*
X88414Y409523D01*
X88092Y409566D01*
X87811Y409729D01*
X87031Y410177D01*
X85839Y410890D01*
X85571Y411035D01*
X85385Y411277D01*
X80501Y414097D01*
X80165Y414141D01*
X79116Y414747D01*
X78860Y414305D01*
X77105Y413660D01*
X69227Y418436D01*
X69334Y418836D01*
X69334Y421041D01*
X68763Y423171D01*
X67661Y425080D01*
X66102Y426639D01*
X64192Y427742D01*
X62062Y428312D01*
X59858Y428312D01*
X57728Y427742D01*
X55818Y426639D01*
X54259Y425080D01*
X53157Y423171D01*
X52586Y421041D01*
X52586Y418836D01*
X53157Y416706D01*
X54259Y414797D01*
X55818Y413238D01*
X57728Y412135D01*
X59858Y411564D01*
X62062Y411564D01*
X64192Y412135D01*
X66102Y413238D01*
X66771Y413906D01*
X75449Y408645D01*
X75245Y408292D01*
X75203Y407969D01*
X74592Y406911D01*
X75648Y406301D01*
X75849Y406039D01*
X75849Y406039D01*
X75849Y406039D01*
X75849D01*
X80733Y403220D01*
X81035Y403180D01*
X81296Y403019D01*
X82507Y402341D01*
X83284Y401890D01*
X83567Y401728D01*
X83765Y401470D01*
X87576Y399270D01*
X87576Y399270D01*
X87576Y399270D01*
X87901Y399227D01*
X88957Y398617D01*
X89567Y399673D01*
X89829Y399874D01*
X89829Y399874D01*
X89829Y399874D01*
X90954Y401824D01*
X116246D01*
X131454Y386615D01*
X129515Y384335D01*
X128853Y384778D01*
X127868Y384973D01*
X79885D01*
X79723Y385067D01*
X79524Y385327D01*
X75714Y387526D01*
X75392Y387569D01*
X75111Y387732D01*
X74331Y388180D01*
X73140Y388893D01*
Y388893D01*
X72871Y389038D01*
X72685Y389280D01*
X67801Y392100D01*
X67466Y392144D01*
X66416Y392750D01*
X66162Y392310D01*
X64405Y391667D01*
X56527Y396441D01*
X56634Y396839D01*
X56634Y399044D01*
X56063Y401174D01*
X54961Y403083D01*
X53402Y404642D01*
X51492Y405745D01*
X49363Y406315D01*
X47158Y406315D01*
X45028Y405745D01*
X43118Y404642D01*
X41559Y403083D01*
X40457Y401174D01*
X39886Y399044D01*
X39886Y396839D01*
X40457Y394709D01*
X41559Y392800D01*
X43118Y391241D01*
X45028Y390138D01*
X47158Y389567D01*
X49362Y389567D01*
X51492Y390138D01*
X53402Y391241D01*
X54072Y391911D01*
X62751Y386651D01*
X62545Y386295D01*
X62503Y385972D01*
X61892Y384914D01*
X62948Y384304D01*
X63149Y384042D01*
X68033Y381223D01*
X68335Y381183D01*
X68596Y381022D01*
X68596D01*
X69807Y380344D01*
X70584Y379893D01*
X70867Y379731D01*
X71065Y379473D01*
X74875Y377273D01*
X74876Y377273D01*
X74876Y377273D01*
X75201Y377230D01*
X76257Y376620D01*
X76867Y377675D01*
X77129Y377877D01*
X77129Y377877D01*
X77129Y377877D01*
X78254Y379827D01*
X126802D01*
X141554Y365074D01*
X138925Y362445D01*
X138422Y362780D01*
X137437Y362976D01*
X67185D01*
X67023Y363070D01*
X66824Y363330D01*
X63014Y365529D01*
X62692Y365572D01*
X62411Y365735D01*
X61631Y366183D01*
X60439Y366896D01*
X60171Y367041D01*
X59985Y367283D01*
X55101Y370102D01*
X55101Y370102D01*
X55101D01*
X55101Y370103D01*
X54765Y370147D01*
X53716Y370753D01*
X53106Y369697D01*
X52848Y369499D01*
X52597Y369065D01*
X43754Y374171D01*
X43934Y374842D01*
X43934Y377047D01*
X43363Y379177D01*
X42261Y381086D01*
X40702Y382645D01*
X38792Y383748D01*
X36662Y384318D01*
X34457Y384318D01*
X32328Y383748D01*
X30418Y382645D01*
X28859Y381086D01*
X27757Y379177D01*
X27186Y377047D01*
X27186Y374842D01*
X27757Y372712D01*
X28859Y370803D01*
X30418Y369244D01*
X32328Y368141D01*
X34457Y367570D01*
X36662Y367570D01*
X38792Y368141D01*
X40702Y369244D01*
X41175Y369717D01*
X49069Y365159D01*
X49408Y363291D01*
X49192Y362917D01*
X50248Y362307D01*
X50449Y362045D01*
X55333Y359226D01*
X55636Y359186D01*
X55896Y359025D01*
X57107Y358347D01*
X57884Y357896D01*
X58167Y357734D01*
X58365Y357476D01*
X62175Y355276D01*
X62176Y355276D01*
X62176Y355276D01*
X62501Y355233D01*
X63557Y354623D01*
X64167Y355678D01*
X64429Y355880D01*
X64429Y355880D01*
X64429Y355880D01*
X65554Y357830D01*
X136371D01*
X176497Y317704D01*
Y301698D01*
X176692Y300713D01*
X177250Y299878D01*
X180996Y296132D01*
X180806Y294212D01*
X180137Y293212D01*
X179903Y292032D01*
X180137Y290852D01*
X180806Y289852D01*
Y289212D01*
X180137Y288212D01*
X179903Y287032D01*
X179986Y286615D01*
X178963Y285115D01*
X171434D01*
Y289424D01*
X153686D01*
Y275976D01*
X171434D01*
Y278949D01*
X178963D01*
X179986Y277449D01*
X179903Y277032D01*
X180137Y275852D01*
X180806Y274852D01*
Y274212D01*
X180137Y273212D01*
X179903Y272032D01*
X180137Y270852D01*
X180806Y269852D01*
Y269212D01*
X180137Y268212D01*
X179903Y267032D01*
X180137Y265852D01*
X180138Y265851D01*
X179337Y264350D01*
X170592D01*
X169705Y264174D01*
X168953Y263671D01*
X98338Y193057D01*
X86284D01*
X80914Y200726D01*
X65311Y189800D01*
X71648Y180751D01*
X71648Y180751D01*
X72481Y179561D01*
X72481D01*
X72508Y179522D01*
X78817Y170511D01*
X78817Y170511D01*
X79650Y169322D01*
X80309Y168048D01*
X78582Y166839D01*
X78334Y166579D01*
X78035Y166379D01*
X76401Y164746D01*
X76033Y164195D01*
X75628Y163671D01*
X75591Y163533D01*
X75511Y163415D01*
X75382Y162765D01*
X75209Y162126D01*
X74754Y155510D01*
X74772Y155369D01*
X74744Y155229D01*
Y153513D01*
X74827Y153096D01*
X74832Y152672D01*
X74982Y152319D01*
X75057Y151943D01*
X75293Y151590D01*
X75459Y151199D01*
X107125Y104831D01*
X107399Y104562D01*
X107612Y104244D01*
X109407Y102449D01*
X109407Y102449D01*
X109407Y102449D01*
X109847Y102155D01*
X110738Y101560D01*
X110738Y101560D01*
X110738Y101559D01*
X111449Y101418D01*
X112308Y101247D01*
X112308Y101247D01*
X112308Y101247D01*
X114419Y101248D01*
X114435Y101251D01*
X114451Y101248D01*
X121893Y101307D01*
X121951Y101249D01*
X121952Y101249D01*
X121953Y101249D01*
X121953Y101249D01*
X122011Y101307D01*
X123451Y101299D01*
X139052Y101218D01*
X139062Y101220D01*
X139073Y101218D01*
X140660D01*
X141100Y101306D01*
X141549Y101315D01*
X141878Y101460D01*
X142231Y101531D01*
X142603Y101780D01*
X143014Y101960D01*
X148067Y105499D01*
X149567Y104718D01*
Y97790D01*
X149880Y96220D01*
X150769Y94889D01*
X195219Y50439D01*
X196550Y49549D01*
X198120Y49237D01*
X208156D01*
Y44466D01*
X210777D01*
Y37850D01*
X211089Y36280D01*
X211979Y34949D01*
X221889Y25039D01*
X223220Y24149D01*
X224790Y23837D01*
X297180D01*
X298750Y24149D01*
X300081Y25039D01*
X316505Y41463D01*
X317395Y42794D01*
X317707Y44364D01*
Y69850D01*
Y180340D01*
Y248084D01*
X322478D01*
Y250705D01*
X341168D01*
X342738Y251017D01*
X344069Y251907D01*
X352780Y260617D01*
X353140Y260546D01*
X353867Y258872D01*
X353267Y257832D01*
X352696Y255702D01*
Y253497D01*
X353267Y251368D01*
X354369Y249458D01*
X355928Y247899D01*
X357838Y246797D01*
X359967Y246226D01*
X362173D01*
X363331Y246536D01*
X370199Y239669D01*
X371530Y238780D01*
X373100Y238467D01*
X382906D01*
X383238Y237003D01*
X381328Y235901D01*
X379769Y234342D01*
X378667Y232432D01*
X378096Y230302D01*
Y228097D01*
X378667Y225968D01*
X379769Y224058D01*
X381328Y222499D01*
X383238Y221397D01*
X385368Y220826D01*
X387573D01*
X389702Y221397D01*
X391612Y222499D01*
X393171Y224058D01*
X394273Y225968D01*
X394844Y228097D01*
Y230302D01*
X394273Y232432D01*
X393171Y234342D01*
X391612Y235901D01*
X389702Y237003D01*
X390034Y238467D01*
X393700D01*
X395270Y238780D01*
X396601Y239669D01*
X404221Y247289D01*
X405040Y248515D01*
X405149Y248529D01*
X406540Y247630D01*
Y80000D01*
X406738Y79009D01*
X407299Y78169D01*
X408139Y77607D01*
X409130Y77410D01*
X467719Y77409D01*
X468053Y75909D01*
X456061Y65465D01*
X443183Y55514D01*
X429744Y46335D01*
X415790Y37959D01*
X401369Y30416D01*
X386531Y23731D01*
X371326Y17927D01*
X355807Y13024D01*
X340028Y9040D01*
X324042Y5987D01*
X307905Y3877D01*
X291672Y2716D01*
X275398Y2508D01*
X259140Y3255D01*
X242955Y4954D01*
X226897Y7598D01*
X211021Y11179D01*
X195382Y15685D01*
X180034Y21099D01*
X165030Y27404D01*
X150422Y34577D01*
X136259Y42595D01*
X122591Y51428D01*
X109463Y61048D01*
X96923Y71420D01*
X85011Y82510D01*
X73770Y94279D01*
X63239Y106687D01*
X53453Y119691D01*
X44446Y133246D01*
X36248Y147306D01*
X28890Y161821D01*
X22394Y176744D01*
X16784Y192021D01*
X12080Y207601D01*
X8297Y223430D01*
X5448Y239453D01*
X3544Y255616D01*
X2590Y271863D01*
Y288137D01*
X3544Y304384D01*
X5448Y320547D01*
X8297Y336570D01*
X12080Y352399D01*
X16784Y367979D01*
X22394Y383256D01*
X28889Y398179D01*
X36248Y412694D01*
X44446Y426754D01*
X53453Y440309D01*
X63239Y453313D01*
X73770Y465720D01*
X85011Y477490D01*
X96923Y488579D01*
X109464Y498952D01*
X122591Y508572D01*
X136259Y517405D01*
X150422Y525423D01*
X165031Y532596D01*
X180035Y538901D01*
X195382Y544315D01*
X211021Y548821D01*
X226897Y552402D01*
X242955Y555046D01*
X259140Y556745D01*
X275398Y557491D01*
X291672Y557284D01*
D02*
G37*
G36*
X252306Y213683D02*
X253486Y213449D01*
X254336Y213618D01*
X255416Y213028D01*
X255837Y212662D01*
Y210804D01*
X251846D01*
Y193056D01*
X255837D01*
Y158583D01*
X255281Y158353D01*
X253727Y156799D01*
X252886Y154769D01*
Y152571D01*
X253116Y152016D01*
X236780Y135679D01*
X236425Y135777D01*
X235394Y136415D01*
Y138259D01*
X234688Y139963D01*
X235306Y140580D01*
X235863Y141415D01*
X236059Y142400D01*
Y212712D01*
X236594Y213129D01*
X237559Y213633D01*
X238486Y213449D01*
X239666Y213683D01*
X240666Y214352D01*
X241306D01*
X242306Y213683D01*
X243486Y213449D01*
X244666Y213683D01*
X245666Y214352D01*
X246306D01*
X247306Y213683D01*
X248486Y213449D01*
X249666Y213683D01*
X250666Y214352D01*
X251306D01*
X252306Y213683D01*
D02*
G37*
G36*
X284974Y257777D02*
Y248084D01*
X302722D01*
Y250705D01*
X304730D01*
Y248084D01*
X309501D01*
Y184443D01*
X293572D01*
Y190035D01*
X289675D01*
Y191577D01*
X289363Y193148D01*
X288474Y194479D01*
X284094Y198858D01*
Y210804D01*
X270646D01*
X270594Y212282D01*
Y216154D01*
X275056Y220616D01*
X275613Y221451D01*
X275809Y222436D01*
Y233949D01*
X278986D01*
X280166Y234184D01*
X281166Y234852D01*
X281835Y235852D01*
X282069Y237032D01*
X281835Y238212D01*
X281166Y239212D01*
Y239852D01*
X281835Y240852D01*
X282069Y242032D01*
X281835Y243212D01*
X281166Y244212D01*
Y244852D01*
X281835Y245852D01*
X282069Y247032D01*
X281835Y248212D01*
X281166Y249212D01*
Y249852D01*
X281835Y250852D01*
X282069Y252032D01*
X281835Y253212D01*
X281166Y254212D01*
Y254852D01*
X281835Y255852D01*
X282069Y257032D01*
X282032Y257218D01*
X282985Y258648D01*
X283847Y258794D01*
X284974Y257777D01*
D02*
G37*
G36*
X180008Y239543D02*
X180379Y238573D01*
X180137Y238212D01*
X179903Y237032D01*
X180137Y235852D01*
X180806Y234852D01*
X181806Y234184D01*
X182986Y233949D01*
X192913D01*
X193535Y232449D01*
X116313Y155227D01*
X115811Y154475D01*
X115660Y153718D01*
X115149Y153435D01*
X114230Y153145D01*
X112133Y156140D01*
X112632Y156887D01*
X112809Y157774D01*
Y174300D01*
X178368Y239859D01*
X180008Y239543D01*
D02*
G37*
G36*
X285716Y144984D02*
Y135890D01*
Y122565D01*
X284016Y120864D01*
X281813D01*
Y112729D01*
X281812Y112721D01*
Y111096D01*
X281447Y110731D01*
X281395Y110721D01*
X281240Y110617D01*
X279066D01*
Y104775D01*
X279286D01*
Y94570D01*
X279482Y93585D01*
X279536Y93505D01*
Y81296D01*
X282537D01*
Y77084D01*
X278146D01*
Y74463D01*
X274304D01*
Y77084D01*
X256556D01*
X255288Y77644D01*
X254589Y78343D01*
X252559Y79184D01*
X250361D01*
X248331Y78343D01*
X247488Y77500D01*
X246044Y78177D01*
Y84094D01*
X231246D01*
Y73546D01*
X238646D01*
X238895Y73496D01*
X242904D01*
X244151Y72250D01*
X244985Y71692D01*
X245970Y71496D01*
X246377D01*
X246777Y70531D01*
X248331Y68977D01*
X250361Y68136D01*
X252559D01*
X254589Y68977D01*
X255056Y69444D01*
X256556Y68822D01*
Y63636D01*
X274304D01*
Y66257D01*
X278146D01*
Y63636D01*
X295894D01*
Y65747D01*
X309501D01*
Y46064D01*
X295481Y32043D01*
X226489D01*
X218983Y39550D01*
Y44466D01*
X221604D01*
Y62214D01*
X221604D01*
X221127Y63714D01*
X221182Y63796D01*
X221294D01*
Y78594D01*
X215794D01*
Y79094D01*
X200996D01*
Y78893D01*
X193986D01*
X186723Y86156D01*
Y103074D01*
X223298Y139649D01*
X224570Y138799D01*
X224346Y138259D01*
Y136061D01*
X225187Y134031D01*
X226741Y132477D01*
X228771Y131636D01*
X230615D01*
X231253Y130605D01*
X231351Y130250D01*
X221700Y120600D01*
X221142Y119765D01*
X220947Y118780D01*
Y118647D01*
X219447Y118349D01*
X219293Y118719D01*
X217739Y120273D01*
X215709Y121114D01*
X213511D01*
X211481Y120273D01*
X209927Y118719D01*
X209086Y116689D01*
Y114491D01*
X209927Y112461D01*
X211481Y110907D01*
X212037Y110677D01*
Y105430D01*
X212232Y104445D01*
X212790Y103610D01*
X215697Y100704D01*
Y96695D01*
X215746Y96446D01*
Y89046D01*
X231294D01*
Y96721D01*
X231339Y96945D01*
Y100856D01*
X236066D01*
X236401Y100045D01*
X237955Y98491D01*
X239986Y97650D01*
X242183D01*
X244214Y98491D01*
X245767Y100045D01*
X246608Y102076D01*
Y104273D01*
X245767Y106304D01*
X245099Y106972D01*
X245081Y108998D01*
X249101Y113019D01*
X250870Y111250D01*
X251705Y110692D01*
X252690Y110497D01*
X266065D01*
Y110276D01*
X271907D01*
Y115864D01*
X266065D01*
Y115644D01*
X253756D01*
X252572Y116827D01*
X253174Y118281D01*
Y120479D01*
X252333Y122509D01*
X250779Y124063D01*
X248749Y124904D01*
X248613D01*
X248039Y126290D01*
X254886Y133136D01*
X255441Y132906D01*
X257639D01*
X259669Y133747D01*
X261223Y135301D01*
X261453Y135857D01*
X264327D01*
X264557Y135301D01*
X266111Y133747D01*
X268141Y132906D01*
X270339D01*
X270894Y133136D01*
X274286Y129744D01*
Y126365D01*
X274066D01*
Y120523D01*
X279654D01*
Y126365D01*
X279433D01*
Y130810D01*
X279238Y131795D01*
X278680Y132630D01*
X274534Y136776D01*
X274764Y137331D01*
Y139529D01*
X273923Y141559D01*
X272369Y143113D01*
X270339Y143954D01*
X268141D01*
X266111Y143113D01*
X264557Y141559D01*
X264327Y141004D01*
X261453D01*
X261223Y141559D01*
X259669Y143113D01*
X257639Y143954D01*
X255441D01*
X254108Y143402D01*
X252945Y144565D01*
X256756Y148376D01*
X257311Y148146D01*
X259509D01*
X261539Y148987D01*
X263093Y150541D01*
X263323Y151096D01*
X279604D01*
X285716Y144984D01*
D02*
G37*
G36*
X230912Y212572D02*
Y143465D01*
X230131Y142684D01*
X228771D01*
X228022Y142374D01*
X227027Y143585D01*
X227168Y143795D01*
X227363Y144780D01*
Y211079D01*
X229412Y213128D01*
X230912Y212572D01*
D02*
G37*
G36*
X192281Y222678D02*
Y218751D01*
X158947Y185416D01*
X158444Y184664D01*
X158268Y183777D01*
Y146330D01*
X149435Y140145D01*
X151213Y137605D01*
X150942Y137177D01*
X149146Y137141D01*
X147881Y138948D01*
X133343Y128768D01*
X134875Y126580D01*
X133504Y125620D01*
X131102Y129050D01*
X115499Y118125D01*
X120606Y110830D01*
X119919Y109497D01*
X114402Y109453D01*
X114007Y109453D01*
X113685Y109775D01*
X82950Y154780D01*
Y155088D01*
X83290Y160030D01*
X83583Y160323D01*
X85016Y161327D01*
X86032Y160207D01*
X86820Y159082D01*
X86820D01*
X86847Y159043D01*
X93157Y150032D01*
X93157Y150032D01*
X93990Y148843D01*
X93990D01*
X94017Y148804D01*
X100326Y139793D01*
X100326Y139793D01*
X101159Y138603D01*
X101159D01*
X101187Y138564D01*
X107496Y129553D01*
X123099Y140479D01*
X119424Y145728D01*
X119592Y145896D01*
X120095Y146648D01*
X120272Y147535D01*
Y152628D01*
X190896Y223252D01*
X192281Y222678D01*
D02*
G37*
G36*
X200403Y225421D02*
Y216532D01*
X200637Y215352D01*
X201306Y214352D01*
X202306Y213683D01*
X203486Y213449D01*
X204666Y213683D01*
X205666Y214352D01*
X206306D01*
X207306Y213683D01*
X208486Y213449D01*
X209666Y213683D01*
X210666Y214352D01*
X211306D01*
X212306Y213683D01*
X213486Y213449D01*
X214666Y213683D01*
X215666Y214352D01*
X216306D01*
X217306Y213683D01*
X218486Y213449D01*
X219666Y213683D01*
X220666Y214352D01*
X221306D01*
X221388Y214297D01*
X222412Y213130D01*
X222216Y212145D01*
Y145846D01*
X182330Y105960D01*
X181772Y105125D01*
X181576Y104140D01*
Y85090D01*
X181772Y84105D01*
X182330Y83270D01*
X191100Y74500D01*
X191935Y73942D01*
X192920Y73747D01*
X200996D01*
Y73546D01*
X215746D01*
Y71194D01*
X215697Y70945D01*
Y66936D01*
X213099Y64338D01*
X212541Y63503D01*
X212345Y62518D01*
Y62214D01*
X208156D01*
Y57443D01*
X199819D01*
X157773Y99489D01*
Y106507D01*
X166378Y112532D01*
X158664Y123548D01*
X144126Y113368D01*
X144413Y112957D01*
X139367Y109424D01*
X139085D01*
X124932Y109498D01*
X124484Y110929D01*
X137439Y120000D01*
X136164Y121821D01*
X137535Y122781D01*
X141056Y117752D01*
X155594Y127932D01*
X153679Y130667D01*
X153949Y131096D01*
X155746Y131132D01*
X157148Y129129D01*
X171686Y139309D01*
X163973Y150325D01*
X163973D01*
X162905Y150881D01*
Y182816D01*
X196239Y216151D01*
X196742Y216903D01*
X196918Y217790D01*
Y223897D01*
X199017Y225995D01*
X200403Y225421D01*
D02*
G37*
G36*
X280472Y190875D02*
X280124Y190035D01*
X280124D01*
Y172287D01*
X293572D01*
Y176237D01*
X309501D01*
Y73953D01*
X295894D01*
Y77084D01*
X290743D01*
Y81296D01*
X292984D01*
Y99044D01*
X284433D01*
Y104775D01*
X284654D01*
Y106659D01*
X286205Y108210D01*
X286763Y109045D01*
X286958Y110030D01*
Y110276D01*
X287655D01*
Y117225D01*
X290110Y119679D01*
X290668Y120514D01*
X290863Y121499D01*
Y135890D01*
Y146050D01*
X290668Y147035D01*
X290110Y147870D01*
X282490Y155490D01*
X281655Y156048D01*
X280670Y156243D01*
X270896D01*
X270598Y157743D01*
X271157Y157975D01*
X272711Y159529D01*
X273552Y161559D01*
Y163757D01*
X272711Y165787D01*
X271157Y167341D01*
X270622Y167563D01*
Y172287D01*
X274772D01*
Y190035D01*
X270594D01*
Y191578D01*
X270646Y193056D01*
X278292D01*
X280472Y190875D01*
D02*
G37*
%LPC*%
G36*
X168910Y403780D02*
X162640D01*
Y397510D01*
X168910D01*
Y403780D01*
D02*
G37*
G36*
Y394970D02*
X162640D01*
Y388700D01*
X168910D01*
Y394970D01*
D02*
G37*
G36*
X283210Y529123D02*
X281640Y528811D01*
X280309Y527921D01*
X279419Y526590D01*
X279107Y525020D01*
X279419Y523450D01*
X280309Y522119D01*
X280564Y521864D01*
X281895Y520975D01*
X283465Y520662D01*
X285035Y520975D01*
X286366Y521864D01*
X287255Y523195D01*
X287568Y524765D01*
X287255Y526335D01*
X286366Y527666D01*
X286111Y527921D01*
X284780Y528811D01*
X283210Y529123D01*
D02*
G37*
G36*
X141960Y505959D02*
X137019Y502099D01*
X140879Y497158D01*
X145820Y501019D01*
X141960Y505959D01*
D02*
G37*
G36*
X147384Y499017D02*
X142443Y495157D01*
X146303Y490216D01*
X151244Y494076D01*
X147384Y499017D01*
D02*
G37*
G36*
X361249Y530098D02*
X355500D01*
X349821Y529198D01*
X344354Y527422D01*
X339231Y524812D01*
X334580Y521433D01*
X330515Y517368D01*
X327136Y512716D01*
X324526Y507594D01*
X322749Y502127D01*
X321850Y496448D01*
Y490699D01*
X322749Y485021D01*
X324526Y479553D01*
X327136Y474431D01*
X330515Y469780D01*
X334580Y465715D01*
X339231Y462336D01*
X344354Y459726D01*
X349821Y457949D01*
X355500Y457050D01*
X361249D01*
X366927Y457949D01*
X372394Y459726D01*
X377517Y462336D01*
X382168Y465715D01*
X386233Y469780D01*
X389612Y474431D01*
X392222Y479553D01*
X393999Y485021D01*
X394898Y490699D01*
Y496448D01*
X393999Y502127D01*
X392222Y507594D01*
X389612Y512716D01*
X386233Y517368D01*
X382168Y521433D01*
X377517Y524812D01*
X372394Y527422D01*
X366927Y529198D01*
X361249Y530098D01*
D02*
G37*
G36*
X70223Y454762D02*
X66163Y447730D01*
X73195Y443670D01*
X77255Y450703D01*
X70223Y454762D01*
D02*
G37*
G36*
X79455Y449433D02*
X75395Y442400D01*
X82427Y438340D01*
X86487Y445373D01*
X79455Y449433D01*
D02*
G37*
G36*
X64893Y445531D02*
X60833Y438499D01*
X67865Y434439D01*
X71925Y441471D01*
X64893Y445531D01*
D02*
G37*
G36*
X74125Y440201D02*
X70065Y433169D01*
X77097Y429109D01*
X81157Y436141D01*
X74125Y440201D01*
D02*
G37*
G36*
X394844Y440774D02*
X378096D01*
Y424026D01*
X394844D01*
Y440774D01*
D02*
G37*
G36*
X369444D02*
X352696D01*
Y424026D01*
X369444D01*
Y440774D01*
D02*
G37*
G36*
X387573Y415374D02*
X385368D01*
X383238Y414803D01*
X381328Y413701D01*
X379769Y412142D01*
X378667Y410232D01*
X378096Y408102D01*
Y405897D01*
X378667Y403768D01*
X379769Y401858D01*
X381328Y400299D01*
X383238Y399197D01*
X385368Y398626D01*
X387573D01*
X389702Y399197D01*
X391612Y400299D01*
X393171Y401858D01*
X394273Y403768D01*
X394844Y405897D01*
Y408102D01*
X394273Y410232D01*
X393171Y412142D01*
X391612Y413701D01*
X389702Y414803D01*
X387573Y415374D01*
D02*
G37*
G36*
X362173D02*
X359967D01*
X357838Y414803D01*
X355928Y413701D01*
X354369Y412142D01*
X353267Y410232D01*
X352696Y408102D01*
Y405897D01*
X353267Y403768D01*
X354369Y401858D01*
X355928Y400299D01*
X357838Y399197D01*
X359967Y398626D01*
X362173D01*
X364302Y399197D01*
X366212Y400299D01*
X367771Y401858D01*
X368873Y403768D01*
X369444Y405897D01*
Y408102D01*
X368873Y410232D01*
X367771Y412142D01*
X366212Y413701D01*
X364302Y414803D01*
X362173Y415374D01*
D02*
G37*
G36*
X330120Y404850D02*
X323850D01*
Y398580D01*
X330120D01*
Y404850D01*
D02*
G37*
G36*
X321310D02*
X315040D01*
Y398580D01*
X321310D01*
Y404850D01*
D02*
G37*
G36*
X387573Y389974D02*
X385368D01*
X383238Y389403D01*
X381328Y388301D01*
X379769Y386742D01*
X378667Y384832D01*
X378096Y382702D01*
Y380498D01*
X378667Y378368D01*
X379769Y376458D01*
X381328Y374899D01*
X383238Y373797D01*
X385368Y373226D01*
X387573D01*
X389702Y373797D01*
X391612Y374899D01*
X393171Y376458D01*
X394273Y378368D01*
X394844Y380498D01*
Y382702D01*
X394273Y384832D01*
X393171Y386742D01*
X391612Y388301D01*
X389702Y389403D01*
X387573Y389974D01*
D02*
G37*
G36*
X362173D02*
X359967D01*
X357838Y389403D01*
X355928Y388301D01*
X354369Y386742D01*
X353267Y384832D01*
X352696Y382702D01*
Y380498D01*
X353267Y378368D01*
X354369Y376458D01*
X355928Y374899D01*
X357838Y373797D01*
X359967Y373226D01*
X362173D01*
X364302Y373797D01*
X366212Y374899D01*
X367771Y376458D01*
X368873Y378368D01*
X369444Y380498D01*
Y382702D01*
X368873Y384832D01*
X367771Y386742D01*
X366212Y388301D01*
X364302Y389403D01*
X362173Y389974D01*
D02*
G37*
G36*
X171434Y308224D02*
X153686D01*
Y302683D01*
X151574D01*
Y305124D01*
X140526D01*
Y294076D01*
X151574D01*
Y296517D01*
X153686D01*
Y294776D01*
X171434D01*
Y308224D01*
D02*
G37*
G36*
X387573Y313774D02*
X385368D01*
X383238Y313203D01*
X381328Y312101D01*
X379769Y310542D01*
X378667Y308632D01*
X378096Y306502D01*
Y304297D01*
X378667Y302168D01*
X379769Y300258D01*
X381328Y298699D01*
X383238Y297597D01*
X385368Y297026D01*
X387573D01*
X389702Y297597D01*
X391612Y298699D01*
X393171Y300258D01*
X394273Y302168D01*
X394844Y304297D01*
Y306502D01*
X394273Y308632D01*
X393171Y310542D01*
X391612Y312101D01*
X389702Y313203D01*
X387573Y313774D01*
D02*
G37*
G36*
X55374Y316524D02*
X49626D01*
X43947Y315625D01*
X38480Y313848D01*
X33357Y311238D01*
X28706Y307859D01*
X24641Y303794D01*
X21262Y299143D01*
X18652Y294020D01*
X16875Y288553D01*
X15976Y282875D01*
Y277125D01*
X16875Y271447D01*
X18652Y265980D01*
X21262Y260857D01*
X24641Y256206D01*
X28706Y252141D01*
X33357Y248762D01*
X38480Y246152D01*
X43947Y244375D01*
X49626Y243476D01*
X55374D01*
X61053Y244375D01*
X66520Y246152D01*
X71643Y248762D01*
X76294Y252141D01*
X80359Y256206D01*
X83738Y260857D01*
X86348Y265980D01*
X88125Y271447D01*
X89024Y277125D01*
Y282875D01*
X88125Y288553D01*
X86348Y294020D01*
X83738Y299143D01*
X80359Y303794D01*
X76294Y307859D01*
X71643Y311238D01*
X66520Y313848D01*
X61053Y315625D01*
X55374Y316524D01*
D02*
G37*
G36*
X362173Y237574D02*
X359967D01*
X357838Y237003D01*
X355928Y235901D01*
X354369Y234342D01*
X353267Y232432D01*
X352696Y230302D01*
Y228097D01*
X353267Y225968D01*
X354369Y224058D01*
X355928Y222499D01*
X357838Y221397D01*
X359967Y220826D01*
X362173D01*
X364302Y221397D01*
X366212Y222499D01*
X367771Y224058D01*
X368873Y225968D01*
X369444Y228097D01*
Y230302D01*
X368873Y232432D01*
X367771Y234342D01*
X366212Y235901D01*
X364302Y237003D01*
X362173Y237574D01*
D02*
G37*
G36*
X394844Y212174D02*
X378096D01*
Y195426D01*
X394844D01*
Y212174D01*
D02*
G37*
G36*
X369444D02*
X352696D01*
Y195426D01*
X369444D01*
Y212174D01*
D02*
G37*
G36*
X27686Y211532D02*
X26682Y211511D01*
X25763Y211106D01*
X25069Y210381D01*
X24704Y209445D01*
X24727Y208441D01*
X25131Y207522D01*
X29769Y200898D01*
X29839Y200831D01*
X29883Y200747D01*
X35905Y193366D01*
X36680Y192727D01*
X37640Y192432D01*
X38639Y192528D01*
X39526Y192999D01*
X40165Y193773D01*
X40460Y194733D01*
X40364Y195733D01*
X39893Y196620D01*
X33931Y203927D01*
X29347Y210474D01*
X28622Y211168D01*
X27686Y211532D01*
D02*
G37*
G36*
X387573Y186774D02*
X385368D01*
X383238Y186203D01*
X381328Y185101D01*
X379769Y183542D01*
X378667Y181632D01*
X378096Y179503D01*
Y177297D01*
X378667Y175168D01*
X379769Y173258D01*
X381328Y171699D01*
X383238Y170597D01*
X385368Y170026D01*
X387573D01*
X389702Y170597D01*
X391612Y171699D01*
X393171Y173258D01*
X394273Y175168D01*
X394844Y177297D01*
Y179503D01*
X394273Y181632D01*
X393171Y183542D01*
X391612Y185101D01*
X389702Y186203D01*
X387573Y186774D01*
D02*
G37*
G36*
X362173D02*
X359967D01*
X357838Y186203D01*
X355928Y185101D01*
X354369Y183542D01*
X353267Y181632D01*
X352696Y179503D01*
Y177297D01*
X353267Y175168D01*
X354369Y173258D01*
X355928Y171699D01*
X357838Y170597D01*
X359967Y170026D01*
X362173D01*
X364302Y170597D01*
X366212Y171699D01*
X367771Y173258D01*
X368873Y175168D01*
X369444Y177297D01*
Y179503D01*
X368873Y181632D01*
X367771Y183542D01*
X366212Y185101D01*
X364302Y186203D01*
X362173Y186774D01*
D02*
G37*
G36*
X387740Y162381D02*
Y154270D01*
X395851D01*
X395220Y156624D01*
X393984Y158766D01*
X392236Y160514D01*
X390094Y161750D01*
X387740Y162381D01*
D02*
G37*
G36*
X385200D02*
X382846Y161750D01*
X380704Y160514D01*
X378956Y158766D01*
X377720Y156624D01*
X377089Y154270D01*
X385200D01*
Y162381D01*
D02*
G37*
G36*
X362173Y161374D02*
X359967D01*
X357838Y160803D01*
X355928Y159701D01*
X354369Y158142D01*
X353267Y156232D01*
X352696Y154102D01*
Y151897D01*
X353267Y149768D01*
X354369Y147858D01*
X355928Y146299D01*
X357838Y145197D01*
X359967Y144626D01*
X362173D01*
X364302Y145197D01*
X366212Y146299D01*
X367771Y147858D01*
X368873Y149768D01*
X369444Y151897D01*
Y154102D01*
X368873Y156232D01*
X367771Y158142D01*
X366212Y159701D01*
X364302Y160803D01*
X362173Y161374D01*
D02*
G37*
G36*
X395851Y151730D02*
X387740D01*
Y143619D01*
X390094Y144250D01*
X392236Y145486D01*
X393984Y147234D01*
X395220Y149376D01*
X395851Y151730D01*
D02*
G37*
G36*
X385200D02*
X377089D01*
X377720Y149376D01*
X378956Y147234D01*
X380704Y145486D01*
X382846Y144250D01*
X385200Y143619D01*
Y151730D01*
D02*
G37*
G36*
X387740Y136981D02*
Y128870D01*
X395851D01*
X395220Y131224D01*
X393984Y133366D01*
X392236Y135114D01*
X390094Y136350D01*
X387740Y136981D01*
D02*
G37*
G36*
X385200D02*
X382846Y136350D01*
X380704Y135114D01*
X378956Y133366D01*
X377720Y131224D01*
X377089Y128870D01*
X385200D01*
Y136981D01*
D02*
G37*
G36*
X362173Y135974D02*
X359967D01*
X357838Y135403D01*
X355928Y134301D01*
X354369Y132742D01*
X353267Y130832D01*
X352696Y128702D01*
Y126497D01*
X353267Y124368D01*
X354369Y122458D01*
X355928Y120899D01*
X357838Y119797D01*
X359967Y119226D01*
X362173D01*
X364302Y119797D01*
X366212Y120899D01*
X367771Y122458D01*
X368873Y124368D01*
X369444Y126497D01*
Y128702D01*
X368873Y130832D01*
X367771Y132742D01*
X366212Y134301D01*
X364302Y135403D01*
X362173Y135974D01*
D02*
G37*
G36*
X395851Y126330D02*
X387740D01*
Y118219D01*
X390094Y118850D01*
X392236Y120086D01*
X393984Y121834D01*
X395220Y123976D01*
X395851Y126330D01*
D02*
G37*
G36*
X385200D02*
X377089D01*
X377720Y123976D01*
X378956Y121834D01*
X380704Y120086D01*
X382846Y118850D01*
X385200Y118219D01*
Y126330D01*
D02*
G37*
G36*
X117655Y84241D02*
X116651Y84213D01*
X115735Y83802D01*
X115045Y83072D01*
X114688Y82134D01*
X114716Y81130D01*
X115127Y80214D01*
X120624Y72473D01*
X126162Y64564D01*
X126887Y63870D01*
X127823Y63506D01*
X128827Y63528D01*
X129746Y63932D01*
X130440Y64657D01*
X130804Y65593D01*
X130782Y66597D01*
X130378Y67516D01*
X124834Y75434D01*
X124827Y75440D01*
X124824Y75448D01*
X119323Y83194D01*
X118593Y83884D01*
X117655Y84241D01*
D02*
G37*
G36*
X361245Y102950D02*
X355495D01*
X349817Y102051D01*
X344350Y100274D01*
X339227Y97664D01*
X334576Y94285D01*
X330511Y90220D01*
X327132Y85569D01*
X324522Y80447D01*
X322745Y74979D01*
X321846Y69301D01*
Y63552D01*
X322745Y57874D01*
X324522Y52406D01*
X327132Y47284D01*
X330511Y42632D01*
X334576Y38567D01*
X339227Y35188D01*
X344350Y32578D01*
X349817Y30802D01*
X355495Y29902D01*
X361245D01*
X366923Y30802D01*
X372390Y32578D01*
X377513Y35188D01*
X382164Y38567D01*
X386229Y42632D01*
X389608Y47284D01*
X392218Y52406D01*
X393995Y57874D01*
X394894Y63552D01*
Y69301D01*
X393995Y74979D01*
X392218Y80447D01*
X389608Y85569D01*
X386229Y90220D01*
X382164Y94285D01*
X377513Y97664D01*
X372390Y100274D01*
X366923Y102051D01*
X361245Y102950D01*
D02*
G37*
G36*
X287020Y55663D02*
X285450Y55350D01*
X284119Y54461D01*
X284109Y54451D01*
X283220Y53120D01*
X282907Y51550D01*
X283220Y49980D01*
X284109Y48649D01*
X285440Y47759D01*
X287010Y47447D01*
X288580Y47759D01*
X289911Y48649D01*
X289921Y48659D01*
X290811Y49990D01*
X291123Y51560D01*
X290811Y53130D01*
X289921Y54461D01*
X288590Y55350D01*
X287020Y55663D01*
D02*
G37*
G36*
X132325Y141813D02*
X130725Y141778D01*
X129260Y141133D01*
X121560Y135742D01*
X117022Y132715D01*
X115890Y131584D01*
X115276Y130105D01*
X115274Y128504D01*
X115886Y127025D01*
X117017Y125892D01*
X118496Y125278D01*
X120097Y125277D01*
X121576Y125889D01*
X126152Y128942D01*
X126186Y128975D01*
X126229Y128994D01*
X133966Y134411D01*
X135073Y135568D01*
X135653Y137060D01*
X135618Y138660D01*
X134974Y140126D01*
X133817Y141233D01*
X132325Y141813D01*
D02*
G37*
G36*
X171145Y128425D02*
X169592Y128037D01*
X168306Y127084D01*
X167482Y125712D01*
X167246Y124129D01*
X167634Y122575D01*
X168803Y120098D01*
X169012Y119817D01*
X169153Y119497D01*
X174439Y111947D01*
X175596Y110840D01*
X177088Y110260D01*
X178688Y110294D01*
X180153Y110939D01*
X181260Y112096D01*
X181840Y113588D01*
X181806Y115188D01*
X181161Y116653D01*
X176075Y123917D01*
X175054Y126079D01*
X174101Y127365D01*
X172729Y128189D01*
X171145Y128425D01*
D02*
G37*
%LPD*%
D13*
X34760Y376471D02*
X34760Y376470D01*
X273236Y222436D02*
Y237032D01*
X268020Y182171D02*
Y217220D01*
X273236Y222436D01*
X268048Y162638D02*
Y181161D01*
X214610Y105430D02*
Y115590D01*
Y105430D02*
X218270Y101770D01*
Y96695D02*
Y101770D01*
Y96695D02*
X218520Y96445D01*
X256540Y138430D02*
X269240D01*
X233680Y115570D02*
X256540Y138430D01*
X269240D02*
X276860Y130810D01*
Y123444D02*
Y130810D01*
X220180Y358940D02*
Y396240D01*
Y358940D02*
X233486Y345634D01*
Y306782D02*
Y345634D01*
X195180Y396240D02*
X195380Y396040D01*
Y360880D02*
Y396040D01*
X223486Y306782D02*
Y332774D01*
X195380Y360880D02*
X223486Y332774D01*
X182680Y396240D02*
X182880Y396040D01*
Y361950D02*
Y396040D01*
X218486Y306782D02*
Y326344D01*
X182880Y361950D02*
X218486Y326344D01*
X120960Y412440D02*
X213486Y319914D01*
Y306782D02*
Y319914D01*
X120960Y412440D02*
Y479984D01*
X87994Y404397D02*
X117312D01*
X208295Y313414D01*
Y306973D02*
Y313414D01*
Y306973D02*
X208486Y306782D01*
X117225Y81704D02*
X122725Y73958D01*
X31877Y202374D02*
X37899Y194993D01*
X122725Y73958D02*
X128270Y66040D01*
X27239Y208998D02*
X31877Y202374D01*
X272786Y292032D02*
X273050Y292296D01*
Y430530D01*
X238486Y347706D02*
X242570Y351790D01*
X238486Y306782D02*
Y347706D01*
X306080Y352310D02*
X321049Y367279D01*
Y370779D01*
X322580Y372310D01*
X62594Y360403D02*
X137437D01*
X179070Y301698D02*
Y318770D01*
X137437Y360403D02*
X179070Y318770D01*
Y301698D02*
X188736Y292032D01*
X258486Y306332D02*
Y448310D01*
X127868Y382400D02*
X203486Y306782D01*
X75294Y382400D02*
X127868D01*
X252690Y113070D02*
X268986D01*
X247650Y118110D02*
Y119380D01*
Y118110D02*
X252690Y113070D01*
X229870Y138784D02*
X233486Y142400D01*
Y222282D01*
X229870Y137160D02*
Y138784D01*
X251286Y317674D02*
X253438Y315522D01*
X251286Y317674D02*
Y457200D01*
X253438Y306380D02*
X253486Y306332D01*
X253438Y306380D02*
Y315522D01*
X207680Y360010D02*
X228486Y339204D01*
X207680Y360010D02*
Y396240D01*
X228486Y306782D02*
Y339204D01*
X184150Y85090D02*
X192920Y76320D01*
X208395D01*
X184150Y85090D02*
Y104140D01*
X228486Y216261D02*
Y222282D01*
X184150Y104140D02*
X224790Y144780D01*
Y212145D01*
X227986Y215341D02*
Y215761D01*
X224790Y212145D02*
X227986Y215341D01*
Y215761D02*
X228486Y216261D01*
X214880Y53340D02*
X214918Y53378D01*
Y62518D01*
X218270Y65870D01*
Y70945D02*
X218520Y71195D01*
X218270Y65870D02*
Y70945D01*
X238645Y76320D02*
X238895Y76070D01*
X243970D01*
X251050Y74070D02*
X251460Y73660D01*
X258710D01*
X243970Y76070D02*
X245970Y74070D01*
X251050D01*
X258710Y73660D02*
X262010Y70360D01*
X263280D02*
X265430D01*
X281860Y94570D02*
X286260Y90170D01*
X281860Y107696D02*
Y107823D01*
Y94570D02*
Y107569D01*
Y107823D02*
X282380Y108343D01*
X282698D01*
X284385Y110030D01*
Y112721D01*
X284734Y113070D01*
X273236Y262032D02*
X273427Y261841D01*
X279884D01*
X279919Y261806D01*
X284700D01*
X291698Y254808D01*
X293848D01*
X258410Y198120D02*
Y222206D01*
Y153670D02*
Y198120D01*
X223520Y118780D02*
X258410Y153670D01*
X280670D01*
X223520Y96445D02*
Y118780D01*
X288290Y135890D02*
Y146050D01*
X280670Y153670D02*
X288290Y146050D01*
Y121499D02*
Y135890D01*
X284861Y118070D02*
X288290Y121499D01*
X284734Y118070D02*
X284861D01*
X265430Y412750D02*
Y439420D01*
X262462Y288604D02*
X263633Y287432D01*
X262462Y288604D02*
Y295311D01*
X265430Y298279D02*
Y412750D01*
X262462Y295311D02*
X265430Y298279D01*
X272386Y287432D02*
X272786Y287032D01*
X263633Y287432D02*
X272386D01*
X80026Y408880D02*
X80167Y408794D01*
X59690Y421208D02*
X80026Y408880D01*
X67328Y386886D02*
X67369Y386861D01*
X46990Y399211D02*
X67328Y386886D01*
X34390Y376841D02*
X34760Y376470D01*
X34760Y376470D02*
X34946Y376284D01*
X53604Y365512D01*
X34290Y377214D02*
X34390Y376841D01*
X53604Y365512D02*
X54583Y364947D01*
D17*
X216397Y252032D02*
X272786D01*
X112129Y141712D02*
X117953Y147535D01*
Y153588D02*
X216397Y252032D01*
X117953Y147535D02*
Y153588D01*
X112129Y139541D02*
Y141712D01*
X101742Y170630D02*
Y172288D01*
X97790Y160020D02*
X101660Y166697D01*
X101742Y170630D01*
X101705Y175365D02*
X101742Y172288D01*
X101705Y175365D02*
X178372Y252032D01*
X189186D01*
X97949Y180499D02*
X174482Y257032D01*
X83451Y180499D02*
X97949D01*
X174482Y257032D02*
X189186D01*
X182580Y247032D02*
X189186D01*
X181830Y246282D02*
X182580Y247032D01*
X181512Y246282D02*
X181830D01*
X104960Y152244D02*
X110490Y157774D01*
Y175260D02*
X181512Y246282D01*
X110490Y157774D02*
Y175260D01*
X104960Y149781D02*
Y152244D01*
X229020Y96945D02*
Y102296D01*
X228520Y96445D02*
X229020Y96945D01*
Y102296D02*
X229899Y103174D01*
X241084D01*
X149812Y132226D02*
X155080Y136047D01*
X160561Y139727D01*
X144468Y128350D02*
X149812Y132226D01*
X132970Y122417D02*
X132978Y122421D01*
X138068Y125985D02*
X144468Y128350D01*
X132978Y122421D02*
X138068Y125985D01*
X126469Y119062D02*
X132970Y122417D01*
X194600Y224857D02*
X215209Y245466D01*
X160586Y139753D02*
Y183777D01*
X244754Y245466D02*
X245110Y245110D01*
X194600Y217790D02*
Y224857D01*
X160586Y183777D02*
X194600Y217790D01*
X215209Y245466D02*
X244754D01*
X272499Y257319D02*
X272786Y257032D01*
X256257Y257319D02*
X272499D01*
X255270Y258306D02*
X256257Y257319D01*
X99298Y190738D02*
X170592Y262032D01*
X189186D01*
X76281Y190738D02*
X99298D01*
X81872Y407932D02*
X85769Y405682D01*
X69171Y385935D02*
X73069Y383685D01*
D19*
X258486Y222282D02*
D03*
X253486D02*
D03*
X248486D02*
D03*
X243486D02*
D03*
X238486D02*
D03*
X233486D02*
D03*
X228486D02*
D03*
X223486D02*
D03*
X218486D02*
D03*
X213486D02*
D03*
X208486D02*
D03*
X203486D02*
D03*
Y306782D02*
D03*
X208486D02*
D03*
X213486D02*
D03*
X218486D02*
D03*
X223486D02*
D03*
X228486D02*
D03*
X233486D02*
D03*
X238486D02*
D03*
X243486D02*
D03*
X248486D02*
D03*
X253486D02*
D03*
X258486D02*
D03*
D20*
X188736Y237032D02*
D03*
Y242032D02*
D03*
Y247032D02*
D03*
Y252032D02*
D03*
Y257032D02*
D03*
Y262032D02*
D03*
Y267032D02*
D03*
Y272032D02*
D03*
Y277032D02*
D03*
Y282032D02*
D03*
Y287032D02*
D03*
Y292032D02*
D03*
X273236D02*
D03*
Y287032D02*
D03*
Y282032D02*
D03*
Y277032D02*
D03*
Y272032D02*
D03*
Y257032D02*
D03*
Y252032D02*
D03*
Y247032D02*
D03*
Y242032D02*
D03*
Y237032D02*
D03*
Y267032D02*
D03*
Y262032D02*
D03*
D21*
X268048Y181161D02*
D03*
X233680Y53340D02*
D03*
X267460Y90170D02*
D03*
X214880Y53340D02*
D03*
X286260Y90170D02*
D03*
X286848Y181161D02*
D03*
X277370Y201930D02*
D03*
X258570D02*
D03*
D22*
X276860Y123444D02*
D03*
X271860D02*
D03*
Y107696D02*
D03*
X276860D02*
D03*
X281860Y123444D02*
D03*
Y107696D02*
D03*
D23*
X112129Y139541D02*
D03*
X97790Y160020D02*
D03*
X119299Y129302D02*
D03*
X83451Y180499D02*
D03*
X104960Y149781D02*
D03*
X90620Y170259D02*
D03*
X126469Y119062D02*
D03*
X76281Y190738D02*
D03*
D24*
X117225Y81704D02*
D03*
X37899Y194993D02*
D03*
D25*
X171344Y124327D02*
D03*
X155252Y112950D02*
D03*
X144468Y128350D02*
D03*
X160561Y139727D02*
D03*
D26*
X268986Y118070D02*
D03*
Y113070D02*
D03*
X284734D02*
D03*
Y118070D02*
D03*
D27*
X287020Y51560D02*
D03*
X265430D02*
D03*
X283210Y525020D02*
D03*
X262890D02*
D03*
X293848Y273608D02*
D03*
X313604Y273608D02*
D03*
X162560Y282700D02*
D03*
X265430Y70360D02*
D03*
X287020D02*
D03*
X262890Y506220D02*
D03*
X283210D02*
D03*
X293848Y254808D02*
D03*
X313604D02*
D03*
X162560Y301500D02*
D03*
D28*
X146050Y284600D02*
D03*
Y299600D02*
D03*
D35*
X87994Y404397D02*
D03*
X62594Y360403D02*
D03*
X75294Y382400D02*
D03*
X80079Y408967D02*
D03*
X54679Y364973D02*
D03*
X67379Y386970D02*
D03*
D49*
X121973Y105410D02*
G03*
X121920Y105410I-21J-4024D01*
G01*
X119299Y129302D02*
X123876Y132355D01*
X171344Y124327D02*
X172514Y121850D01*
X287010Y51550D02*
X287020Y51560D01*
X283210Y525020D02*
X283465Y524765D01*
X172514Y121850D02*
X177800Y114300D01*
X123876Y132355D02*
X131613Y137772D01*
X214880Y37850D02*
Y53340D01*
X198120D02*
X214880D01*
Y37850D02*
X224790Y27940D01*
X153670Y97790D02*
X198120Y53340D01*
X153670Y97790D02*
Y111368D01*
X224790Y27940D02*
X297180D01*
X112308Y105350D02*
X114419Y105350D01*
X78847Y153513D02*
X110513Y107145D01*
X112308Y105350D01*
X121973Y105410D02*
X139073Y105321D01*
X140660D01*
X114419Y105350D02*
X121920Y105410D01*
X78847Y153513D02*
Y155229D01*
X79302Y161845D01*
X80936Y163478D01*
X86115Y167105D01*
X90620Y170259D01*
X130810Y487680D02*
X139700Y478790D01*
X140660Y105321D02*
X150063Y111905D01*
X139700Y478790D02*
X172720D01*
X153670Y111368D02*
X155252Y112950D01*
X150063Y111905D02*
X155252Y112950D01*
X172720Y478790D02*
X198120Y504190D01*
X247650D01*
X248224Y504764D01*
X261434D01*
X285572Y182437D02*
Y191577D01*
X265430Y70360D02*
X287020D01*
X286640Y70740D02*
X287020Y70360D01*
X313604Y44364D02*
Y69850D01*
X297180Y27940D02*
X313604Y44364D01*
X287020Y70360D02*
X287530Y69850D01*
X313604D01*
X286260Y90170D02*
X286640Y89790D01*
X285572Y182437D02*
X287670Y180340D01*
X286640Y70740D02*
Y89790D01*
X313604Y69850D02*
Y180340D01*
X287670D02*
X313604D01*
Y254808D01*
X277370Y199780D02*
Y201930D01*
Y199780D02*
X285572Y191577D01*
X261434Y504764D02*
X262890Y506220D01*
X264341Y504769D01*
X281759D01*
X283210Y506220D01*
X285360D01*
X293848Y254808D02*
X313604D01*
X341168D02*
X351985Y265625D01*
X313604Y254808D02*
X341168D01*
X351985Y265625D02*
X367225D01*
X293370Y335280D02*
X323250Y305400D01*
X361070D01*
X285360Y506220D02*
X293370Y498210D01*
Y335280D02*
Y498210D01*
X375040Y273440D02*
Y291430D01*
X367225Y265625D02*
X375040Y273440D01*
X361070Y305400D02*
X375040Y291430D01*
X345440Y351187D02*
Y372991D01*
X353160Y343467D02*
X394397D01*
X345440Y351187D02*
X353160Y343467D01*
X394397D02*
X401320Y336544D01*
Y250190D02*
Y336544D01*
X333621Y384810D02*
X345440Y372991D01*
X322580Y384810D02*
X333621D01*
X393700Y242570D02*
X401320Y250190D01*
X373100Y242570D02*
X393700D01*
X361070Y254600D02*
X373100Y242570D01*
D50*
X218520Y96445D02*
D03*
X223520Y71195D02*
D03*
X228520D02*
D03*
X218520D02*
D03*
X228520Y96445D02*
D03*
X223520D02*
D03*
D51*
X256540Y138430D02*
D03*
X273050Y392310D02*
D03*
X258311Y408094D02*
D03*
X251460Y415290D02*
D03*
X258410Y153670D02*
D03*
X265430Y400050D02*
D03*
X268028Y162658D02*
D03*
X233680Y115570D02*
D03*
X214610Y115590D02*
D03*
X269240Y138430D02*
D03*
X219709Y460890D02*
D03*
X181609D02*
D03*
X200659Y434220D02*
D03*
X281939Y340240D02*
D03*
Y457080D02*
D03*
Y382150D02*
D03*
X237489Y378340D02*
D03*
X236219Y416440D02*
D03*
X143509Y460890D02*
D03*
X149859Y410090D02*
D03*
X167639Y384690D02*
D03*
X162559Y434220D02*
D03*
X195580Y86360D02*
D03*
X131613Y137772D02*
D03*
X254000Y91440D02*
D03*
X259080Y121920D02*
D03*
X128270Y66040D02*
D03*
X27239Y208998D02*
D03*
X281184Y137978D02*
D03*
X177800Y114300D02*
D03*
X297180Y524510D02*
D03*
X245110Y157480D02*
D03*
Y181610D02*
D03*
X289560Y162560D02*
D03*
X300990Y142240D02*
D03*
Y118110D02*
D03*
Y92710D02*
D03*
X248920Y44450D02*
D03*
X287020Y39370D02*
D03*
X224790Y82550D02*
D03*
X201930Y104140D02*
D03*
X299720Y198120D02*
D03*
X287020Y217170D02*
D03*
X299720Y236220D02*
D03*
X144780Y160020D02*
D03*
X133350Y184150D02*
D03*
X165100Y214630D02*
D03*
X266700Y12700D02*
D03*
X331470Y100330D02*
D03*
X210820Y283210D02*
D03*
X250190D02*
D03*
X230986Y264532D02*
D03*
X328930Y274320D02*
D03*
X346710Y280670D02*
D03*
X24999Y224880D02*
D03*
Y324880D02*
D03*
X37499Y349880D02*
D03*
X62499Y149880D02*
D03*
X49999Y174880D02*
D03*
Y224880D02*
D03*
Y324880D02*
D03*
X62499Y349880D02*
D03*
X87499Y99880D02*
D03*
X74999Y124880D02*
D03*
Y224880D02*
D03*
X87499Y249880D02*
D03*
X74999Y324880D02*
D03*
X87499Y349880D02*
D03*
X99999Y224880D02*
D03*
X112499Y249880D02*
D03*
X99999Y274880D02*
D03*
X112499Y299880D02*
D03*
X99999Y324880D02*
D03*
X112499Y349880D02*
D03*
Y449880D02*
D03*
X99999Y474880D02*
D03*
X137499Y249880D02*
D03*
X124999Y274880D02*
D03*
Y324880D02*
D03*
X137499Y349880D02*
D03*
X149999Y324880D02*
D03*
X162499Y499880D02*
D03*
X187499Y149880D02*
D03*
X174999Y174880D02*
D03*
X187499Y199880D02*
D03*
X199999Y24880D02*
D03*
X212499Y149880D02*
D03*
X199999Y174880D02*
D03*
X212499Y199880D02*
D03*
X199999Y524880D02*
D03*
X224999D02*
D03*
X281149Y308770D02*
D03*
X312499Y299880D02*
D03*
X309959Y468930D02*
D03*
X324999Y124880D02*
D03*
X337499Y149880D02*
D03*
X324999Y174880D02*
D03*
X337499Y199880D02*
D03*
X324999Y224880D02*
D03*
Y324880D02*
D03*
X337499Y399880D02*
D03*
Y449880D02*
D03*
X362499D02*
D03*
X374999Y24880D02*
D03*
X387499Y99880D02*
D03*
X374999Y374880D02*
D03*
X387499Y449880D02*
D03*
X412499Y49880D02*
D03*
X399999Y74880D02*
D03*
Y174880D02*
D03*
Y224880D02*
D03*
Y374880D02*
D03*
Y424880D02*
D03*
Y474880D02*
D03*
X412499Y499880D02*
D03*
X399999Y524880D02*
D03*
X437499Y499880D02*
D03*
X93979Y429140D02*
D03*
X104139Y392310D02*
D03*
X68579Y399930D02*
D03*
X118109Y370720D02*
D03*
X88899D02*
D03*
X57149Y377070D02*
D03*
X146049Y79890D02*
D03*
X154939Y50680D02*
D03*
X57149Y200540D02*
D03*
X185419Y46870D02*
D03*
X327659Y22740D02*
D03*
X400049Y140850D02*
D03*
X156209Y265310D02*
D03*
X273050Y430530D02*
D03*
X242570Y351790D02*
D03*
X306080Y352310D02*
D03*
X258486Y448310D02*
D03*
X247650Y119380D02*
D03*
X229870Y137160D02*
D03*
X251286Y457200D02*
D03*
X241084Y103174D02*
D03*
X251460Y73660D02*
D03*
X247650Y504190D02*
D03*
X255270Y258306D02*
D03*
X245110Y245110D02*
D03*
X265430Y439420D02*
D03*
D52*
X208395Y81320D02*
D03*
Y86320D02*
D03*
Y91320D02*
D03*
X238645D02*
D03*
Y86320D02*
D03*
X208395Y76320D02*
D03*
X238645D02*
D03*
Y81320D02*
D03*
D53*
X346710Y280670D02*
X360400D01*
X361070Y280000D01*
D54*
X163228Y282032D02*
X188736D01*
X162560Y282700D02*
X163228Y282032D01*
X146050Y299600D02*
X160660D01*
X162560Y301500D01*
D55*
X220180Y396240D02*
D03*
X195180D02*
D03*
X182680D02*
D03*
X120960Y479984D02*
D03*
X322580Y372310D02*
D03*
X207680Y396240D02*
D03*
X130810Y487680D02*
D03*
X322580Y384810D02*
D03*
D56*
X170180Y396240D02*
D03*
D57*
X73660Y441936D02*
D03*
D58*
X361070Y280000D02*
D03*
Y127600D02*
D03*
X386470D02*
D03*
X361070Y305400D02*
D03*
X386470Y381600D02*
D03*
Y356200D02*
D03*
Y407000D02*
D03*
X361070D02*
D03*
Y356200D02*
D03*
Y381600D02*
D03*
X386470Y153000D02*
D03*
Y178400D02*
D03*
X361070D02*
D03*
Y153000D02*
D03*
X386470Y229200D02*
D03*
Y305400D02*
D03*
Y254600D02*
D03*
Y280000D02*
D03*
X361070Y254600D02*
D03*
Y229200D02*
D03*
X60960Y419939D02*
D03*
X35560Y375944D02*
D03*
X48260Y397941D02*
D03*
D59*
X322580Y397310D02*
D03*
D60*
X140660Y495376D02*
D03*
D61*
X386470Y432400D02*
D03*
X361070D02*
D03*
X386470Y203800D02*
D03*
X361070D02*
D03*
X386470Y330800D02*
D03*
X361070D02*
D03*
D62*
X358374Y493574D02*
D03*
X52500Y280000D02*
D03*
X358370Y66426D02*
D03*
M02*
