G04*
G04 #@! TF.GenerationSoftware,Altium Limited,Altium Designer,25.8.1 (18)*
G04*
G04 Layer_Color=128*
%FSLAX44Y44*%
%MOMM*%
G71*
G04*
G04 #@! TF.SameCoordinates,39AAA382-7428-4F97-BBA3-EFEDAE657E92*
G04*
G04*
G04 #@! TF.FilePolarity,Positive*
G04*
G01*
G75*
%ADD67C,0.0508*%
D67*
X217680Y396240D02*
X222680D01*
X220180Y393740D02*
Y398740D01*
X192680Y396240D02*
X197680D01*
X195180Y393740D02*
Y398740D01*
X180180Y396240D02*
X185180D01*
X182680Y393740D02*
Y398740D01*
X118460Y479984D02*
X123460D01*
X120960Y477484D02*
Y482484D01*
X167680Y396240D02*
X172680D01*
X170180Y393740D02*
Y398740D01*
X68560Y441936D02*
X78760D01*
X73660Y436836D02*
Y447036D01*
X355970Y280000D02*
X366170D01*
X361070Y274900D02*
Y285100D01*
X320080Y397310D02*
X325080D01*
X322580Y394810D02*
Y399810D01*
X138160Y495376D02*
X143160D01*
X140660Y492876D02*
Y497876D01*
X355970Y127600D02*
X366170D01*
X361070Y122500D02*
Y132700D01*
X381370Y127600D02*
X391570D01*
X386470Y122500D02*
Y132700D01*
X320080Y372310D02*
X325080D01*
X322580Y369810D02*
Y374810D01*
X205180Y396240D02*
X210180D01*
X207680Y393740D02*
Y398740D01*
X128310Y487680D02*
X133310D01*
X130810Y485180D02*
Y490180D01*
X355970Y305400D02*
X366170D01*
X361070Y300300D02*
Y310500D01*
X381370Y432400D02*
X391570D01*
X386470Y427300D02*
Y437500D01*
X381370Y381600D02*
X391570D01*
X386470Y376500D02*
Y386700D01*
X381370Y356200D02*
X391570D01*
X386470Y351100D02*
Y361300D01*
X381370Y407000D02*
X391570D01*
X386470Y401900D02*
Y412100D01*
X355970Y407000D02*
X366170D01*
X361070Y401900D02*
Y412100D01*
X355970Y356200D02*
X366170D01*
X361070Y351100D02*
Y361300D01*
X355970Y381600D02*
X366170D01*
X361070Y376500D02*
Y386700D01*
X355970Y432400D02*
X366170D01*
X361070Y427300D02*
Y437500D01*
X381370Y203800D02*
X391570D01*
X386470Y198700D02*
Y208900D01*
X381370Y153000D02*
X391570D01*
X386470Y147900D02*
Y158100D01*
X381370Y178400D02*
X391570D01*
X386470Y173300D02*
Y183500D01*
X355970Y178400D02*
X366170D01*
X361070Y173300D02*
Y183500D01*
X355970Y153000D02*
X366170D01*
X361070Y147900D02*
Y158100D01*
X355970Y203800D02*
X366170D01*
X361070Y198700D02*
Y208900D01*
X381370Y229200D02*
X391570D01*
X386470Y224100D02*
Y234300D01*
X381370Y305400D02*
X391570D01*
X386470Y300300D02*
Y310500D01*
X381370Y254600D02*
X391570D01*
X386470Y249500D02*
Y259700D01*
X381370Y280000D02*
X391570D01*
X386470Y274900D02*
Y285100D01*
X381370Y330800D02*
X391570D01*
X386470Y325700D02*
Y335900D01*
X355970Y330800D02*
X366170D01*
X361070Y325700D02*
Y335900D01*
X355970Y254600D02*
X366170D01*
X361070Y249500D02*
Y259700D01*
X355970Y229200D02*
X366170D01*
X361070Y224100D02*
Y234300D01*
X335874Y493574D02*
X380874D01*
X358374Y471074D02*
Y516074D01*
X320080Y384810D02*
X325080D01*
X322580Y382310D02*
Y387310D01*
X55860Y419939D02*
X66060D01*
X60960Y414838D02*
Y425038D01*
X30460Y375944D02*
X40660D01*
X35560Y370844D02*
Y381044D01*
X43160Y397941D02*
X53360D01*
X48260Y392841D02*
Y403041D01*
X30000Y280000D02*
X75000D01*
X52500Y257500D02*
Y302500D01*
X335870Y66426D02*
X380870D01*
X358370Y43926D02*
Y88926D01*
X266028Y162658D02*
X270028D01*
X268028Y160658D02*
Y164658D01*
X231680Y115570D02*
X235680D01*
X233680Y113570D02*
Y117570D01*
X212610Y115590D02*
X216610D01*
X214610Y113590D02*
Y117590D01*
X267240Y138430D02*
X271240D01*
X269240Y136430D02*
Y140430D01*
X217709Y460890D02*
X221709D01*
X219709Y458890D02*
Y462890D01*
X179609Y460890D02*
X183609D01*
X181609Y458890D02*
Y462890D01*
X198659Y434220D02*
X202659D01*
X200659Y432220D02*
Y436220D01*
X279939Y340240D02*
X283939D01*
X281939Y338240D02*
Y342240D01*
X279939Y457080D02*
X283939D01*
X281939Y455080D02*
Y459080D01*
X279939Y382150D02*
X283939D01*
X281939Y380150D02*
Y384150D01*
X235489Y378340D02*
X239489D01*
X237489Y376340D02*
Y380340D01*
X234219Y416440D02*
X238219D01*
X236219Y414440D02*
Y418440D01*
X141509Y460890D02*
X145509D01*
X143509Y458890D02*
Y462890D01*
X147859Y410090D02*
X151859D01*
X149859Y408090D02*
Y412090D01*
X165639Y384690D02*
X169639D01*
X167639Y382690D02*
Y386690D01*
X160559Y434220D02*
X164559D01*
X162559Y432220D02*
Y436220D01*
X193580Y86360D02*
X197580D01*
X195580Y84360D02*
Y88360D01*
X129613Y137772D02*
X133613D01*
X131613Y135772D02*
Y139772D01*
X252000Y91440D02*
X256000D01*
X254000Y89440D02*
Y93440D01*
X257080Y121920D02*
X261080D01*
X259080Y119920D02*
Y123920D01*
X126270Y66040D02*
X130270D01*
X128270Y64040D02*
Y68040D01*
X25239Y208998D02*
X29239D01*
X27239Y206998D02*
Y210998D01*
X279184Y137978D02*
X283184D01*
X281184Y135978D02*
Y139978D01*
X175800Y114300D02*
X179800D01*
X177800Y112300D02*
Y116300D01*
X295180Y524510D02*
X299180D01*
X297180Y522510D02*
Y526510D01*
X243110Y157480D02*
X247110D01*
X245110Y155480D02*
Y159480D01*
X243110Y181610D02*
X247110D01*
X245110Y179610D02*
Y183610D01*
X287560Y162560D02*
X291560D01*
X289560Y160560D02*
Y164560D01*
X298990Y142240D02*
X302990D01*
X300990Y140240D02*
Y144240D01*
X298990Y118110D02*
X302990D01*
X300990Y116110D02*
Y120110D01*
X298990Y92710D02*
X302990D01*
X300990Y90710D02*
Y94710D01*
X246920Y44450D02*
X250920D01*
X248920Y42450D02*
Y46450D01*
X285020Y39370D02*
X289020D01*
X287020Y37370D02*
Y41370D01*
X222790Y82550D02*
X226790D01*
X224790Y80550D02*
Y84550D01*
X199930Y104140D02*
X203930D01*
X201930Y102140D02*
Y106140D01*
X297720Y198120D02*
X301720D01*
X299720Y196120D02*
Y200120D01*
X285020Y217170D02*
X289020D01*
X287020Y215170D02*
Y219170D01*
X297720Y236220D02*
X301720D01*
X299720Y234220D02*
Y238220D01*
X142780Y160020D02*
X146780D01*
X144780Y158020D02*
Y162020D01*
X131350Y184150D02*
X135350D01*
X133350Y182150D02*
Y186150D01*
X163100Y214630D02*
X167100D01*
X165100Y212630D02*
Y216630D01*
X264700Y12700D02*
X268700D01*
X266700Y10700D02*
Y14700D01*
X329470Y100330D02*
X333470D01*
X331470Y98330D02*
Y102330D01*
X208820Y283210D02*
X212820D01*
X210820Y281210D02*
Y285210D01*
X248190Y283210D02*
X252190D01*
X250190Y281210D02*
Y285210D01*
X228986Y264532D02*
X232986D01*
X230986Y262532D02*
Y266532D01*
X326930Y274320D02*
X330930D01*
X328930Y272320D02*
Y276320D01*
X344710Y280670D02*
X348710D01*
X346710Y278670D02*
Y282670D01*
X22999Y224880D02*
X26999D01*
X24999Y222880D02*
Y226880D01*
X22999Y324880D02*
X26999D01*
X24999Y322880D02*
Y326880D01*
X35499Y349880D02*
X39499D01*
X37499Y347880D02*
Y351880D01*
X60499Y149880D02*
X64499D01*
X62499Y147880D02*
Y151880D01*
X47999Y174880D02*
X51999D01*
X49999Y172880D02*
Y176880D01*
X47999Y224880D02*
X51999D01*
X49999Y222880D02*
Y226880D01*
X47999Y324880D02*
X51999D01*
X49999Y322880D02*
Y326880D01*
X60499Y349880D02*
X64499D01*
X62499Y347880D02*
Y351880D01*
X85499Y99880D02*
X89499D01*
X87499Y97880D02*
Y101880D01*
X72999Y124880D02*
X76999D01*
X74999Y122880D02*
Y126880D01*
X72999Y224880D02*
X76999D01*
X74999Y222880D02*
Y226880D01*
X85499Y249880D02*
X89499D01*
X87499Y247880D02*
Y251880D01*
X72999Y324880D02*
X76999D01*
X74999Y322880D02*
Y326880D01*
X85499Y349880D02*
X89499D01*
X87499Y347880D02*
Y351880D01*
X97999Y224880D02*
X101999D01*
X99999Y222880D02*
Y226880D01*
X110499Y249880D02*
X114499D01*
X112499Y247880D02*
Y251880D01*
X97999Y274880D02*
X101999D01*
X99999Y272880D02*
Y276880D01*
X110499Y299880D02*
X114499D01*
X112499Y297880D02*
Y301880D01*
X97999Y324880D02*
X101999D01*
X99999Y322880D02*
Y326880D01*
X110499Y349880D02*
X114499D01*
X112499Y347880D02*
Y351880D01*
X110499Y449880D02*
X114499D01*
X112499Y447880D02*
Y451880D01*
X97999Y474880D02*
X101999D01*
X99999Y472880D02*
Y476880D01*
X135499Y249880D02*
X139499D01*
X137499Y247880D02*
Y251880D01*
X122999Y274880D02*
X126999D01*
X124999Y272880D02*
Y276880D01*
X122999Y324880D02*
X126999D01*
X124999Y322880D02*
Y326880D01*
X135499Y349880D02*
X139499D01*
X137499Y347880D02*
Y351880D01*
X147999Y324880D02*
X151999D01*
X149999Y322880D02*
Y326880D01*
X160499Y499880D02*
X164499D01*
X162499Y497880D02*
Y501880D01*
X185499Y149880D02*
X189499D01*
X187499Y147880D02*
Y151880D01*
X172999Y174880D02*
X176999D01*
X174999Y172880D02*
Y176880D01*
X185499Y199880D02*
X189499D01*
X187499Y197880D02*
Y201880D01*
X197999Y24880D02*
X201999D01*
X199999Y22880D02*
Y26880D01*
X210499Y149880D02*
X214499D01*
X212499Y147880D02*
Y151880D01*
X197999Y174880D02*
X201999D01*
X199999Y172880D02*
Y176880D01*
X210499Y199880D02*
X214499D01*
X212499Y197880D02*
Y201880D01*
X197999Y524880D02*
X201999D01*
X199999Y522880D02*
Y526880D01*
X222999Y524880D02*
X226999D01*
X224999Y522880D02*
Y526880D01*
X279149Y308770D02*
X283149D01*
X281149Y306770D02*
Y310770D01*
X310499Y299880D02*
X314499D01*
X312499Y297880D02*
Y301880D01*
X307959Y468930D02*
X311959D01*
X309959Y466930D02*
Y470930D01*
X322999Y124880D02*
X326999D01*
X324999Y122880D02*
Y126880D01*
X335499Y149880D02*
X339499D01*
X337499Y147880D02*
Y151880D01*
X322999Y174880D02*
X326999D01*
X324999Y172880D02*
Y176880D01*
X335499Y199880D02*
X339499D01*
X337499Y197880D02*
Y201880D01*
X322999Y224880D02*
X326999D01*
X324999Y222880D02*
Y226880D01*
X322999Y324880D02*
X326999D01*
X324999Y322880D02*
Y326880D01*
X335499Y399880D02*
X339499D01*
X337499Y397880D02*
Y401880D01*
X335499Y449880D02*
X339499D01*
X337499Y447880D02*
Y451880D01*
X360499Y449880D02*
X364499D01*
X362499Y447880D02*
Y451880D01*
X372999Y24880D02*
X376999D01*
X374999Y22880D02*
Y26880D01*
X385499Y99880D02*
X389499D01*
X387499Y97880D02*
Y101880D01*
X372999Y374880D02*
X376999D01*
X374999Y372880D02*
Y376880D01*
X385499Y449880D02*
X389499D01*
X387499Y447880D02*
Y451880D01*
X410499Y49880D02*
X414499D01*
X412499Y47880D02*
Y51880D01*
X397999Y74880D02*
X401999D01*
X399999Y72880D02*
Y76880D01*
X397999Y174880D02*
X401999D01*
X399999Y172880D02*
Y176880D01*
X397999Y224880D02*
X401999D01*
X399999Y222880D02*
Y226880D01*
X397999Y374880D02*
X401999D01*
X399999Y372880D02*
Y376880D01*
X397999Y424880D02*
X401999D01*
X399999Y422880D02*
Y426880D01*
X397999Y474880D02*
X401999D01*
X399999Y472880D02*
Y476880D01*
X410499Y499880D02*
X414499D01*
X412499Y497880D02*
Y501880D01*
X397999Y524880D02*
X401999D01*
X399999Y522880D02*
Y526880D01*
X435499Y499880D02*
X439499D01*
X437499Y497880D02*
Y501880D01*
X91979Y429140D02*
X95979D01*
X93979Y427140D02*
Y431140D01*
X102139Y392310D02*
X106139D01*
X104139Y390310D02*
Y394310D01*
X66579Y399930D02*
X70579D01*
X68579Y397930D02*
Y401930D01*
X116109Y370720D02*
X120109D01*
X118109Y368720D02*
Y372720D01*
X86899Y370720D02*
X90899D01*
X88899Y368720D02*
Y372720D01*
X55149Y377070D02*
X59149D01*
X57149Y375070D02*
Y379070D01*
X144049Y79890D02*
X148049D01*
X146049Y77890D02*
Y81890D01*
X152939Y50680D02*
X156939D01*
X154939Y48680D02*
Y52680D01*
X55149Y200540D02*
X59149D01*
X57149Y198540D02*
Y202540D01*
X183419Y46870D02*
X187419D01*
X185419Y44870D02*
Y48870D01*
X325659Y22740D02*
X329659D01*
X327659Y20740D02*
Y24740D01*
X398049Y140850D02*
X402049D01*
X400049Y138850D02*
Y142850D01*
X154209Y265310D02*
X158209D01*
X156209Y263310D02*
Y267310D01*
X271050Y430530D02*
X275050D01*
X273050Y428530D02*
Y432530D01*
X240570Y351790D02*
X244570D01*
X242570Y349790D02*
Y353790D01*
X304080Y352310D02*
X308080D01*
X306080Y350310D02*
Y354310D01*
X256486Y448310D02*
X260486D01*
X258486Y446310D02*
Y450310D01*
X245650Y119380D02*
X249650D01*
X247650Y117380D02*
Y121380D01*
X227870Y137160D02*
X231870D01*
X229870Y135160D02*
Y139160D01*
X249286Y457200D02*
X253286D01*
X251286Y455200D02*
Y459200D01*
X239084Y103174D02*
X243085D01*
X241084Y101174D02*
Y105174D01*
X249460Y73660D02*
X253460D01*
X251460Y71660D02*
Y75660D01*
X245650Y504190D02*
X249650D01*
X247650Y502190D02*
Y506190D01*
X253270Y258306D02*
X257270D01*
X255270Y256306D02*
Y260306D01*
X243110Y245110D02*
X247110D01*
X245110Y243110D02*
Y247110D01*
X263430Y439420D02*
X267430D01*
X265430Y437420D02*
Y441420D01*
M02*
