G04*
G04 #@! TF.GenerationSoftware,Altium Limited,Altium Designer,25.8.1 (18)*
G04*
G04 Layer_Color=8388736*
%FSLAX44Y44*%
%MOMM*%
G71*
G04*
G04 #@! TF.SameCoordinates,39AAA382-7428-4F97-BBA3-EFEDAE657E92*
G04*
G04*
G04 #@! TF.FilePolarity,Negative*
G04*
G01*
G75*
%ADD22R,0.2540X0.2794*%
%ADD26R,0.2794X0.2540*%
%ADD29O,0.4016X1.5516*%
%ADD30O,1.5516X0.4016*%
%ADD31R,1.1416X1.5716*%
%ADD32R,0.3500X1.2750*%
%ADD33C,0.9016*%
G04:AMPARAMS|DCode=34|XSize=0.9016mm|YSize=1.7016mm|CornerRadius=0mm|HoleSize=0mm|Usage=FLASHONLY|Rotation=305.000|XOffset=0mm|YOffset=0mm|HoleType=Round|Shape=Rectangle|*
%AMROTATEDRECTD34*
4,1,4,-0.9555,-0.1187,0.4384,0.8573,0.9555,0.1187,-0.4384,-0.8573,-0.9555,-0.1187,0.0*
%
%ADD34ROTATEDRECTD34*%

G04:AMPARAMS|DCode=35|XSize=0.44mm|YSize=0.6mm|CornerRadius=0mm|HoleSize=0mm|Usage=FLASHONLY|Rotation=150.000|XOffset=0mm|YOffset=0mm|HoleType=Round|Shape=Rectangle|*
%AMROTATEDRECTD35*
4,1,4,0.3405,0.1498,0.0405,-0.3698,-0.3405,-0.1498,-0.0405,0.3698,0.3405,0.1498,0.0*
%
%ADD35ROTATEDRECTD35*%

%ADD36R,1.2750X0.3500*%
G04:AMPARAMS|DCode=37|XSize=2.2016mm|YSize=3.1016mm|CornerRadius=0mm|HoleSize=0mm|Usage=FLASHONLY|Rotation=305.000|XOffset=0mm|YOffset=0mm|HoleType=Round|Shape=Rectangle|*
%AMROTATEDRECTD37*
4,1,4,-1.9017,0.0122,0.6390,1.7912,1.9017,-0.0122,-0.6390,-1.7912,-1.9017,0.0122,0.0*
%
%ADD37ROTATEDRECTD37*%

G04:AMPARAMS|DCode=38|XSize=1.1416mm|YSize=1.5716mm|CornerRadius=0mm|HoleSize=0mm|Usage=FLASHONLY|Rotation=125.000|XOffset=0mm|YOffset=0mm|HoleType=Round|Shape=Rectangle|*
%AMROTATEDRECTD38*
4,1,4,0.9711,-0.0169,-0.3163,-0.9183,-0.9711,0.0169,0.3163,0.9183,0.9711,-0.0169,0.0*
%
%ADD38ROTATEDRECTD38*%

%ADD39R,1.5716X1.1416*%
%ADD40R,0.9016X0.9016*%
%ADD41C,1.1016*%
%ADD42R,1.1016X1.1016*%
%ADD43P,2.0812X4X285.0*%
%ADD44C,1.4716*%
%ADD45R,1.1016X1.1016*%
%ADD46P,1.5579X4X83.0*%
%ADD47R,1.4716X1.4716*%
%ADD48C,7.1016*%
G36*
X64100Y362998D02*
X61102Y357801D01*
X59190Y358904D01*
X53322Y362292D01*
X56322Y367488D01*
X64100Y362998D01*
D02*
G37*
G36*
X76800Y384995D02*
X73802Y379798D01*
X71890Y380901D01*
X66022Y384289D01*
X69022Y389485D01*
X76800Y384995D01*
D02*
G37*
G36*
X89500Y406992D02*
X86502Y401795D01*
X84590Y402899D01*
X78722Y406286D01*
X81722Y411482D01*
X89500Y406992D01*
D02*
G37*
D22*
X276860Y123444D02*
D03*
X271860D02*
D03*
Y107696D02*
D03*
X276860D02*
D03*
X281860Y123444D02*
D03*
Y107696D02*
D03*
D26*
X268986Y118070D02*
D03*
Y113070D02*
D03*
X284734D02*
D03*
Y118070D02*
D03*
D29*
X258486Y222282D02*
D03*
X253486D02*
D03*
X248486D02*
D03*
X243486D02*
D03*
X238486D02*
D03*
X233486D02*
D03*
X228486D02*
D03*
X223486D02*
D03*
X218486D02*
D03*
X213486D02*
D03*
X208486D02*
D03*
X203486D02*
D03*
Y306782D02*
D03*
X208486D02*
D03*
X213486D02*
D03*
X218486D02*
D03*
X223486D02*
D03*
X228486D02*
D03*
X233486D02*
D03*
X238486D02*
D03*
X243486D02*
D03*
X248486D02*
D03*
X253486D02*
D03*
X258486D02*
D03*
D30*
X188736Y237032D02*
D03*
Y242032D02*
D03*
Y247032D02*
D03*
Y252032D02*
D03*
Y257032D02*
D03*
Y262032D02*
D03*
Y267032D02*
D03*
Y272032D02*
D03*
Y277032D02*
D03*
Y282032D02*
D03*
Y287032D02*
D03*
Y292032D02*
D03*
X273236D02*
D03*
Y287032D02*
D03*
Y282032D02*
D03*
Y277032D02*
D03*
Y272032D02*
D03*
Y257032D02*
D03*
Y252032D02*
D03*
Y247032D02*
D03*
Y242032D02*
D03*
Y237032D02*
D03*
Y267032D02*
D03*
Y262032D02*
D03*
D31*
X268048Y181161D02*
D03*
X233680Y53340D02*
D03*
X267460Y90170D02*
D03*
X214880Y53340D02*
D03*
X286260Y90170D02*
D03*
X286848Y181161D02*
D03*
X277370Y201930D02*
D03*
X258570D02*
D03*
D32*
X218520Y96445D02*
D03*
X223520Y71195D02*
D03*
X228520D02*
D03*
X218520D02*
D03*
X228520Y96445D02*
D03*
X223520D02*
D03*
D33*
X256540Y138430D02*
D03*
X273050Y392310D02*
D03*
X258311Y408094D02*
D03*
X251460Y415290D02*
D03*
X258410Y153670D02*
D03*
X265430Y400050D02*
D03*
D34*
X112129Y139541D02*
D03*
X97790Y160020D02*
D03*
X119299Y129302D02*
D03*
X83451Y180499D02*
D03*
X104960Y149781D02*
D03*
X90620Y170259D02*
D03*
X126469Y119062D02*
D03*
X76281Y190738D02*
D03*
D35*
X87994Y404397D02*
D03*
X62594Y360403D02*
D03*
X75294Y382400D02*
D03*
X80079Y408967D02*
D03*
X54679Y364973D02*
D03*
X67379Y386970D02*
D03*
D36*
X208395Y81320D02*
D03*
Y86320D02*
D03*
Y91320D02*
D03*
X238645D02*
D03*
Y86320D02*
D03*
X208395Y76320D02*
D03*
X238645D02*
D03*
Y81320D02*
D03*
D37*
X117225Y81704D02*
D03*
X37899Y194993D02*
D03*
D38*
X171344Y124327D02*
D03*
X155252Y112950D02*
D03*
X144468Y128350D02*
D03*
X160561Y139727D02*
D03*
D39*
X287020Y51560D02*
D03*
X265430D02*
D03*
X283210Y525020D02*
D03*
X262890D02*
D03*
X293848Y273608D02*
D03*
X313604Y273608D02*
D03*
X162560Y282700D02*
D03*
X265430Y70360D02*
D03*
X287020D02*
D03*
X262890Y506220D02*
D03*
X283210D02*
D03*
X293848Y254808D02*
D03*
X313604D02*
D03*
X162560Y301500D02*
D03*
D40*
X146050Y284600D02*
D03*
Y299600D02*
D03*
D41*
X220180Y396240D02*
D03*
X195180D02*
D03*
X182680D02*
D03*
X120960Y479984D02*
D03*
X322580Y372310D02*
D03*
X207680Y396240D02*
D03*
X130810Y487680D02*
D03*
X322580Y384810D02*
D03*
D42*
X170180Y396240D02*
D03*
D43*
X73660Y441936D02*
D03*
D44*
X361070Y280000D02*
D03*
Y127600D02*
D03*
X386470D02*
D03*
X361070Y305400D02*
D03*
X386470Y381600D02*
D03*
Y356200D02*
D03*
Y407000D02*
D03*
X361070D02*
D03*
Y356200D02*
D03*
Y381600D02*
D03*
X386470Y153000D02*
D03*
Y178400D02*
D03*
X361070D02*
D03*
Y153000D02*
D03*
X386470Y229200D02*
D03*
Y305400D02*
D03*
Y254600D02*
D03*
Y280000D02*
D03*
X361070Y254600D02*
D03*
Y229200D02*
D03*
X60960Y419939D02*
D03*
X35560Y375944D02*
D03*
X48260Y397941D02*
D03*
D45*
X322580Y397310D02*
D03*
D46*
X140660Y495376D02*
D03*
D47*
X386470Y432400D02*
D03*
X361070D02*
D03*
X386470Y203800D02*
D03*
X361070D02*
D03*
X386470Y330800D02*
D03*
X361070D02*
D03*
D48*
X358374Y493574D02*
D03*
X52500Y280000D02*
D03*
X358370Y66426D02*
D03*
M02*
