G04*
G04 #@! TF.GenerationSoftware,Altium Limited,Altium Designer,25.8.1 (18)*
G04*
G04 Layer_Color=65535*
%FSLAX44Y44*%
%MOMM*%
G71*
G04*
G04 #@! TF.SameCoordinates,39AAA382-7428-4F97-BBA3-EFEDAE657E92*
G04*
G04*
G04 #@! TF.FilePolarity,Positive*
G04*
G01*
G75*
%ADD10C,0.6000*%
%ADD11C,0.2500*%
%ADD12C,0.1000*%
%ADD13C,0.2000*%
%ADD14C,0.1270*%
%ADD15C,0.1524*%
%ADD16C,0.1100*%
%ADD17C,0.1500*%
%ADD18C,0.1250*%
G36*
X288544Y111125D02*
Y114935D01*
X291084D01*
Y111125D01*
X288544D01*
D02*
G37*
G36*
X138953Y189768D02*
X139212Y189730D01*
X139416Y189675D01*
X139582Y189619D01*
X139693Y189564D01*
X139786Y189508D01*
X139823Y189471D01*
X139842Y189453D01*
X139953Y189323D01*
X140027Y189194D01*
X140101Y189045D01*
X140138Y188916D01*
X140156Y188805D01*
X140175Y188712D01*
Y188657D01*
Y188638D01*
X140156Y188453D01*
X140119Y188305D01*
X140064Y188157D01*
X139990Y188046D01*
X139916Y187953D01*
X139860Y187879D01*
X139823Y187842D01*
X139805Y187823D01*
X139638Y187731D01*
X139453Y187657D01*
X139231Y187601D01*
X139027Y187564D01*
X138842Y187546D01*
X138675Y187527D01*
X137768D01*
Y189786D01*
X138657D01*
X138953Y189768D01*
D02*
G37*
G36*
Y177424D02*
X139212Y177387D01*
X139416Y177332D01*
X139582Y177276D01*
X139693Y177221D01*
X139786Y177165D01*
X139823Y177128D01*
X139842Y177110D01*
X139953Y176980D01*
X140027Y176850D01*
X140101Y176702D01*
X140138Y176573D01*
X140156Y176462D01*
X140175Y176369D01*
Y176313D01*
Y176295D01*
X140156Y176110D01*
X140119Y175962D01*
X140064Y175814D01*
X139990Y175702D01*
X139916Y175610D01*
X139860Y175536D01*
X139823Y175499D01*
X139805Y175480D01*
X139638Y175388D01*
X139453Y175313D01*
X139231Y175258D01*
X139027Y175221D01*
X138842Y175202D01*
X138675Y175184D01*
X137768D01*
Y177443D01*
X138657D01*
X138953Y177424D01*
D02*
G37*
G36*
X243281Y181528D02*
Y166370D01*
X160932D01*
X161284Y166388D01*
X161599Y166425D01*
X161858Y166481D01*
X162062Y166555D01*
X162228Y166629D01*
X162358Y166685D01*
X162432Y166722D01*
X162450Y166740D01*
X162636Y166889D01*
X162802Y167037D01*
X162913Y167185D01*
X163025Y167333D01*
X163099Y167463D01*
X163154Y167574D01*
X163191Y167648D01*
Y167666D01*
X163228Y167777D01*
X163265Y167907D01*
X163302Y168203D01*
X163339Y168518D01*
X163376Y168833D01*
Y169111D01*
X163395Y169240D01*
Y176702D01*
X160562D01*
Y169814D01*
Y169573D01*
X160525Y169351D01*
X160506Y169184D01*
X160469Y169055D01*
X160432Y168962D01*
X160395Y168907D01*
X160377Y168870D01*
X160358Y168851D01*
X160284Y168759D01*
X160191Y168703D01*
X160025Y168629D01*
X159951Y168610D01*
X159877Y168592D01*
X159821D01*
X159673Y168610D01*
X159525Y168629D01*
X159451Y168647D01*
X159395D01*
X159358Y168666D01*
X159340D01*
X158914Y166629D01*
X159340Y166537D01*
X159728Y166481D01*
X160080Y166425D01*
X160377Y166407D01*
X160617Y166388D01*
X160784Y166370D01*
X134620D01*
Y169351D01*
X137768D01*
Y173129D01*
X139471D01*
X139823Y173147D01*
X140138Y173166D01*
X140434Y173203D01*
X140712Y173258D01*
X140971Y173332D01*
X141212Y173406D01*
X141416Y173480D01*
X141601Y173554D01*
X141767Y173629D01*
X141916Y173703D01*
X142027Y173777D01*
X142138Y173851D01*
X142212Y173906D01*
X142267Y173943D01*
X142286Y173980D01*
X142304D01*
X142471Y174147D01*
X142619Y174332D01*
X142730Y174517D01*
X142841Y174721D01*
X143008Y175128D01*
X143119Y175517D01*
X143175Y175851D01*
X143212Y175999D01*
Y176128D01*
X143230Y176239D01*
Y176665D01*
X143193Y176906D01*
X143101Y177369D01*
X142952Y177758D01*
X142804Y178091D01*
X142656Y178350D01*
X142508Y178535D01*
X142452Y178591D01*
X142416Y178647D01*
X142397Y178683D01*
X142379D01*
X142212Y178832D01*
X142027Y178961D01*
X141619Y179146D01*
X141193Y179295D01*
X140786Y179406D01*
X140416Y179461D01*
X140249Y179480D01*
X140101D01*
X139990Y179498D01*
X134620D01*
Y181528D01*
Y181694D01*
X137768D01*
Y185472D01*
X139471D01*
X139823Y185490D01*
X140138Y185509D01*
X140434Y185546D01*
X140712Y185601D01*
X140971Y185675D01*
X141212Y185749D01*
X141416Y185823D01*
X141601Y185898D01*
X141767Y185972D01*
X141916Y186046D01*
X142027Y186120D01*
X142138Y186194D01*
X142212Y186249D01*
X142267Y186286D01*
X142286Y186324D01*
X142304D01*
X142471Y186490D01*
X142619Y186675D01*
X142730Y186861D01*
X142841Y187064D01*
X143008Y187472D01*
X143119Y187860D01*
X143175Y188194D01*
X143212Y188342D01*
Y188471D01*
X143230Y188582D01*
Y189008D01*
X143193Y189249D01*
X143101Y189712D01*
X142952Y190101D01*
X142804Y190434D01*
X142656Y190693D01*
X142508Y190879D01*
X142452Y190934D01*
X142416Y190990D01*
X142397Y191027D01*
X142379D01*
X142212Y191175D01*
X142027Y191304D01*
X141619Y191490D01*
X141193Y191638D01*
X140786Y191749D01*
X140416Y191804D01*
X140249Y191823D01*
X140101D01*
X139990Y191841D01*
X134620D01*
Y194310D01*
X243281D01*
Y181528D01*
D02*
G37*
%LPC*%
G36*
X149211Y192008D02*
X149026D01*
X148470Y191990D01*
X147971Y191952D01*
X147545Y191879D01*
X147341Y191841D01*
X147174Y191804D01*
X147026Y191767D01*
X146896Y191730D01*
X146785Y191693D01*
X146693Y191656D01*
X146619Y191638D01*
X146563Y191619D01*
X146545Y191601D01*
X146526D01*
X146211Y191434D01*
X145934Y191267D01*
X145693Y191082D01*
X145508Y190916D01*
X145360Y190749D01*
X145248Y190619D01*
X145175Y190545D01*
X145156Y190508D01*
X145008Y190249D01*
X144897Y189990D01*
X144823Y189730D01*
X144767Y189508D01*
X144730Y189323D01*
X144712Y189156D01*
Y189064D01*
Y189045D01*
Y189027D01*
X144730Y188805D01*
X144749Y188601D01*
X144841Y188231D01*
X144989Y187897D01*
X145156Y187620D01*
X145304Y187379D01*
X145452Y187212D01*
X145545Y187120D01*
X145582Y187101D01*
Y187083D01*
X145767Y186935D01*
X145971Y186805D01*
X146415Y186564D01*
X146896Y186360D01*
X147396Y186175D01*
X147619Y186101D01*
X147822Y186046D01*
X148026Y185990D01*
X148193Y185935D01*
X148322Y185916D01*
X148433Y185879D01*
X148507Y185861D01*
X148526D01*
X148748Y185805D01*
X148952Y185749D01*
X149137Y185712D01*
X149304Y185657D01*
X149581Y185546D01*
X149804Y185453D01*
X149952Y185379D01*
X150063Y185324D01*
X150118Y185287D01*
X150137Y185268D01*
X150248Y185157D01*
X150341Y185027D01*
X150396Y184916D01*
X150452Y184805D01*
X150470Y184713D01*
X150489Y184639D01*
Y184583D01*
Y184564D01*
X150470Y184416D01*
X150433Y184268D01*
X150378Y184139D01*
X150304Y184027D01*
X150230Y183953D01*
X150174Y183879D01*
X150137Y183842D01*
X150118Y183824D01*
X149970Y183731D01*
X149804Y183657D01*
X149637Y183601D01*
X149470Y183564D01*
X149304Y183546D01*
X149193Y183528D01*
X149081D01*
X148767Y183546D01*
X148489Y183620D01*
X148248Y183713D01*
X148045Y183842D01*
X147896Y183953D01*
X147785Y184046D01*
X147711Y184120D01*
X147693Y184139D01*
X147600Y184287D01*
X147508Y184472D01*
X147396Y184842D01*
X147341Y184990D01*
X147322Y185120D01*
X147304Y185212D01*
Y185250D01*
X144323Y185046D01*
X144360Y184768D01*
X144415Y184490D01*
X144545Y184009D01*
X144730Y183564D01*
X144934Y183194D01*
X145026Y183046D01*
X145119Y182898D01*
X145211Y182787D01*
X145286Y182694D01*
X145341Y182620D01*
X145397Y182565D01*
X145415Y182528D01*
X145434Y182509D01*
X145637Y182342D01*
X145878Y182194D01*
X146137Y182046D01*
X146415Y181935D01*
X147008Y181768D01*
X147600Y181657D01*
X147896Y181602D01*
X148156Y181583D01*
X148396Y181565D01*
X148600Y181546D01*
X148785Y181528D01*
X149026D01*
X149563Y181546D01*
X150026Y181583D01*
X150452Y181657D01*
X150803Y181731D01*
X150952Y181768D01*
X151081Y181805D01*
X151211Y181842D01*
X151304Y181880D01*
X151377Y181898D01*
X151433Y181917D01*
X151452Y181935D01*
X151470D01*
X151822Y182120D01*
X152118Y182305D01*
X152377Y182509D01*
X152600Y182713D01*
X152766Y182898D01*
X152896Y183046D01*
X152970Y183139D01*
X152989Y183176D01*
X153174Y183490D01*
X153303Y183805D01*
X153414Y184120D01*
X153470Y184398D01*
X153507Y184639D01*
X153544Y184824D01*
Y184990D01*
X153525Y185287D01*
X153488Y185583D01*
X153414Y185823D01*
X153340Y186046D01*
X153266Y186231D01*
X153192Y186379D01*
X153155Y186453D01*
X153137Y186490D01*
X152970Y186731D01*
X152766Y186953D01*
X152544Y187138D01*
X152340Y187305D01*
X152137Y187435D01*
X151989Y187527D01*
X151877Y187583D01*
X151859Y187601D01*
X151840D01*
X151655Y187694D01*
X151452Y187768D01*
X151007Y187934D01*
X150507Y188101D01*
X150026Y188231D01*
X149804Y188286D01*
X149581Y188342D01*
X149378Y188397D01*
X149211Y188434D01*
X149081Y188471D01*
X148970Y188490D01*
X148896Y188508D01*
X148878D01*
X148600Y188564D01*
X148378Y188638D01*
X148193Y188694D01*
X148063Y188749D01*
X147952Y188805D01*
X147896Y188842D01*
X147859Y188879D01*
X147841D01*
X147767Y188953D01*
X147711Y189027D01*
X147656Y189175D01*
X147619Y189286D01*
Y189305D01*
Y189323D01*
X147637Y189434D01*
X147656Y189545D01*
X147748Y189730D01*
X147841Y189842D01*
X147859Y189860D01*
X147878Y189879D01*
X147989Y189953D01*
X148119Y190027D01*
X148396Y190082D01*
X148526Y190101D01*
X148618Y190119D01*
X148711D01*
X148952Y190101D01*
X149156Y190064D01*
X149341Y190027D01*
X149489Y189971D01*
X149600Y189897D01*
X149674Y189860D01*
X149729Y189823D01*
X149748Y189805D01*
X149878Y189675D01*
X149989Y189508D01*
X150063Y189342D01*
X150137Y189194D01*
X150192Y189045D01*
X150230Y188916D01*
X150248Y188842D01*
Y188805D01*
X153211Y188971D01*
X153155Y189249D01*
X153100Y189527D01*
X153026Y189768D01*
X152933Y189990D01*
X152840Y190193D01*
X152729Y190397D01*
X152637Y190564D01*
X152526Y190712D01*
X152322Y190953D01*
X152155Y191138D01*
X152026Y191230D01*
X152007Y191267D01*
X151989D01*
X151785Y191397D01*
X151563Y191508D01*
X151100Y191693D01*
X150600Y191823D01*
X150118Y191915D01*
X149896Y191952D01*
X149692Y191971D01*
X149507Y191990D01*
X149341D01*
X149211Y192008D01*
D02*
G37*
G36*
X216889Y191841D02*
X210186D01*
X209297Y186379D01*
X211686Y186027D01*
X211816Y186157D01*
X211927Y186268D01*
X212038Y186360D01*
X212131Y186435D01*
X212205Y186490D01*
X212260Y186527D01*
X212297Y186564D01*
X212316D01*
X212464Y186638D01*
X212612Y186675D01*
X212853Y186749D01*
X212964D01*
X213038Y186768D01*
X213112D01*
X213334Y186749D01*
X213556Y186694D01*
X213723Y186638D01*
X213871Y186564D01*
X214001Y186472D01*
X214075Y186416D01*
X214130Y186360D01*
X214149Y186342D01*
X214278Y186157D01*
X214371Y185953D01*
X214445Y185731D01*
X214482Y185509D01*
X214519Y185324D01*
X214538Y185157D01*
Y185046D01*
Y185027D01*
Y185009D01*
X214519Y184694D01*
X214482Y184435D01*
X214408Y184213D01*
X214352Y184027D01*
X214278Y183879D01*
X214204Y183787D01*
X214167Y183713D01*
X214149Y183694D01*
X214001Y183546D01*
X213834Y183435D01*
X213667Y183361D01*
X213519Y183305D01*
X213371Y183268D01*
X213260Y183250D01*
X213167D01*
X212982Y183268D01*
X212797Y183305D01*
X212630Y183361D01*
X212501Y183435D01*
X212390Y183490D01*
X212316Y183546D01*
X212260Y183583D01*
X212242Y183601D01*
X212112Y183750D01*
X212019Y183916D01*
X211927Y184083D01*
X211871Y184250D01*
X211834Y184398D01*
X211797Y184527D01*
X211779Y184601D01*
Y184639D01*
X208927Y184324D01*
X209001Y184065D01*
X209094Y183824D01*
X209168Y183620D01*
X209260Y183453D01*
X209316Y183305D01*
X209371Y183213D01*
X209408Y183139D01*
X209427Y183120D01*
X209686Y182787D01*
X209816Y182639D01*
X209946Y182528D01*
X210075Y182416D01*
X210168Y182342D01*
X210223Y182287D01*
X210242Y182268D01*
X210649Y182028D01*
X210853Y181935D01*
X211056Y181861D01*
X211223Y181787D01*
X211353Y181750D01*
X211427Y181731D01*
X211464Y181713D01*
X211742Y181657D01*
X212038Y181602D01*
X212334Y181565D01*
X212593Y181546D01*
X212834D01*
X213019Y181528D01*
X213186D01*
X213686Y181546D01*
X214130Y181602D01*
X214538Y181676D01*
X214871Y181768D01*
X215130Y181842D01*
X215241Y181880D01*
X215315Y181917D01*
X215389Y181954D01*
X215445Y181972D01*
X215464Y181991D01*
X215482D01*
X215797Y182194D01*
X216075Y182416D01*
X216315Y182639D01*
X216519Y182861D01*
X216667Y183065D01*
X216778Y183231D01*
X216852Y183342D01*
X216871Y183361D01*
Y183379D01*
X217037Y183713D01*
X217167Y184065D01*
X217241Y184379D01*
X217315Y184657D01*
X217352Y184916D01*
X217371Y185101D01*
Y185268D01*
X217352Y185527D01*
X217334Y185768D01*
X217223Y186212D01*
X217074Y186620D01*
X216889Y186953D01*
X216704Y187212D01*
X216630Y187323D01*
X216556Y187416D01*
X216500Y187490D01*
X216445Y187546D01*
X216426Y187564D01*
X216408Y187583D01*
X216223Y187749D01*
X216038Y187897D01*
X215834Y188008D01*
X215630Y188120D01*
X215223Y188286D01*
X214815Y188397D01*
X214482Y188453D01*
X214334Y188490D01*
X214204D01*
X214093Y188508D01*
X213945D01*
X213612Y188490D01*
X213464Y188471D01*
X213334Y188453D01*
X213204Y188434D01*
X213112Y188416D01*
X213056Y188397D01*
X213038D01*
X212705Y188305D01*
X212538Y188249D01*
X212390Y188194D01*
X212279Y188138D01*
X212167Y188101D01*
X212112Y188083D01*
X212094Y188064D01*
X212334Y189582D01*
X216889D01*
Y191841D01*
D02*
G37*
G36*
X203909Y192008D02*
X203668D01*
X203169Y191990D01*
X202724Y191952D01*
X202335Y191897D01*
X202020Y191823D01*
X201761Y191749D01*
X201576Y191693D01*
X201465Y191656D01*
X201446Y191638D01*
X201428D01*
X201132Y191490D01*
X200891Y191323D01*
X200669Y191156D01*
X200502Y190990D01*
X200354Y190842D01*
X200243Y190730D01*
X200187Y190656D01*
X200169Y190619D01*
X200021Y190342D01*
X199891Y190045D01*
X199798Y189749D01*
X199706Y189453D01*
X199650Y189175D01*
X199613Y188971D01*
X199595Y188879D01*
X199576Y188823D01*
Y188786D01*
Y188768D01*
X202409Y188545D01*
X202465Y188842D01*
X202520Y189083D01*
X202594Y189286D01*
X202668Y189453D01*
X202743Y189582D01*
X202798Y189675D01*
X202835Y189712D01*
X202854Y189730D01*
X203002Y189842D01*
X203150Y189934D01*
X203298Y189990D01*
X203428Y190045D01*
X203557Y190064D01*
X203650Y190082D01*
X203743D01*
X203928Y190064D01*
X204094Y190027D01*
X204242Y189971D01*
X204372Y189916D01*
X204483Y189860D01*
X204557Y189805D01*
X204594Y189768D01*
X204613Y189749D01*
X204724Y189619D01*
X204816Y189490D01*
X204872Y189360D01*
X204928Y189231D01*
X204946Y189119D01*
X204965Y189027D01*
Y188971D01*
Y188953D01*
X204946Y188786D01*
X204909Y188638D01*
X204853Y188471D01*
X204798Y188342D01*
X204724Y188212D01*
X204668Y188120D01*
X204631Y188064D01*
X204613Y188046D01*
X204539Y187953D01*
X204446Y187842D01*
X204224Y187620D01*
X203946Y187397D01*
X203687Y187157D01*
X203428Y186953D01*
X203224Y186786D01*
X203131Y186731D01*
X203076Y186675D01*
X203039Y186657D01*
X203020Y186638D01*
X202650Y186360D01*
X202317Y186101D01*
X202002Y185842D01*
X201724Y185601D01*
X201465Y185361D01*
X201243Y185157D01*
X201039Y184953D01*
X200872Y184768D01*
X200724Y184601D01*
X200576Y184453D01*
X200483Y184324D01*
X200391Y184231D01*
X200317Y184139D01*
X200280Y184083D01*
X200261Y184046D01*
X200243Y184027D01*
X200002Y183620D01*
X199798Y183194D01*
X199650Y182805D01*
X199539Y182453D01*
X199447Y182139D01*
X199428Y182009D01*
X199410Y181898D01*
X199391Y181824D01*
X199373Y181750D01*
Y181694D01*
X207853D01*
Y183990D01*
X203428D01*
X203705Y184231D01*
X203909Y184435D01*
X203983Y184490D01*
X204039Y184546D01*
X204076Y184564D01*
X204094Y184583D01*
X204224Y184694D01*
X204391Y184824D01*
X204594Y184953D01*
X204779Y185083D01*
X204965Y185212D01*
X205113Y185324D01*
X205205Y185398D01*
X205242Y185416D01*
X205501Y185601D01*
X205742Y185786D01*
X205965Y185972D01*
X206168Y186138D01*
X206335Y186305D01*
X206501Y186453D01*
X206779Y186731D01*
X206983Y186953D01*
X207113Y187120D01*
X207205Y187231D01*
X207224Y187268D01*
X207409Y187583D01*
X207538Y187897D01*
X207649Y188212D01*
X207705Y188471D01*
X207742Y188712D01*
X207779Y188897D01*
Y188953D01*
Y189008D01*
Y189027D01*
Y189045D01*
X207761Y189360D01*
X207705Y189657D01*
X207631Y189934D01*
X207538Y190156D01*
X207446Y190360D01*
X207372Y190490D01*
X207316Y190582D01*
X207298Y190619D01*
X207113Y190860D01*
X206890Y191082D01*
X206668Y191249D01*
X206464Y191397D01*
X206279Y191508D01*
X206113Y191601D01*
X206020Y191638D01*
X206001Y191656D01*
X205983D01*
X205650Y191767D01*
X205279Y191860D01*
X204890Y191915D01*
X204520Y191971D01*
X204187Y191990D01*
X204039D01*
X203909Y192008D01*
D02*
G37*
G36*
X184985D02*
X184744D01*
X184244Y191990D01*
X183800Y191952D01*
X183411Y191897D01*
X183097Y191823D01*
X182837Y191749D01*
X182652Y191693D01*
X182541Y191656D01*
X182522Y191638D01*
X182504D01*
X182208Y191490D01*
X181967Y191323D01*
X181745Y191156D01*
X181578Y190990D01*
X181430Y190842D01*
X181319Y190730D01*
X181263Y190656D01*
X181245Y190619D01*
X181097Y190342D01*
X180967Y190045D01*
X180875Y189749D01*
X180782Y189453D01*
X180726Y189175D01*
X180689Y188971D01*
X180671Y188879D01*
X180652Y188823D01*
Y188786D01*
Y188768D01*
X183485Y188545D01*
X183541Y188842D01*
X183596Y189083D01*
X183671Y189286D01*
X183745Y189453D01*
X183819Y189582D01*
X183874Y189675D01*
X183911Y189712D01*
X183930Y189730D01*
X184078Y189842D01*
X184226Y189934D01*
X184374Y189990D01*
X184504Y190045D01*
X184633Y190064D01*
X184726Y190082D01*
X184818D01*
X185004Y190064D01*
X185170Y190027D01*
X185319Y189971D01*
X185448Y189916D01*
X185559Y189860D01*
X185633Y189805D01*
X185670Y189768D01*
X185689Y189749D01*
X185800Y189619D01*
X185893Y189490D01*
X185948Y189360D01*
X186004Y189231D01*
X186022Y189119D01*
X186041Y189027D01*
Y188971D01*
Y188953D01*
X186022Y188786D01*
X185985Y188638D01*
X185930Y188471D01*
X185874Y188342D01*
X185800Y188212D01*
X185744Y188120D01*
X185707Y188064D01*
X185689Y188046D01*
X185615Y187953D01*
X185522Y187842D01*
X185300Y187620D01*
X185022Y187397D01*
X184763Y187157D01*
X184504Y186953D01*
X184300Y186786D01*
X184207Y186731D01*
X184152Y186675D01*
X184115Y186657D01*
X184096Y186638D01*
X183726Y186360D01*
X183393Y186101D01*
X183078Y185842D01*
X182800Y185601D01*
X182541Y185361D01*
X182319Y185157D01*
X182115Y184953D01*
X181948Y184768D01*
X181800Y184601D01*
X181652Y184453D01*
X181560Y184324D01*
X181467Y184231D01*
X181393Y184139D01*
X181356Y184083D01*
X181337Y184046D01*
X181319Y184027D01*
X181078Y183620D01*
X180875Y183194D01*
X180726Y182805D01*
X180615Y182453D01*
X180523Y182139D01*
X180504Y182009D01*
X180486Y181898D01*
X180467Y181824D01*
X180449Y181750D01*
Y181694D01*
X188929D01*
Y183990D01*
X184504D01*
X184781Y184231D01*
X184985Y184435D01*
X185059Y184490D01*
X185115Y184546D01*
X185152Y184564D01*
X185170Y184583D01*
X185300Y184694D01*
X185467Y184824D01*
X185670Y184953D01*
X185855Y185083D01*
X186041Y185212D01*
X186189Y185324D01*
X186281Y185398D01*
X186318Y185416D01*
X186578Y185601D01*
X186818Y185786D01*
X187041Y185972D01*
X187244Y186138D01*
X187411Y186305D01*
X187577Y186453D01*
X187855Y186731D01*
X188059Y186953D01*
X188188Y187120D01*
X188281Y187231D01*
X188300Y187268D01*
X188485Y187583D01*
X188614Y187897D01*
X188725Y188212D01*
X188781Y188471D01*
X188818Y188712D01*
X188855Y188897D01*
Y188953D01*
Y189008D01*
Y189027D01*
Y189045D01*
X188837Y189360D01*
X188781Y189657D01*
X188707Y189934D01*
X188614Y190156D01*
X188522Y190360D01*
X188448Y190490D01*
X188392Y190582D01*
X188374Y190619D01*
X188188Y190860D01*
X187966Y191082D01*
X187744Y191249D01*
X187540Y191397D01*
X187355Y191508D01*
X187189Y191601D01*
X187096Y191638D01*
X187078Y191656D01*
X187059D01*
X186726Y191767D01*
X186355Y191860D01*
X185966Y191915D01*
X185596Y191971D01*
X185263Y191990D01*
X185115D01*
X184985Y192008D01*
D02*
G37*
G36*
X174968Y191841D02*
X165432D01*
Y189342D01*
X168635D01*
Y181694D01*
X171764D01*
Y189342D01*
X174968D01*
Y191841D01*
D02*
G37*
G36*
X161339D02*
X157895D01*
X154100Y181694D01*
X157303D01*
X157803Y183361D01*
X161358D01*
X161858Y181694D01*
X165154D01*
X161339Y191841D01*
D02*
G37*
G36*
X194503Y192008D02*
X194336D01*
X193947Y191990D01*
X193577Y191952D01*
X193244Y191897D01*
X192929Y191823D01*
X192651Y191730D01*
X192392Y191638D01*
X192151Y191527D01*
X191947Y191434D01*
X191762Y191323D01*
X191596Y191212D01*
X191466Y191119D01*
X191355Y191027D01*
X191262Y190953D01*
X191207Y190897D01*
X191170Y190860D01*
X191151Y190842D01*
X190966Y190601D01*
X190818Y190342D01*
X190670Y190045D01*
X190559Y189730D01*
X190373Y189064D01*
X190244Y188397D01*
X190207Y188083D01*
X190170Y187786D01*
X190151Y187509D01*
X190133Y187268D01*
X190114Y187083D01*
Y186805D01*
X190133Y186379D01*
X190151Y185972D01*
X190188Y185601D01*
X190225Y185287D01*
X190262Y185009D01*
X190281Y184805D01*
X190299Y184731D01*
X190318Y184676D01*
Y184657D01*
Y184639D01*
X190392Y184305D01*
X190485Y183990D01*
X190577Y183731D01*
X190670Y183528D01*
X190744Y183342D01*
X190818Y183231D01*
X190855Y183139D01*
X190873Y183120D01*
X191077Y182842D01*
X191299Y182602D01*
X191503Y182398D01*
X191725Y182231D01*
X191892Y182102D01*
X192040Y182009D01*
X192133Y181954D01*
X192170Y181935D01*
X192484Y181805D01*
X192836Y181694D01*
X193188Y181620D01*
X193521Y181583D01*
X193818Y181546D01*
X193929D01*
X194040Y181528D01*
X194262D01*
X194669Y181546D01*
X195058Y181583D01*
X195410Y181639D01*
X195725Y181731D01*
X196021Y181824D01*
X196280Y181935D01*
X196521Y182046D01*
X196725Y182176D01*
X196910Y182287D01*
X197058Y182398D01*
X197188Y182509D01*
X197299Y182602D01*
X197391Y182694D01*
X197447Y182750D01*
X197465Y182787D01*
X197484Y182805D01*
X197651Y183065D01*
X197799Y183342D01*
X197928Y183657D01*
X198039Y183972D01*
X198206Y184639D01*
X198317Y185305D01*
X198354Y185620D01*
X198373Y185898D01*
X198391Y186157D01*
X198410Y186397D01*
X198428Y186583D01*
Y186842D01*
X198410Y187286D01*
X198391Y187731D01*
X198336Y188120D01*
X198280Y188471D01*
X198225Y188768D01*
X198206Y188897D01*
X198188Y188990D01*
X198169Y189083D01*
X198151Y189138D01*
X198132Y189175D01*
Y189194D01*
X198076Y189416D01*
X198002Y189601D01*
X197947Y189786D01*
X197891Y189934D01*
X197836Y190064D01*
X197780Y190156D01*
X197762Y190212D01*
X197743Y190231D01*
X197539Y190564D01*
X197428Y190712D01*
X197317Y190823D01*
X197225Y190934D01*
X197151Y191008D01*
X197095Y191064D01*
X197076Y191082D01*
X196910Y191230D01*
X196743Y191360D01*
X196558Y191471D01*
X196391Y191564D01*
X196243Y191638D01*
X196114Y191712D01*
X196040Y191730D01*
X196003Y191749D01*
X195743Y191841D01*
X195466Y191897D01*
X195188Y191952D01*
X194929Y191971D01*
X194688Y191990D01*
X194503Y192008D01*
D02*
G37*
G36*
X163395Y179498D02*
X160562D01*
Y177554D01*
X163395D01*
Y179498D01*
D02*
G37*
G36*
X229647Y176869D02*
X229536D01*
X229221Y176850D01*
X228944Y176813D01*
X228684Y176776D01*
X228462Y176721D01*
X228295Y176647D01*
X228166Y176610D01*
X228092Y176573D01*
X228055Y176554D01*
X227833Y176425D01*
X227629Y176258D01*
X227425Y176091D01*
X227240Y175906D01*
X227092Y175758D01*
X226981Y175628D01*
X226888Y175536D01*
X226870Y175499D01*
Y176702D01*
X224259D01*
Y169351D01*
X227073D01*
Y172869D01*
X227092Y173221D01*
X227129Y173517D01*
X227166Y173758D01*
X227240Y173962D01*
X227296Y174091D01*
X227333Y174202D01*
X227370Y174258D01*
X227388Y174277D01*
X227518Y174406D01*
X227647Y174499D01*
X227796Y174573D01*
X227925Y174610D01*
X228036Y174647D01*
X228129Y174665D01*
X228221D01*
X228388Y174647D01*
X228536Y174628D01*
X228647Y174573D01*
X228758Y174517D01*
X228832Y174462D01*
X228888Y174425D01*
X228925Y174388D01*
X228944Y174369D01*
X229036Y174240D01*
X229092Y174091D01*
X229166Y173777D01*
X229184Y173629D01*
X229203Y173499D01*
Y173425D01*
Y173388D01*
Y169351D01*
X232036D01*
Y174017D01*
X231999Y174517D01*
X231925Y174962D01*
X231832Y175332D01*
X231702Y175628D01*
X231573Y175869D01*
X231480Y176036D01*
X231406Y176128D01*
X231369Y176165D01*
X231091Y176406D01*
X230795Y176573D01*
X230499Y176702D01*
X230203Y176776D01*
X229944Y176832D01*
X229721Y176850D01*
X229647Y176869D01*
D02*
G37*
G36*
X149267D02*
X149156D01*
X148933Y176850D01*
X148748Y176832D01*
X148563Y176776D01*
X148415Y176721D01*
X148304Y176665D01*
X148211Y176628D01*
X148156Y176591D01*
X148137Y176573D01*
X147989Y176443D01*
X147859Y176276D01*
X147600Y175925D01*
X147508Y175758D01*
X147434Y175628D01*
X147378Y175536D01*
X147359Y175499D01*
Y176702D01*
X144730D01*
Y169351D01*
X147563D01*
Y171814D01*
Y172129D01*
X147582Y172425D01*
X147600Y172684D01*
X147637Y172925D01*
X147656Y173147D01*
X147693Y173351D01*
X147730Y173517D01*
X147785Y173684D01*
X147822Y173814D01*
X147859Y173925D01*
X147896Y174017D01*
X147915Y174091D01*
X147971Y174184D01*
X147989Y174221D01*
X148119Y174369D01*
X148267Y174480D01*
X148396Y174573D01*
X148545Y174628D01*
X148674Y174665D01*
X148767Y174684D01*
X148970D01*
X149100Y174647D01*
X149359Y174573D01*
X149470Y174536D01*
X149563Y174499D01*
X149618Y174480D01*
X149637Y174462D01*
X150526Y176480D01*
X150248Y176610D01*
X149989Y176702D01*
X149767Y176776D01*
X149563Y176813D01*
X149396Y176850D01*
X149267Y176869D01*
D02*
G37*
G36*
X178745D02*
X178578D01*
X178116Y176850D01*
X177708Y176813D01*
X177338Y176758D01*
X177041Y176702D01*
X176801Y176628D01*
X176616Y176573D01*
X176504Y176536D01*
X176486Y176517D01*
X176467D01*
X176282Y176425D01*
X176097Y176332D01*
X175912Y176221D01*
X175764Y176110D01*
X175634Y176017D01*
X175542Y175943D01*
X175468Y175888D01*
X175449Y175869D01*
X175282Y175702D01*
X175134Y175517D01*
X174986Y175351D01*
X174875Y175202D01*
X174783Y175073D01*
X174727Y174962D01*
X174690Y174888D01*
X174671Y174869D01*
X174542Y174573D01*
X174449Y174258D01*
X174394Y173943D01*
X174357Y173647D01*
X174320Y173388D01*
X174301Y173166D01*
Y172980D01*
X174320Y172592D01*
X174357Y172258D01*
X174394Y171962D01*
X174468Y171703D01*
X174523Y171499D01*
X174560Y171369D01*
X174597Y171277D01*
X174616Y171240D01*
X174746Y170999D01*
X174894Y170795D01*
X175023Y170592D01*
X175171Y170425D01*
X175301Y170277D01*
X175394Y170184D01*
X175468Y170110D01*
X175486Y170092D01*
X175708Y169925D01*
X175931Y169777D01*
X176153Y169666D01*
X176356Y169555D01*
X176542Y169481D01*
X176690Y169425D01*
X176782Y169407D01*
X176819Y169388D01*
X177134Y169314D01*
X177467Y169277D01*
X177782Y169240D01*
X178097Y169203D01*
X178375D01*
X178597Y169184D01*
X178782D01*
X179208Y169203D01*
X179597Y169240D01*
X179930Y169296D01*
X180226Y169351D01*
X180449Y169407D01*
X180615Y169462D01*
X180726Y169499D01*
X180763Y169518D01*
X181041Y169647D01*
X181300Y169814D01*
X181523Y169962D01*
X181708Y170110D01*
X181856Y170259D01*
X181967Y170370D01*
X182041Y170444D01*
X182059Y170462D01*
X182245Y170703D01*
X182393Y170962D01*
X182522Y171203D01*
X182633Y171444D01*
X182708Y171647D01*
X182763Y171795D01*
X182782Y171907D01*
X182800Y171943D01*
X180115Y172240D01*
X180041Y172036D01*
X179949Y171851D01*
X179837Y171703D01*
X179745Y171592D01*
X179671Y171481D01*
X179597Y171425D01*
X179560Y171388D01*
X179541Y171369D01*
X179393Y171277D01*
X179245Y171203D01*
X179078Y171166D01*
X178949Y171129D01*
X178819Y171110D01*
X178708Y171092D01*
X178615D01*
X178375Y171110D01*
X178171Y171166D01*
X177986Y171240D01*
X177819Y171332D01*
X177690Y171406D01*
X177597Y171481D01*
X177542Y171536D01*
X177523Y171555D01*
X177375Y171740D01*
X177282Y171962D01*
X177208Y172184D01*
X177153Y172406D01*
X177116Y172610D01*
X177097Y172777D01*
Y172888D01*
Y172906D01*
Y172925D01*
X177116Y173277D01*
X177171Y173591D01*
X177227Y173851D01*
X177319Y174073D01*
X177393Y174240D01*
X177449Y174351D01*
X177504Y174425D01*
X177523Y174443D01*
X177690Y174610D01*
X177875Y174739D01*
X178060Y174814D01*
X178245Y174888D01*
X178412Y174925D01*
X178541Y174943D01*
X178652D01*
X178856Y174925D01*
X179023Y174906D01*
X179171Y174869D01*
X179301Y174814D01*
X179412Y174758D01*
X179486Y174721D01*
X179523Y174702D01*
X179541Y174684D01*
X179652Y174591D01*
X179764Y174480D01*
X179893Y174240D01*
X179949Y174147D01*
X179986Y174054D01*
X180004Y173999D01*
Y173980D01*
X182652Y174332D01*
X182485Y174776D01*
X182282Y175147D01*
X182059Y175480D01*
X181837Y175739D01*
X181634Y175943D01*
X181467Y176110D01*
X181356Y176184D01*
X181337Y176221D01*
X181319D01*
X181134Y176332D01*
X180930Y176443D01*
X180486Y176591D01*
X180041Y176702D01*
X179597Y176795D01*
X179393Y176813D01*
X179189Y176832D01*
X179023Y176850D01*
X178875D01*
X178745Y176869D01*
D02*
G37*
G36*
X193410Y176702D02*
X190392D01*
Y173869D01*
X193410D01*
Y176702D01*
D02*
G37*
G36*
X236609Y179498D02*
X233721D01*
Y169351D01*
X236609D01*
Y171258D01*
X237646Y172277D01*
X239146Y169351D01*
X242331D01*
X239535Y174110D01*
X242183Y176702D01*
X238702D01*
X236609Y174277D01*
Y179498D01*
D02*
G37*
G36*
X213001D02*
X210168D01*
Y169351D01*
X213001D01*
Y179498D01*
D02*
G37*
G36*
X205372D02*
X200002D01*
Y169351D01*
X203150D01*
Y173129D01*
X204853D01*
X205205Y173147D01*
X205520Y173166D01*
X205816Y173203D01*
X206094Y173258D01*
X206353Y173332D01*
X206594Y173406D01*
X206798Y173480D01*
X206983Y173554D01*
X207150Y173629D01*
X207298Y173703D01*
X207409Y173777D01*
X207520Y173851D01*
X207594Y173906D01*
X207649Y173943D01*
X207668Y173980D01*
X207687D01*
X207853Y174147D01*
X208001Y174332D01*
X208112Y174517D01*
X208223Y174721D01*
X208390Y175128D01*
X208501Y175517D01*
X208557Y175851D01*
X208594Y175999D01*
Y176128D01*
X208612Y176239D01*
Y176665D01*
X208575Y176906D01*
X208483Y177369D01*
X208335Y177758D01*
X208186Y178091D01*
X208038Y178350D01*
X207890Y178535D01*
X207835Y178591D01*
X207798Y178647D01*
X207779Y178683D01*
X207761D01*
X207594Y178832D01*
X207409Y178961D01*
X207001Y179146D01*
X206576Y179295D01*
X206168Y179406D01*
X205798Y179461D01*
X205631Y179480D01*
X205483D01*
X205372Y179498D01*
D02*
G37*
G36*
X193410Y172184D02*
X190392D01*
Y169351D01*
X193410D01*
Y172184D01*
D02*
G37*
G36*
X218852Y176869D02*
X218648D01*
X218297Y176850D01*
X217963Y176813D01*
X217648Y176776D01*
X217352Y176702D01*
X217074Y176610D01*
X216815Y176517D01*
X216593Y176425D01*
X216389Y176332D01*
X216204Y176221D01*
X216038Y176128D01*
X215889Y176036D01*
X215778Y175943D01*
X215686Y175869D01*
X215630Y175832D01*
X215593Y175795D01*
X215575Y175776D01*
X215371Y175573D01*
X215204Y175351D01*
X215056Y175110D01*
X214926Y174888D01*
X214815Y174647D01*
X214723Y174425D01*
X214593Y173980D01*
X214538Y173777D01*
X214501Y173591D01*
X214482Y173425D01*
X214464Y173277D01*
X214445Y173166D01*
Y172999D01*
X214464Y172666D01*
X214501Y172351D01*
X214575Y172055D01*
X214649Y171777D01*
X214760Y171518D01*
X214871Y171277D01*
X214982Y171055D01*
X215112Y170851D01*
X215241Y170684D01*
X215352Y170518D01*
X215464Y170388D01*
X215575Y170277D01*
X215649Y170184D01*
X215723Y170129D01*
X215760Y170092D01*
X215778Y170073D01*
X215982Y169925D01*
X216223Y169777D01*
X216686Y169555D01*
X217167Y169407D01*
X217630Y169296D01*
X217834Y169259D01*
X218037Y169240D01*
X218204Y169203D01*
X218352D01*
X218482Y169184D01*
X218648D01*
X219019Y169203D01*
X219352Y169240D01*
X219685Y169277D01*
X219981Y169351D01*
X220259Y169425D01*
X220518Y169518D01*
X220759Y169629D01*
X220963Y169722D01*
X221148Y169814D01*
X221315Y169925D01*
X221463Y170018D01*
X221574Y170092D01*
X221667Y170166D01*
X221722Y170222D01*
X221759Y170240D01*
X221778Y170259D01*
X221981Y170462D01*
X222148Y170684D01*
X222296Y170925D01*
X222426Y171147D01*
X222537Y171388D01*
X222629Y171610D01*
X222759Y172055D01*
X222815Y172258D01*
X222852Y172443D01*
X222870Y172610D01*
X222889Y172758D01*
X222907Y172869D01*
Y173036D01*
X222889Y173314D01*
X222870Y173573D01*
X222759Y174073D01*
X222611Y174499D01*
X222444Y174869D01*
X222352Y175036D01*
X222278Y175165D01*
X222204Y175295D01*
X222129Y175388D01*
X222074Y175462D01*
X222018Y175536D01*
X222000Y175554D01*
X221981Y175573D01*
X221759Y175795D01*
X221518Y175999D01*
X221259Y176165D01*
X220981Y176332D01*
X220704Y176443D01*
X220426Y176554D01*
X220148Y176647D01*
X219889Y176702D01*
X219648Y176758D01*
X219408Y176795D01*
X219185Y176832D01*
X219019Y176850D01*
X218852Y176869D01*
D02*
G37*
G36*
X187503Y179498D02*
X184670Y178036D01*
Y176702D01*
X183633D01*
Y174647D01*
X184670D01*
Y172055D01*
X184689Y171629D01*
X184707Y171258D01*
X184744Y170944D01*
X184781Y170684D01*
X184818Y170499D01*
X184855Y170370D01*
X184893Y170277D01*
Y170259D01*
X184985Y170073D01*
X185115Y169907D01*
X185226Y169758D01*
X185355Y169647D01*
X185467Y169555D01*
X185559Y169499D01*
X185615Y169462D01*
X185633Y169444D01*
X185837Y169351D01*
X186096Y169296D01*
X186337Y169240D01*
X186596Y169222D01*
X186837Y169203D01*
X187022Y169184D01*
X187189D01*
X187540Y169203D01*
X187874Y169222D01*
X188207Y169259D01*
X188503Y169296D01*
X188762Y169333D01*
X188966Y169370D01*
X189040Y169388D01*
X189096Y169407D01*
X189151D01*
X188929Y171351D01*
X188725Y171295D01*
X188559Y171258D01*
X188411Y171221D01*
X188281Y171203D01*
X188188D01*
X188114Y171184D01*
X188059D01*
X187948Y171203D01*
X187837Y171221D01*
X187689Y171295D01*
X187614Y171369D01*
X187577Y171406D01*
X187559Y171481D01*
X187540Y171573D01*
X187522Y171777D01*
X187503Y171869D01*
Y171962D01*
Y172018D01*
Y172036D01*
Y174647D01*
X189059D01*
Y176702D01*
X187503D01*
Y179498D01*
D02*
G37*
G36*
X169228Y176869D02*
X168968D01*
X168617Y176850D01*
X168283Y176832D01*
X167968Y176776D01*
X167672Y176702D01*
X167394Y176628D01*
X167154Y176536D01*
X166913Y176425D01*
X166709Y176332D01*
X166524Y176239D01*
X166376Y176128D01*
X166228Y176036D01*
X166117Y175962D01*
X166024Y175888D01*
X165969Y175851D01*
X165932Y175814D01*
X165913Y175795D01*
X165728Y175591D01*
X165561Y175369D01*
X165413Y175147D01*
X165284Y174906D01*
X165172Y174665D01*
X165080Y174443D01*
X164950Y173999D01*
X164913Y173795D01*
X164876Y173610D01*
X164858Y173425D01*
X164839Y173277D01*
X164821Y173166D01*
Y172999D01*
X164839Y172554D01*
X164913Y172166D01*
X164987Y171795D01*
X165098Y171499D01*
X165191Y171240D01*
X165284Y171055D01*
X165302Y170981D01*
X165339Y170925D01*
X165358Y170907D01*
Y170888D01*
X165580Y170573D01*
X165802Y170314D01*
X166043Y170092D01*
X166265Y169907D01*
X166450Y169777D01*
X166617Y169666D01*
X166709Y169610D01*
X166746Y169592D01*
X167080Y169462D01*
X167450Y169351D01*
X167839Y169277D01*
X168209Y169240D01*
X168542Y169203D01*
X168672D01*
X168802Y169184D01*
X169357D01*
X169635Y169203D01*
X169913Y169222D01*
X170153Y169259D01*
X170394Y169296D01*
X170598Y169333D01*
X170783Y169388D01*
X170968Y169425D01*
X171116Y169462D01*
X171246Y169518D01*
X171357Y169555D01*
X171450Y169592D01*
X171524Y169629D01*
X171579Y169647D01*
X171598Y169666D01*
X171616D01*
X171950Y169870D01*
X172246Y170110D01*
X172505Y170388D01*
X172727Y170647D01*
X172912Y170888D01*
X173060Y171073D01*
X173097Y171147D01*
X173134Y171203D01*
X173172Y171240D01*
Y171258D01*
X170394Y171518D01*
X170301Y171388D01*
X170190Y171295D01*
X170116Y171203D01*
X170042Y171147D01*
X169931Y171055D01*
X169913Y171036D01*
X169894D01*
X169746Y170962D01*
X169616Y170925D01*
X169376Y170851D01*
X169265D01*
X169191Y170833D01*
X169116D01*
X168876Y170851D01*
X168672Y170907D01*
X168487Y170981D01*
X168339Y171073D01*
X168209Y171166D01*
X168116Y171240D01*
X168061Y171295D01*
X168043Y171314D01*
X167950Y171462D01*
X167876Y171610D01*
X167765Y171943D01*
X167728Y172092D01*
X167709Y172221D01*
X167691Y172295D01*
Y172332D01*
X173338D01*
Y172647D01*
X173320Y173166D01*
X173264Y173629D01*
X173190Y174017D01*
X173097Y174369D01*
X173005Y174628D01*
X172968Y174739D01*
X172931Y174832D01*
X172894Y174906D01*
X172875Y174962D01*
X172857Y174980D01*
Y174999D01*
X172653Y175313D01*
X172431Y175591D01*
X172209Y175832D01*
X171968Y176036D01*
X171764Y176184D01*
X171598Y176295D01*
X171487Y176369D01*
X171468Y176388D01*
X171450D01*
X171079Y176554D01*
X170672Y176665D01*
X170264Y176758D01*
X169876Y176813D01*
X169524Y176850D01*
X169357D01*
X169228Y176869D01*
D02*
G37*
G36*
X155044D02*
X154840D01*
X154488Y176850D01*
X154155Y176813D01*
X153840Y176776D01*
X153544Y176702D01*
X153266Y176610D01*
X153007Y176517D01*
X152785Y176425D01*
X152581Y176332D01*
X152396Y176221D01*
X152229Y176128D01*
X152081Y176036D01*
X151970Y175943D01*
X151877Y175869D01*
X151822Y175832D01*
X151785Y175795D01*
X151766Y175776D01*
X151563Y175573D01*
X151396Y175351D01*
X151248Y175110D01*
X151118Y174888D01*
X151007Y174647D01*
X150915Y174425D01*
X150785Y173980D01*
X150729Y173777D01*
X150692Y173591D01*
X150674Y173425D01*
X150655Y173277D01*
X150637Y173166D01*
Y172999D01*
X150655Y172666D01*
X150692Y172351D01*
X150766Y172055D01*
X150841Y171777D01*
X150952Y171518D01*
X151063Y171277D01*
X151174Y171055D01*
X151304Y170851D01*
X151433Y170684D01*
X151544Y170518D01*
X151655Y170388D01*
X151766Y170277D01*
X151840Y170184D01*
X151915Y170129D01*
X151952Y170092D01*
X151970Y170073D01*
X152174Y169925D01*
X152415Y169777D01*
X152877Y169555D01*
X153359Y169407D01*
X153822Y169296D01*
X154025Y169259D01*
X154229Y169240D01*
X154396Y169203D01*
X154544D01*
X154674Y169184D01*
X154840D01*
X155211Y169203D01*
X155544Y169240D01*
X155877Y169277D01*
X156173Y169351D01*
X156451Y169425D01*
X156710Y169518D01*
X156951Y169629D01*
X157155Y169722D01*
X157340Y169814D01*
X157507Y169925D01*
X157655Y170018D01*
X157766Y170092D01*
X157858Y170166D01*
X157914Y170222D01*
X157951Y170240D01*
X157969Y170259D01*
X158173Y170462D01*
X158340Y170684D01*
X158488Y170925D01*
X158617Y171147D01*
X158729Y171388D01*
X158821Y171610D01*
X158951Y172055D01*
X159006Y172258D01*
X159043Y172443D01*
X159062Y172610D01*
X159080Y172758D01*
X159099Y172869D01*
Y172962D01*
Y173018D01*
Y173036D01*
X159080Y173314D01*
X159062Y173573D01*
X158951Y174073D01*
X158914Y174179D01*
X158803Y174499D01*
X158636Y174869D01*
X158543Y175036D01*
X158469Y175165D01*
X158395Y175295D01*
X158321Y175388D01*
X158266Y175462D01*
X158210Y175536D01*
X158192Y175554D01*
X158173Y175573D01*
X157951Y175795D01*
X157710Y175999D01*
X157451Y176165D01*
X157173Y176332D01*
X156896Y176443D01*
X156618Y176554D01*
X156340Y176647D01*
X156081Y176702D01*
X155840Y176758D01*
X155599Y176795D01*
X155377Y176832D01*
X155211Y176850D01*
X155044Y176869D01*
D02*
G37*
%LPD*%
G36*
X160691Y185564D02*
X158469D01*
X159580Y189194D01*
X160691Y185564D01*
D02*
G37*
G36*
X194484Y190101D02*
X194688Y190027D01*
X194873Y189916D01*
X195021Y189786D01*
X195132Y189657D01*
X195206Y189545D01*
X195262Y189471D01*
X195280Y189434D01*
X195336Y189286D01*
X195392Y189119D01*
X195447Y188916D01*
X195484Y188712D01*
X195540Y188268D01*
X195595Y187805D01*
X195614Y187397D01*
Y187194D01*
X195632Y187046D01*
Y186898D01*
Y186805D01*
Y186731D01*
Y186712D01*
Y186231D01*
X195614Y185823D01*
X195577Y185472D01*
X195558Y185194D01*
X195521Y184972D01*
X195484Y184824D01*
X195466Y184731D01*
Y184694D01*
X195410Y184472D01*
X195336Y184268D01*
X195262Y184120D01*
X195188Y183972D01*
X195114Y183879D01*
X195058Y183805D01*
X195021Y183768D01*
X195003Y183750D01*
X194873Y183657D01*
X194743Y183583D01*
X194632Y183528D01*
X194503Y183490D01*
X194410Y183472D01*
X194317Y183453D01*
X194244D01*
X194021Y183490D01*
X193818Y183564D01*
X193651Y183676D01*
X193503Y183805D01*
X193392Y183935D01*
X193318Y184046D01*
X193262Y184120D01*
X193244Y184157D01*
X193188Y184305D01*
X193132Y184472D01*
X193095Y184657D01*
X193058Y184861D01*
X192984Y185305D01*
X192947Y185749D01*
X192929Y186157D01*
Y186342D01*
X192910Y186490D01*
Y186620D01*
Y186712D01*
Y186786D01*
Y186805D01*
Y187157D01*
X192929Y187472D01*
X192947Y187749D01*
X192966Y188027D01*
X192984Y188249D01*
X193003Y188471D01*
X193040Y188657D01*
X193077Y188823D01*
X193095Y188971D01*
X193132Y189101D01*
X193151Y189194D01*
X193169Y189268D01*
X193188Y189342D01*
X193207Y189379D01*
X193225Y189416D01*
X193355Y189657D01*
X193521Y189842D01*
X193688Y189971D01*
X193855Y190045D01*
X194003Y190101D01*
X194132Y190119D01*
X194206Y190138D01*
X194244D01*
X194484Y190101D01*
D02*
G37*
G36*
X204335Y177424D02*
X204594Y177387D01*
X204798Y177332D01*
X204965Y177276D01*
X205076Y177221D01*
X205168Y177165D01*
X205205Y177128D01*
X205224Y177110D01*
X205335Y176980D01*
X205409Y176850D01*
X205483Y176702D01*
X205520Y176573D01*
X205539Y176462D01*
X205557Y176369D01*
Y176313D01*
Y176295D01*
X205539Y176110D01*
X205501Y175962D01*
X205446Y175814D01*
X205372Y175702D01*
X205298Y175610D01*
X205242Y175536D01*
X205205Y175499D01*
X205187Y175480D01*
X205020Y175388D01*
X204835Y175313D01*
X204613Y175258D01*
X204409Y175221D01*
X204224Y175202D01*
X204057Y175184D01*
X203150D01*
Y177443D01*
X204039D01*
X204335Y177424D01*
D02*
G37*
G36*
X218889Y174906D02*
X219093Y174851D01*
X219259Y174776D01*
X219408Y174684D01*
X219519Y174591D01*
X219593Y174517D01*
X219648Y174462D01*
X219667Y174443D01*
X219796Y174258D01*
X219907Y174036D01*
X219981Y173795D01*
X220019Y173573D01*
X220056Y173351D01*
X220074Y173184D01*
Y173073D01*
Y173055D01*
Y173036D01*
X220056Y172666D01*
X220019Y172369D01*
X219944Y172110D01*
X219870Y171907D01*
X219796Y171740D01*
X219722Y171629D01*
X219685Y171555D01*
X219667Y171536D01*
X219519Y171388D01*
X219352Y171277D01*
X219185Y171203D01*
X219019Y171147D01*
X218889Y171110D01*
X218778Y171092D01*
X218667D01*
X218463Y171110D01*
X218260Y171166D01*
X218093Y171240D01*
X217945Y171332D01*
X217834Y171406D01*
X217741Y171481D01*
X217686Y171536D01*
X217667Y171555D01*
X217537Y171758D01*
X217445Y171980D01*
X217371Y172221D01*
X217334Y172443D01*
X217297Y172666D01*
X217278Y172832D01*
Y172906D01*
Y172962D01*
Y172980D01*
Y172999D01*
X217297Y173332D01*
X217334Y173629D01*
X217408Y173888D01*
X217482Y174091D01*
X217537Y174240D01*
X217611Y174351D01*
X217648Y174425D01*
X217667Y174443D01*
X217834Y174610D01*
X218000Y174721D01*
X218167Y174814D01*
X218333Y174869D01*
X218463Y174906D01*
X218593Y174925D01*
X218685D01*
X218889Y174906D01*
D02*
G37*
G36*
X169283Y175184D02*
X169487Y175147D01*
X169635Y175091D01*
X169783Y175017D01*
X169876Y174943D01*
X169968Y174888D01*
X170005Y174851D01*
X170024Y174832D01*
X170153Y174684D01*
X170246Y174499D01*
X170320Y174314D01*
X170376Y174128D01*
X170413Y173962D01*
X170450Y173814D01*
X170468Y173721D01*
Y173703D01*
Y173684D01*
X167691D01*
X167728Y173906D01*
X167765Y174110D01*
X167820Y174277D01*
X167876Y174425D01*
X167931Y174517D01*
X167968Y174610D01*
X167987Y174647D01*
X168005Y174665D01*
X168172Y174851D01*
X168339Y174980D01*
X168524Y175073D01*
X168690Y175128D01*
X168839Y175184D01*
X168968Y175202D01*
X169079D01*
X169283Y175184D01*
D02*
G37*
G36*
X155081Y174906D02*
X155285Y174851D01*
X155451Y174776D01*
X155599Y174684D01*
X155710Y174591D01*
X155785Y174517D01*
X155840Y174462D01*
X155858Y174443D01*
X155988Y174258D01*
X156099Y174036D01*
X156173Y173795D01*
X156210Y173573D01*
X156247Y173351D01*
X156266Y173184D01*
Y173073D01*
Y173055D01*
Y173036D01*
X156247Y172666D01*
X156210Y172369D01*
X156136Y172110D01*
X156062Y171907D01*
X155988Y171740D01*
X155914Y171629D01*
X155877Y171555D01*
X155858Y171536D01*
X155710Y171388D01*
X155544Y171277D01*
X155377Y171203D01*
X155211Y171147D01*
X155081Y171110D01*
X154970Y171092D01*
X154859D01*
X154655Y171110D01*
X154451Y171166D01*
X154285Y171240D01*
X154136Y171332D01*
X154025Y171406D01*
X153933Y171481D01*
X153877Y171536D01*
X153859Y171555D01*
X153729Y171758D01*
X153637Y171980D01*
X153562Y172221D01*
X153525Y172443D01*
X153488Y172666D01*
X153470Y172832D01*
Y172906D01*
Y172962D01*
Y172980D01*
Y172999D01*
X153488Y173332D01*
X153525Y173629D01*
X153600Y173888D01*
X153674Y174091D01*
X153729Y174240D01*
X153803Y174351D01*
X153840Y174425D01*
X153859Y174443D01*
X154025Y174610D01*
X154192Y174721D01*
X154359Y174814D01*
X154525Y174869D01*
X154655Y174906D01*
X154785Y174925D01*
X154877D01*
X155081Y174906D01*
D02*
G37*
D10*
X254986Y243532D02*
G03*
X254986Y243532I-3000J0D01*
G01*
D11*
X274486Y230032D02*
G03*
X274486Y230032I-1250J0D01*
G01*
D12*
X139954Y284480D02*
G03*
X139954Y284480I-254J0D01*
G01*
X144712Y293370D02*
X145982Y291170D01*
X144712Y293370D02*
X147252D01*
X145982Y291170D02*
X147252Y293370D01*
X144712Y290576D02*
X147252D01*
X375040Y443830D02*
X397900D01*
X375040Y344770D02*
X397900D01*
Y429860D02*
Y434940D01*
X396630Y433670D02*
X397900Y434940D01*
X375040Y429860D02*
Y434940D01*
Y429860D02*
X376310Y431130D01*
X397900Y344770D02*
Y426050D01*
Y438750D02*
Y443830D01*
X375040Y438750D02*
Y443830D01*
Y344770D02*
Y426050D01*
X349640Y344770D02*
Y426050D01*
Y438750D02*
Y443830D01*
X372500Y438750D02*
Y443830D01*
Y344770D02*
Y426050D01*
X349640Y429860D02*
X350910Y431130D01*
X349640Y429860D02*
Y434940D01*
X371230Y433670D02*
X372500Y434940D01*
Y429860D02*
Y434940D01*
X349640Y344770D02*
X372500D01*
X349640Y443830D02*
X372500D01*
X375040Y215230D02*
X397900D01*
X375040Y116170D02*
X397900D01*
Y201260D02*
Y206340D01*
X396630Y205070D02*
X397900Y206340D01*
X375040Y201260D02*
Y206340D01*
Y201260D02*
X376310Y202530D01*
X397900Y116170D02*
Y197450D01*
Y210150D02*
Y215230D01*
X375040Y210150D02*
Y215230D01*
Y116170D02*
Y197450D01*
X349640Y116170D02*
Y197450D01*
Y210150D02*
Y215230D01*
X372500Y210150D02*
Y215230D01*
Y116170D02*
Y197450D01*
X349640Y201260D02*
X350910Y202530D01*
X349640Y201260D02*
Y206340D01*
X371230Y205070D02*
X372500Y206340D01*
Y201260D02*
Y206340D01*
X349640Y116170D02*
X372500D01*
X349640Y215230D02*
X372500D01*
X375040Y217770D02*
Y324450D01*
Y337150D02*
Y342230D01*
X397900Y337150D02*
Y342230D01*
Y217770D02*
Y324450D01*
X375040Y328260D02*
X376310Y329530D01*
X375040Y328260D02*
Y333340D01*
X396630Y332070D02*
X397900Y333340D01*
Y328260D02*
Y333340D01*
X375040Y217770D02*
X397900D01*
X375040Y342230D02*
X397900D01*
X349640D02*
X372500D01*
X349640Y217770D02*
X372500D01*
Y328260D02*
Y333340D01*
X371230Y332070D02*
X372500Y333340D01*
X349640Y328260D02*
Y333340D01*
Y328260D02*
X350910Y329530D01*
X372500Y217770D02*
Y324450D01*
Y337150D02*
Y342230D01*
X349640Y337150D02*
Y342230D01*
Y217770D02*
Y324450D01*
X19946Y371761D02*
X60586Y442151D01*
X66936Y453150D02*
X69476Y457549D01*
X86734Y441720D02*
X89274Y446119D01*
X39744Y360331D02*
X80384Y430721D01*
X62491Y445451D02*
X64226Y445916D01*
X62491Y445451D02*
X65031Y449850D01*
X83094Y437955D02*
X84829Y438420D01*
X82289Y434021D02*
X84829Y438420D01*
X19946Y371761D02*
X39744Y360331D01*
X69476Y457549D02*
X89274Y446119D01*
X75564Y408687D02*
X78064Y413017D01*
X90009Y400347D02*
X92509Y404677D01*
X50164Y364693D02*
X52664Y369023D01*
X64609Y356353D02*
X67109Y360683D01*
X62864Y386690D02*
X65364Y391020D01*
X77309Y378350D02*
X79809Y382680D01*
D13*
X206908Y98863D02*
G03*
X206908Y98863I-1000J0D01*
G01*
X70159Y198032D02*
G03*
X70159Y198032I-1000J0D01*
G01*
X199986Y295532D02*
X261986D01*
X199986Y233532D02*
X261986D01*
X199986D02*
Y295532D01*
X261986Y233532D02*
Y295532D01*
D14*
X155180Y384740D02*
X235204D01*
X155180D02*
Y416740D01*
X235204D01*
Y384740D02*
Y416740D01*
X147180Y393240D02*
X152180Y396240D01*
X147180Y399240D02*
X152180Y396240D01*
X147180Y393240D02*
Y399240D01*
X155956Y290068D02*
Y294132D01*
X169164Y290068D02*
Y294132D01*
X208520Y71320D02*
Y71870D01*
Y95770D02*
Y96320D01*
X232970Y71320D02*
X238520D01*
X208520D02*
X214070D01*
X238520D02*
Y71870D01*
Y95770D02*
Y96320D01*
X232970D02*
X238520D01*
X208520D02*
X214070D01*
X269240Y513588D02*
Y517652D01*
X256540Y513588D02*
Y517652D01*
X289560Y513588D02*
Y517652D01*
X276860Y513588D02*
Y517652D01*
X27006Y173937D02*
X28645Y175084D01*
X94746Y77195D02*
X96384Y78342D01*
X58948Y196315D02*
X61405Y198036D01*
X64996Y192908D01*
X126693Y99565D02*
X129150Y101285D01*
X124648Y107716D02*
X129150Y101285D01*
X27006Y173937D02*
X94746Y77195D01*
X274828Y83820D02*
X278892D01*
X274828Y96520D02*
X278892D01*
X222248Y59690D02*
X226312D01*
X222248Y46990D02*
X226312D01*
X271780Y58928D02*
Y62992D01*
X259080Y58928D02*
Y62992D01*
X293370Y58928D02*
Y62992D01*
X280670Y58928D02*
Y62992D01*
X169988Y137334D02*
X172319Y134005D01*
X159585Y130049D02*
X161916Y126720D01*
X300198Y262176D02*
Y266240D01*
X287498Y262176D02*
Y266240D01*
X319954Y262176D02*
Y266240D01*
X307254Y262176D02*
Y266240D01*
X275416Y187765D02*
X279480D01*
X275416Y174557D02*
X279480D01*
X265938Y208534D02*
X270002D01*
X265938Y195326D02*
X270002D01*
X154104Y126102D02*
X156435Y122773D01*
X143285Y118527D02*
X145616Y115198D01*
X156937Y511900D02*
X160631Y507172D01*
X154844Y506458D02*
X160631Y507172D01*
X154844Y506458D02*
X156937Y511900D01*
X102257Y479965D02*
X121958Y454749D01*
X165101Y488456D01*
X145400Y513673D02*
X165101Y488456D01*
X102257Y479965D02*
X145400Y513673D01*
X311080Y357560D02*
Y412310D01*
X343080D01*
Y357560D02*
Y412310D01*
X311080Y357560D02*
X343080D01*
X319580Y420310D02*
X322580Y415310D01*
X325580Y420310D01*
X319580D02*
X325580D01*
D15*
X285548Y127127D02*
X288417D01*
X265303Y121758D02*
Y127127D01*
Y104013D02*
X268172D01*
X288417D02*
Y109382D01*
Y121758D02*
Y127127D01*
X265303D02*
X268172D01*
X265303Y104013D02*
Y109382D01*
X285548Y104013D02*
X288417D01*
D16*
X266530Y370985D02*
Y365986D01*
Y370985D02*
X268434Y365986D01*
X270339Y370985D02*
X268434Y365986D01*
X270339Y370985D02*
Y365986D01*
X273195Y370985D02*
X272719Y370747D01*
X272243Y370271D01*
X272005Y369795D01*
X271767Y369081D01*
Y367891D01*
X272005Y367177D01*
X272243Y366700D01*
X272719Y366224D01*
X273195Y365986D01*
X274147D01*
X274624Y366224D01*
X275100Y366700D01*
X275338Y367177D01*
X275576Y367891D01*
Y369081D01*
X275338Y369795D01*
X275100Y370271D01*
X274624Y370747D01*
X274147Y370985D01*
X273195D01*
X278408D02*
Y365986D01*
X276742Y370985D02*
X280075D01*
X282098D02*
X281622Y370747D01*
X281146Y370271D01*
X280908Y369795D01*
X280670Y369081D01*
Y367891D01*
X280908Y367177D01*
X281146Y366700D01*
X281622Y366224D01*
X282098Y365986D01*
X283050D01*
X283526Y366224D01*
X284002Y366700D01*
X284240Y367177D01*
X284478Y367891D01*
Y369081D01*
X284240Y369795D01*
X284002Y370271D01*
X283526Y370747D01*
X283050Y370985D01*
X282098D01*
X285645D02*
Y365986D01*
Y370985D02*
X287787D01*
X288501Y370747D01*
X288739Y370509D01*
X288978Y370033D01*
Y369557D01*
X288739Y369081D01*
X288501Y368843D01*
X287787Y368605D01*
X285645D01*
X287311D02*
X288978Y365986D01*
X290096Y364320D02*
X293905D01*
X294548Y368367D02*
X296690D01*
X297404Y368605D01*
X297642Y368843D01*
X297880Y369319D01*
Y370033D01*
X297642Y370509D01*
X297404Y370747D01*
X296690Y370985D01*
X294548D01*
Y365986D01*
X298999Y370985D02*
X300189Y365986D01*
X301380Y370985D02*
X300189Y365986D01*
X301380Y370985D02*
X302570Y365986D01*
X303760Y370985D02*
X302570Y365986D01*
X304760Y370985D02*
Y365986D01*
Y370985D02*
X306664Y365986D01*
X308569Y370985D02*
X306664Y365986D01*
X308569Y370985D02*
Y365986D01*
X122330Y446878D02*
X122807Y447117D01*
X123283Y447593D01*
X123521Y448069D01*
Y449021D01*
X123283Y449497D01*
X122807Y449973D01*
X122330Y450211D01*
X121616Y450449D01*
X120426D01*
X119712Y450211D01*
X119236Y449973D01*
X118760Y449497D01*
X118522Y449021D01*
Y448069D01*
X118760Y447593D01*
X119236Y447117D01*
X119712Y446878D01*
X118522Y441665D02*
X123521Y443570D01*
X118522Y445474D01*
X120188Y444760D02*
Y442379D01*
X123521Y440499D02*
X118522D01*
X123521D02*
X118522Y438595D01*
X123521Y436690D02*
X118522Y438595D01*
X123521Y436690D02*
X118522D01*
X116855Y435262D02*
Y431453D01*
X123521Y427716D02*
Y430810D01*
X118522D01*
Y427716D01*
X121140Y430810D02*
Y428906D01*
X123521Y426883D02*
X118522D01*
X123521D02*
X118522Y423550D01*
X123521D02*
X118522D01*
X219566Y381869D02*
Y379727D01*
X219804Y379013D01*
X220042Y378774D01*
X220518Y378536D01*
X221232D01*
X221708Y378774D01*
X221946Y379013D01*
X222184Y379727D01*
Y381869D01*
X217185D01*
X221470Y374561D02*
X221946Y374799D01*
X222184Y375513D01*
Y375989D01*
X221946Y376703D01*
X221232Y377180D01*
X220042Y377418D01*
X218852D01*
X217899Y377180D01*
X217423Y376703D01*
X217185Y375989D01*
Y375751D01*
X217423Y375037D01*
X217899Y374561D01*
X218614Y374323D01*
X218852D01*
X219566Y374561D01*
X220042Y375037D01*
X220280Y375751D01*
Y375989D01*
X220042Y376703D01*
X219566Y377180D01*
X218852Y377418D01*
X217661Y372990D02*
X217423Y373228D01*
X217185Y372990D01*
X217423Y372752D01*
X217661Y372990D01*
X222184Y369277D02*
X218852Y371657D01*
Y368086D01*
X222184Y369277D02*
X217185D01*
X208136Y381869D02*
Y379727D01*
X208374Y379013D01*
X208612Y378774D01*
X209088Y378536D01*
X209802D01*
X210278Y378774D01*
X210516Y379013D01*
X210754Y379727D01*
Y381869D01*
X205755D01*
X210040Y374561D02*
X210516Y374799D01*
X210754Y375513D01*
Y375989D01*
X210516Y376703D01*
X209802Y377180D01*
X208612Y377418D01*
X207422D01*
X206469Y377180D01*
X205993Y376703D01*
X205755Y375989D01*
Y375751D01*
X205993Y375037D01*
X206469Y374561D01*
X207184Y374323D01*
X207422D01*
X208136Y374561D01*
X208612Y375037D01*
X208850Y375751D01*
Y375989D01*
X208612Y376703D01*
X208136Y377180D01*
X207422Y377418D01*
X206231Y372990D02*
X205993Y373228D01*
X205755Y372990D01*
X205993Y372752D01*
X206231Y372990D01*
X210754Y371181D02*
Y368562D01*
X208850Y369991D01*
Y369277D01*
X208612Y368801D01*
X208374Y368562D01*
X207660Y368324D01*
X207184D01*
X206469Y368562D01*
X205993Y369039D01*
X205755Y369753D01*
Y370467D01*
X205993Y371181D01*
X206231Y371419D01*
X206708Y371657D01*
X195436Y381869D02*
Y379727D01*
X195674Y379013D01*
X195912Y378774D01*
X196388Y378536D01*
X197102D01*
X197578Y378774D01*
X197816Y379013D01*
X198054Y379727D01*
Y381869D01*
X193055D01*
X197340Y374561D02*
X197816Y374799D01*
X198054Y375513D01*
Y375989D01*
X197816Y376703D01*
X197102Y377180D01*
X195912Y377418D01*
X194722D01*
X193769Y377180D01*
X193293Y376703D01*
X193055Y375989D01*
Y375751D01*
X193293Y375037D01*
X193769Y374561D01*
X194484Y374323D01*
X194722D01*
X195436Y374561D01*
X195912Y375037D01*
X196150Y375751D01*
Y375989D01*
X195912Y376703D01*
X195436Y377180D01*
X194722Y377418D01*
X193531Y372990D02*
X193293Y373228D01*
X193055Y372990D01*
X193293Y372752D01*
X193531Y372990D01*
X196864Y371419D02*
X197102D01*
X197578Y371181D01*
X197816Y370943D01*
X198054Y370467D01*
Y369515D01*
X197816Y369039D01*
X197578Y368801D01*
X197102Y368562D01*
X196626D01*
X196150Y368801D01*
X195436Y369277D01*
X193055Y371657D01*
Y368324D01*
X182736Y381869D02*
Y379727D01*
X182974Y379013D01*
X183212Y378774D01*
X183688Y378536D01*
X184402D01*
X184878Y378774D01*
X185116Y379013D01*
X185354Y379727D01*
Y381869D01*
X180355D01*
X184640Y374561D02*
X185116Y374799D01*
X185354Y375513D01*
Y375989D01*
X185116Y376703D01*
X184402Y377180D01*
X183212Y377418D01*
X182022D01*
X181070Y377180D01*
X180593Y376703D01*
X180355Y375989D01*
Y375751D01*
X180593Y375037D01*
X181070Y374561D01*
X181784Y374323D01*
X182022D01*
X182736Y374561D01*
X183212Y375037D01*
X183450Y375751D01*
Y375989D01*
X183212Y376703D01*
X182736Y377180D01*
X182022Y377418D01*
X180832Y372990D02*
X180593Y373228D01*
X180355Y372990D01*
X180593Y372752D01*
X180832Y372990D01*
X184402Y371657D02*
X184640Y371181D01*
X185354Y370467D01*
X180355D01*
X276318Y413553D02*
X271319D01*
X276318D02*
X271319Y411648D01*
X276318Y409744D02*
X271319Y411648D01*
X276318Y409744D02*
X271319D01*
X276318Y408316D02*
X271319D01*
X275604Y403936D02*
X276080Y404412D01*
X276318Y405126D01*
Y406078D01*
X276080Y406792D01*
X275604Y407268D01*
X275128D01*
X274652Y407030D01*
X274413Y406792D01*
X274175Y406316D01*
X273699Y404888D01*
X273461Y404412D01*
X273223Y404174D01*
X272747Y403936D01*
X272033D01*
X271557Y404412D01*
X271319Y405126D01*
Y406078D01*
X271557Y406792D01*
X272033Y407268D01*
X276318Y401389D02*
X276080Y401865D01*
X275604Y402341D01*
X275128Y402579D01*
X274413Y402817D01*
X273223D01*
X272509Y402579D01*
X272033Y402341D01*
X271557Y401865D01*
X271319Y401389D01*
Y400437D01*
X271557Y399960D01*
X272033Y399484D01*
X272509Y399246D01*
X273223Y399008D01*
X274413D01*
X275128Y399246D01*
X275604Y399484D01*
X276080Y399960D01*
X276318Y400437D01*
Y401389D01*
X267799Y410619D02*
X268275Y410857D01*
X268751Y411334D01*
X268989Y411810D01*
Y412762D01*
X268751Y413238D01*
X268275Y413714D01*
X267799Y413952D01*
X267085Y414190D01*
X265894D01*
X265180Y413952D01*
X264704Y413714D01*
X264228Y413238D01*
X263990Y412762D01*
Y411810D01*
X264228Y411334D01*
X264704Y410857D01*
X265180Y410619D01*
X268275Y405882D02*
X268751Y406358D01*
X268989Y407072D01*
Y408025D01*
X268751Y408739D01*
X268275Y409215D01*
X267799D01*
X267323Y408977D01*
X267085Y408739D01*
X266847Y408263D01*
X266370Y406834D01*
X266132Y406358D01*
X265894Y406120D01*
X265418Y405882D01*
X264704D01*
X264228Y406358D01*
X263990Y407072D01*
Y408025D01*
X264228Y408739D01*
X264704Y409215D01*
X262404Y428828D02*
X257405D01*
X262404D02*
X257405Y426924D01*
X262404Y425019D02*
X257405Y426924D01*
X262404Y425019D02*
X257405D01*
X262404Y422163D02*
X262166Y422639D01*
X261690Y423115D01*
X261213Y423353D01*
X260499Y423591D01*
X259309D01*
X258595Y423353D01*
X258119Y423115D01*
X257643Y422639D01*
X257405Y422163D01*
Y421211D01*
X257643Y420734D01*
X258119Y420258D01*
X258595Y420020D01*
X259309Y419782D01*
X260499D01*
X261213Y420020D01*
X261690Y420258D01*
X262166Y420734D01*
X262404Y421211D01*
Y422163D01*
X261690Y415283D02*
X262166Y415759D01*
X262404Y416474D01*
Y417426D01*
X262166Y418140D01*
X261690Y418616D01*
X261213D01*
X260737Y418378D01*
X260499Y418140D01*
X260261Y417664D01*
X259785Y416236D01*
X259547Y415759D01*
X259309Y415521D01*
X258833Y415283D01*
X258119D01*
X257643Y415759D01*
X257405Y416474D01*
Y417426D01*
X257643Y418140D01*
X258119Y418616D01*
X262404Y414165D02*
X257405D01*
X252744Y429098D02*
X253220Y429337D01*
X253696Y429813D01*
X253934Y430289D01*
Y431241D01*
X253696Y431717D01*
X253220Y432193D01*
X252744Y432431D01*
X252030Y432669D01*
X250840D01*
X250126Y432431D01*
X249650Y432193D01*
X249173Y431717D01*
X248935Y431241D01*
Y430289D01*
X249173Y429813D01*
X249650Y429337D01*
X250126Y429098D01*
X253934Y427694D02*
X248935D01*
Y424837D01*
X253934Y424290D02*
X248935D01*
X253934Y420957D02*
X250602Y424290D01*
X251792Y423100D02*
X248935Y420957D01*
X72675Y353641D02*
X72707Y354172D01*
X72533Y354823D01*
X72240Y355267D01*
X71415Y355743D01*
X70884Y355775D01*
X70233Y355601D01*
X69789Y355307D01*
X69226Y354808D01*
X68631Y353777D01*
X68480Y353040D01*
X68448Y352508D01*
X68622Y351858D01*
X68916Y351414D01*
X69740Y350938D01*
X70272Y350906D01*
X70922Y351080D01*
X71366Y351373D01*
X74487Y353969D02*
X71987Y349640D01*
X74461Y348212D01*
X77435Y352267D02*
X74935Y347938D01*
X80321Y350601D02*
X75768Y349381D01*
X77394Y349817D02*
X77821Y346272D01*
X84369Y378730D02*
X81870Y374401D01*
X84369Y378730D02*
X86224Y377659D01*
X86724Y377096D01*
X86811Y376771D01*
X86779Y376239D01*
X86541Y375827D01*
X86097Y375534D01*
X85772Y375447D01*
X85034Y375598D01*
X83179Y376669D01*
X84622Y375836D02*
X84756Y372735D01*
X88224Y376505D02*
X88611Y370509D01*
X91110Y374838D02*
X85725Y372175D01*
X89223Y369331D02*
X94965Y372612D01*
X95254Y372446D02*
X92754Y368117D01*
X95254Y372446D02*
X94404Y367164D01*
X98552Y370542D02*
X94404Y367164D01*
X98552Y370542D02*
X96053Y366212D01*
X99789Y369827D02*
X97290Y365498D01*
X103225Y367019D02*
X103051Y367669D01*
X102552Y368232D01*
X101727Y368709D01*
X100990Y368859D01*
X100339Y368685D01*
X100101Y368273D01*
X100069Y367742D01*
X100156Y367416D01*
X100450Y366972D01*
X101449Y365846D01*
X101742Y365402D01*
X101829Y365076D01*
X101797Y364545D01*
X101440Y363927D01*
X100790Y363752D01*
X100052Y363903D01*
X99228Y364379D01*
X98728Y364943D01*
X98554Y365593D01*
X105788Y366364D02*
X105257Y366396D01*
X104607Y366222D01*
X104163Y365928D01*
X103599Y365429D01*
X103004Y364398D01*
X102853Y363661D01*
X102821Y363129D01*
X102996Y362479D01*
X103289Y362035D01*
X104114Y361559D01*
X104645Y361527D01*
X105295Y361701D01*
X105739Y361994D01*
X106303Y362494D01*
X106898Y363524D01*
X107049Y364262D01*
X107080Y364793D01*
X106906Y365444D01*
X106613Y365888D01*
X105788Y366364D01*
X95972Y400757D02*
X93473Y396428D01*
X94529Y401590D02*
X97415Y399924D01*
X97931Y399626D02*
X98317Y393631D01*
X100817Y397960D02*
X95431Y395297D01*
X98929Y392453D02*
X104672Y395734D01*
X104960Y395568D02*
X102461Y391239D01*
X104960Y395568D02*
X104110Y390286D01*
X108259Y393663D02*
X104110Y390286D01*
X108259Y393663D02*
X105759Y389334D01*
X110733Y392235D02*
X110201Y392267D01*
X109551Y392093D01*
X109107Y391800D01*
X108544Y391300D01*
X107949Y390269D01*
X107797Y389532D01*
X107766Y389001D01*
X107940Y388350D01*
X108233Y387906D01*
X109058Y387430D01*
X109589Y387398D01*
X110239Y387572D01*
X110684Y387865D01*
X111247Y388365D01*
X111842Y389396D01*
X111993Y390133D01*
X112025Y390664D01*
X111851Y391315D01*
X111557Y391759D01*
X110733Y392235D01*
X116333Y388177D02*
X116159Y388827D01*
X115660Y389390D01*
X114835Y389867D01*
X114098Y390018D01*
X113447Y389843D01*
X113209Y389431D01*
X113177Y388900D01*
X113265Y388574D01*
X113558Y388130D01*
X114557Y387004D01*
X114850Y386560D01*
X114937Y386234D01*
X114905Y385703D01*
X114548Y385085D01*
X113898Y384910D01*
X113160Y385061D01*
X112336Y385537D01*
X111836Y386101D01*
X111662Y386751D01*
X117659Y388236D02*
X115160Y383907D01*
X267590Y140929D02*
Y135931D01*
X265924Y140929D02*
X269257D01*
X269852Y138311D02*
X271994D01*
X272708Y138549D01*
X272946Y138787D01*
X273185Y139263D01*
Y139977D01*
X272946Y140453D01*
X272708Y140691D01*
X271994Y140929D01*
X269852D01*
Y135931D01*
X274541Y139739D02*
Y139977D01*
X274779Y140453D01*
X275017Y140691D01*
X275494Y140929D01*
X276446D01*
X276922Y140691D01*
X277160Y140453D01*
X277398Y139977D01*
Y139501D01*
X277160Y139025D01*
X276684Y138311D01*
X274303Y135931D01*
X277636D01*
X268662Y156170D02*
Y151171D01*
X266995Y156170D02*
X270328D01*
X270923Y153551D02*
X273065D01*
X273780Y153789D01*
X274018Y154027D01*
X274256Y154503D01*
Y155217D01*
X274018Y155693D01*
X273780Y155931D01*
X273065Y156170D01*
X270923D01*
Y151171D01*
X275375Y155217D02*
X275851Y155455D01*
X276565Y156170D01*
Y151171D01*
D17*
X218033Y425424D02*
X217652Y426186D01*
X216890Y426947D01*
X216129Y427328D01*
X214605D01*
X213843Y426947D01*
X213082Y426186D01*
X212701Y425424D01*
X212320Y424281D01*
Y422377D01*
X212701Y421234D01*
X213082Y420473D01*
X213843Y419711D01*
X214605Y419330D01*
X216129D01*
X216890Y419711D01*
X217652Y420473D01*
X218033Y421234D01*
Y422377D01*
X216129D02*
X218033D01*
X219861Y423139D02*
X223289D01*
X224432Y423520D01*
X224813Y423900D01*
X225193Y424662D01*
Y425805D01*
X224813Y426567D01*
X224432Y426947D01*
X223289Y427328D01*
X219861D01*
Y419330D01*
X226984Y427328D02*
Y419330D01*
X230945Y427328D02*
X230183Y426947D01*
X229421Y426186D01*
X229040Y425424D01*
X228659Y424281D01*
Y422377D01*
X229040Y421234D01*
X229421Y420473D01*
X230183Y419711D01*
X230945Y419330D01*
X232468D01*
X233230Y419711D01*
X233992Y420473D01*
X234372Y421234D01*
X234753Y422377D01*
Y424281D01*
X234372Y425424D01*
X233992Y426186D01*
X233230Y426947D01*
X232468Y427328D01*
X230945D01*
X23089Y226541D02*
Y220447D01*
X22708Y219304D01*
X22327Y218923D01*
X21565Y218543D01*
X20803D01*
X20042Y218923D01*
X19661Y219304D01*
X19280Y220447D01*
Y221209D01*
X27812Y226541D02*
Y218543D01*
X25145Y226541D02*
X30478D01*
X37524Y218543D02*
X34477Y226541D01*
X31430Y218543D01*
X32572Y221209D02*
X36381D01*
X45103Y224636D02*
X44722Y225398D01*
X43960Y226160D01*
X43199Y226541D01*
X41675D01*
X40914Y226160D01*
X40152Y225398D01*
X39771Y224636D01*
X39390Y223494D01*
Y221590D01*
X39771Y220447D01*
X40152Y219685D01*
X40914Y218923D01*
X41675Y218543D01*
X43199D01*
X43960Y218923D01*
X44722Y219685D01*
X45103Y220447D01*
Y221590D01*
X43199D02*
X45103D01*
X46931Y217400D02*
X52263Y226541D01*
X58129Y225398D02*
X57367Y226160D01*
X56224Y226541D01*
X54701D01*
X53558Y226160D01*
X52797Y225398D01*
Y224636D01*
X53177Y223875D01*
X53558Y223494D01*
X54320Y223113D01*
X56605Y222351D01*
X57367Y221970D01*
X57748Y221590D01*
X58129Y220828D01*
Y219685D01*
X57367Y218923D01*
X56224Y218543D01*
X54701D01*
X53558Y218923D01*
X52797Y219685D01*
X59919Y226541D02*
Y218543D01*
Y226541D02*
X63347D01*
X64489Y226160D01*
X64870Y225779D01*
X65251Y225017D01*
Y224256D01*
X64870Y223494D01*
X64489Y223113D01*
X63347Y222732D01*
X59919D02*
X63347D01*
X64489Y222351D01*
X64870Y221970D01*
X65251Y221209D01*
Y220066D01*
X64870Y219304D01*
X64489Y218923D01*
X63347Y218543D01*
X59919D01*
X67041Y226541D02*
X68946Y218543D01*
X70850Y226541D02*
X68946Y218543D01*
X70850Y226541D02*
X72754Y218543D01*
X74659Y226541D02*
X72754Y218543D01*
X306806Y405918D02*
X307567Y406680D01*
X307948Y407822D01*
Y409346D01*
X307567Y410488D01*
X306806Y411250D01*
X306044D01*
X305282Y410869D01*
X304901Y410488D01*
X304520Y409726D01*
X303759Y407441D01*
X303378Y406680D01*
X302997Y406299D01*
X302235Y405918D01*
X301093D01*
X300331Y406680D01*
X299950Y407822D01*
Y409346D01*
X300331Y410488D01*
X301093Y411250D01*
X307948Y399176D02*
Y404128D01*
X299950D01*
Y399176D01*
X304139Y404128D02*
Y401081D01*
X307948Y397843D02*
X299950D01*
X307948D02*
Y394416D01*
X307567Y393273D01*
X307187Y392892D01*
X306425Y392511D01*
X305663D01*
X304901Y392892D01*
X304520Y393273D01*
X304139Y394416D01*
Y397843D01*
Y395177D02*
X299950Y392511D01*
X307948Y390721D02*
X299950Y387674D01*
X307948Y384627D02*
X299950Y387674D01*
X307948Y381314D02*
X307567Y382075D01*
X306806Y382837D01*
X306044Y383218D01*
X304901Y383599D01*
X302997D01*
X301854Y383218D01*
X301093Y382837D01*
X300331Y382075D01*
X299950Y381314D01*
Y379790D01*
X300331Y379028D01*
X301093Y378267D01*
X301854Y377886D01*
X302997Y377505D01*
X304901D01*
X306044Y377886D01*
X306806Y378267D01*
X307567Y379028D01*
X307948Y379790D01*
Y381314D01*
X77614Y420068D02*
X82562Y417212D01*
X83742Y416970D01*
X84782Y417249D01*
X85684Y418048D01*
X86065Y418708D01*
X86306Y419888D01*
X86027Y420928D01*
X85228Y421829D01*
X80280Y424686D01*
X91359Y427878D02*
X82908Y429238D01*
X88312Y422600D01*
X86574Y424922D02*
X88478Y428221D01*
X85365Y433493D02*
X92292Y429494D01*
X85365Y433493D02*
X87079Y436461D01*
X87980Y437261D01*
X88500Y437400D01*
X89351Y437349D01*
X90010Y436968D01*
X90479Y436257D01*
X90619Y435737D01*
X90377Y434557D01*
X88663Y431589D01*
X89997Y433897D02*
X94958Y434112D01*
X90259Y441970D02*
X97186Y437971D01*
X88926Y439661D02*
X91592Y444279D01*
X154679Y473975D02*
X153910Y474341D01*
X152840Y474472D01*
X152006Y474303D01*
X150805Y473365D01*
X150439Y472596D01*
X150308Y471527D01*
X150477Y470692D01*
X150880Y469557D01*
X152053Y468056D01*
X153056Y467391D01*
X153825Y467025D01*
X154895Y466894D01*
X155729Y467062D01*
X156930Y468000D01*
X157296Y468769D01*
X157427Y469839D01*
X157258Y470673D01*
X165003Y474308D02*
X157678Y478735D01*
X160201Y470556D01*
X159460Y473361D02*
X162461Y475705D01*
X161550Y481760D02*
X166474Y475457D01*
X161550Y481760D02*
X168875Y477333D01*
X166352Y485512D02*
X168875Y477333D01*
X166352Y485512D02*
X171276Y479209D01*
X156142Y320229D02*
Y312231D01*
Y320229D02*
X159570D01*
X160713Y319848D01*
X161094Y319467D01*
X161474Y318706D01*
Y317944D01*
X161094Y317182D01*
X160713Y316801D01*
X159570Y316420D01*
X156142D01*
X158808D02*
X161474Y312231D01*
X167073Y320229D02*
X163265Y314897D01*
X168978D01*
X167073Y320229D02*
Y312231D01*
X127567Y296099D02*
Y288101D01*
Y296099D02*
X130233D01*
X131375Y295718D01*
X132137Y294956D01*
X132518Y294195D01*
X132899Y293052D01*
Y291148D01*
X132518Y290005D01*
X132137Y289244D01*
X131375Y288482D01*
X130233Y288101D01*
X127567D01*
X134689Y294576D02*
X135451Y294956D01*
X136593Y296099D01*
Y288101D01*
X262147Y494855D02*
X261766Y495616D01*
X261005Y496378D01*
X260243Y496759D01*
X258720D01*
X257958Y496378D01*
X257196Y495616D01*
X256815Y494855D01*
X256434Y493712D01*
Y491808D01*
X256815Y490665D01*
X257196Y489903D01*
X257958Y489142D01*
X258720Y488761D01*
X260243D01*
X261005Y489142D01*
X261766Y489903D01*
X262147Y490665D01*
X269346Y494093D02*
X268965Y492950D01*
X268203Y492189D01*
X267061Y491808D01*
X266680D01*
X265537Y492189D01*
X264775Y492950D01*
X264394Y494093D01*
Y494474D01*
X264775Y495616D01*
X265537Y496378D01*
X266680Y496759D01*
X267061D01*
X268203Y496378D01*
X268965Y495616D01*
X269346Y494093D01*
Y492189D01*
X268965Y490284D01*
X268203Y489142D01*
X267061Y488761D01*
X266299D01*
X265156Y489142D01*
X264775Y489903D01*
X282277Y494855D02*
X281896Y495616D01*
X281134Y496378D01*
X280373Y496759D01*
X278849D01*
X278087Y496378D01*
X277326Y495616D01*
X276945Y494855D01*
X276564Y493712D01*
Y491808D01*
X276945Y490665D01*
X277326Y489903D01*
X278087Y489142D01*
X278849Y488761D01*
X280373D01*
X281134Y489142D01*
X281896Y489903D01*
X282277Y490665D01*
X286428Y496759D02*
X285286Y496378D01*
X284905Y495616D01*
Y494855D01*
X285286Y494093D01*
X286047Y493712D01*
X287571Y493331D01*
X288714Y492950D01*
X289475Y492189D01*
X289856Y491427D01*
Y490284D01*
X289475Y489523D01*
X289095Y489142D01*
X287952Y488761D01*
X286428D01*
X285286Y489142D01*
X284905Y489523D01*
X284524Y490284D01*
Y491427D01*
X284905Y492189D01*
X285667Y492950D01*
X286809Y493331D01*
X288333Y493712D01*
X289095Y494093D01*
X289475Y494855D01*
Y495616D01*
X289095Y496378D01*
X287952Y496759D01*
X286428D01*
X302597Y92265D02*
X302216Y93027D01*
X301454Y93788D01*
X300693Y94169D01*
X299169D01*
X298407Y93788D01*
X297646Y93027D01*
X297265Y92265D01*
X296884Y91122D01*
Y89218D01*
X297265Y88075D01*
X297646Y87313D01*
X298407Y86552D01*
X299169Y86171D01*
X300693D01*
X301454Y86552D01*
X302216Y87313D01*
X302597Y88075D01*
X310176Y94169D02*
X306367Y86171D01*
X304844Y94169D02*
X310176D01*
X197377Y56705D02*
X196996Y57467D01*
X196235Y58228D01*
X195473Y58609D01*
X193950D01*
X193188Y58228D01*
X192426Y57467D01*
X192045Y56705D01*
X191664Y55562D01*
Y53658D01*
X192045Y52515D01*
X192426Y51754D01*
X193188Y50992D01*
X193950Y50611D01*
X195473D01*
X196235Y50992D01*
X196996Y51754D01*
X197377Y52515D01*
X204195Y57467D02*
X203814Y58228D01*
X202671Y58609D01*
X201910D01*
X200767Y58228D01*
X200005Y57086D01*
X199624Y55181D01*
Y53277D01*
X200005Y51754D01*
X200767Y50992D01*
X201910Y50611D01*
X202291D01*
X203433Y50992D01*
X204195Y51754D01*
X204576Y52896D01*
Y53277D01*
X204195Y54420D01*
X203433Y55181D01*
X202291Y55562D01*
X201910D01*
X200767Y55181D01*
X200005Y54420D01*
X199624Y53277D01*
X263227Y40195D02*
X262846Y40957D01*
X262084Y41718D01*
X261322Y42099D01*
X259799D01*
X259037Y41718D01*
X258276Y40957D01*
X257895Y40195D01*
X257514Y39052D01*
Y37148D01*
X257895Y36005D01*
X258276Y35243D01*
X259037Y34482D01*
X259799Y34101D01*
X261322D01*
X262084Y34482D01*
X262846Y35243D01*
X263227Y36005D01*
X270044Y42099D02*
X266236D01*
X265855Y38671D01*
X266236Y39052D01*
X267378Y39433D01*
X268521D01*
X269664Y39052D01*
X270425Y38290D01*
X270806Y37148D01*
Y36386D01*
X270425Y35243D01*
X269664Y34482D01*
X268521Y34101D01*
X267378D01*
X266236Y34482D01*
X265855Y34863D01*
X265474Y35624D01*
X304946Y63055D02*
X304566Y63816D01*
X303804Y64578D01*
X303042Y64959D01*
X301519D01*
X300757Y64578D01*
X299995Y63816D01*
X299614Y63055D01*
X299233Y61912D01*
Y60008D01*
X299614Y58865D01*
X299995Y58103D01*
X300757Y57342D01*
X301519Y56961D01*
X303042D01*
X303804Y57342D01*
X304566Y58103D01*
X304946Y58865D01*
X311002Y64959D02*
X307194Y59627D01*
X312907D01*
X311002Y64959D02*
Y56961D01*
X180677Y145605D02*
X180296Y146367D01*
X179534Y147128D01*
X178773Y147509D01*
X177249D01*
X176487Y147128D01*
X175726Y146367D01*
X175345Y145605D01*
X174964Y144462D01*
Y142558D01*
X175345Y141415D01*
X175726Y140653D01*
X176487Y139892D01*
X177249Y139511D01*
X178773D01*
X179534Y139892D01*
X180296Y140653D01*
X180677Y141415D01*
X183686Y147509D02*
X187875D01*
X185590Y144462D01*
X186733D01*
X187495Y144081D01*
X187875Y143700D01*
X188256Y142558D01*
Y141796D01*
X187875Y140653D01*
X187114Y139892D01*
X185971Y139511D01*
X184828D01*
X183686Y139892D01*
X183305Y140273D01*
X182924Y141034D01*
X293707Y291655D02*
X293326Y292416D01*
X292564Y293178D01*
X291803Y293559D01*
X290279D01*
X289517Y293178D01*
X288756Y292416D01*
X288375Y291655D01*
X287994Y290512D01*
Y288608D01*
X288375Y287465D01*
X288756Y286703D01*
X289517Y285942D01*
X290279Y285561D01*
X291803D01*
X292564Y285942D01*
X293326Y286703D01*
X293707Y287465D01*
X296335Y291655D02*
Y292036D01*
X296716Y292797D01*
X297097Y293178D01*
X297858Y293559D01*
X299382D01*
X300144Y293178D01*
X300525Y292797D01*
X300905Y292036D01*
Y291274D01*
X300525Y290512D01*
X299763Y289370D01*
X295954Y285561D01*
X301286D01*
X315283Y291926D02*
X314902Y292687D01*
X314140Y293449D01*
X313379Y293830D01*
X311855D01*
X311094Y293449D01*
X310332Y292687D01*
X309951Y291926D01*
X309570Y290783D01*
Y288879D01*
X309951Y287736D01*
X310332Y286974D01*
X311094Y286213D01*
X311855Y285832D01*
X313379D01*
X314140Y286213D01*
X314902Y286974D01*
X315283Y287736D01*
X317530Y292306D02*
X318292Y292687D01*
X319435Y293830D01*
Y285832D01*
X294553Y120839D02*
Y115126D01*
X294934Y113983D01*
X295696Y113222D01*
X296838Y112841D01*
X297600D01*
X298743Y113222D01*
X299505Y113983D01*
X299886Y115126D01*
Y120839D01*
X302856D02*
X307046D01*
X304761Y117792D01*
X305903D01*
X306665Y117411D01*
X307046Y117030D01*
X307427Y115888D01*
Y115126D01*
X307046Y113983D01*
X306284Y113222D01*
X305142Y112841D01*
X303999D01*
X302856Y113222D01*
X302475Y113603D01*
X302094Y114364D01*
X198033Y111949D02*
Y106236D01*
X198414Y105093D01*
X199176Y104332D01*
X200319Y103951D01*
X201080D01*
X202223Y104332D01*
X202985Y105093D01*
X203365Y106236D01*
Y111949D01*
X205955Y110045D02*
Y110426D01*
X206336Y111187D01*
X206717Y111568D01*
X207479Y111949D01*
X209002D01*
X209764Y111568D01*
X210145Y111187D01*
X210526Y110426D01*
Y109664D01*
X210145Y108902D01*
X209383Y107760D01*
X205574Y103951D01*
X210907D01*
X184507Y310069D02*
Y304356D01*
X184888Y303214D01*
X185650Y302452D01*
X186792Y302071D01*
X187554D01*
X188697Y302452D01*
X189459Y303214D01*
X189839Y304356D01*
Y310069D01*
X192048Y308546D02*
X192810Y308927D01*
X193953Y310069D01*
Y302071D01*
X297381Y185160D02*
Y177162D01*
Y185160D02*
X300809D01*
X301952Y184779D01*
X302332Y184399D01*
X302713Y183637D01*
Y182875D01*
X302332Y182113D01*
X301952Y181733D01*
X300809Y181352D01*
X297381D01*
X300047D02*
X302713Y177162D01*
X305265Y185160D02*
X309455D01*
X307169Y182113D01*
X308312D01*
X309074Y181733D01*
X309455Y181352D01*
X309835Y180209D01*
Y179447D01*
X309455Y178305D01*
X308693Y177543D01*
X307550Y177162D01*
X306408D01*
X305265Y177543D01*
X304884Y177924D01*
X304503Y178685D01*
X288413Y204659D02*
Y196661D01*
Y204659D02*
X291841D01*
X292983Y204278D01*
X293364Y203897D01*
X293745Y203136D01*
Y202374D01*
X293364Y201612D01*
X292983Y201231D01*
X291841Y200850D01*
X288413D01*
X291079D02*
X293745Y196661D01*
X295916Y202755D02*
Y203136D01*
X296297Y203897D01*
X296678Y204278D01*
X297439Y204659D01*
X298963D01*
X299725Y204278D01*
X300105Y203897D01*
X300486Y203136D01*
Y202374D01*
X300105Y201612D01*
X299344Y200470D01*
X295535Y196661D01*
X300867D01*
X158047Y103059D02*
Y95061D01*
Y103059D02*
X161474D01*
X162617Y102678D01*
X162998Y102297D01*
X163379Y101536D01*
Y100774D01*
X162998Y100012D01*
X162617Y99631D01*
X161474Y99250D01*
X158047D01*
X160713D02*
X163379Y95061D01*
X165169Y101536D02*
X165931Y101917D01*
X167073Y103059D01*
Y95061D01*
X389299Y455784D02*
Y449690D01*
X388918Y448547D01*
X388537Y448166D01*
X387775Y447785D01*
X387014D01*
X386252Y448166D01*
X385871Y448547D01*
X385490Y449690D01*
Y450451D01*
X395926Y454641D02*
X395545Y455403D01*
X394403Y455784D01*
X393641D01*
X392498Y455403D01*
X391737Y454260D01*
X391356Y452356D01*
Y450451D01*
X391737Y448928D01*
X392498Y448166D01*
X393641Y447785D01*
X394022D01*
X395164Y448166D01*
X395926Y448928D01*
X396307Y450071D01*
Y450451D01*
X395926Y451594D01*
X395164Y452356D01*
X394022Y452737D01*
X393641D01*
X392498Y452356D01*
X391737Y451594D01*
X391356Y450451D01*
X363696Y455731D02*
Y449637D01*
X363316Y448494D01*
X362935Y448113D01*
X362173Y447733D01*
X361411D01*
X360649Y448113D01*
X360269Y448494D01*
X359888Y449637D01*
Y450399D01*
X370323Y455731D02*
X366515D01*
X366134Y452303D01*
X366515Y452684D01*
X367657Y453065D01*
X368800D01*
X369943Y452684D01*
X370704Y451922D01*
X371085Y450779D01*
Y450018D01*
X370704Y448875D01*
X369943Y448113D01*
X368800Y447733D01*
X367657D01*
X366515Y448113D01*
X366134Y448494D01*
X365753Y449256D01*
X388622Y113132D02*
Y107038D01*
X388242Y105895D01*
X387861Y105514D01*
X387099Y105133D01*
X386337D01*
X385575Y105514D01*
X385195Y105895D01*
X384814Y107038D01*
Y107800D01*
X394488Y113132D02*
X390679Y107800D01*
X396392D01*
X394488Y113132D02*
Y105133D01*
X363629Y113348D02*
Y107254D01*
X363248Y106112D01*
X362867Y105731D01*
X362106Y105350D01*
X361344D01*
X360582Y105731D01*
X360201Y106112D01*
X359820Y107254D01*
Y108016D01*
X366447Y113348D02*
X370637D01*
X368352Y110302D01*
X369495D01*
X370256Y109921D01*
X370637Y109540D01*
X371018Y108397D01*
Y107635D01*
X370637Y106493D01*
X369875Y105731D01*
X368733Y105350D01*
X367590D01*
X366447Y105731D01*
X366067Y106112D01*
X365686Y106874D01*
X338154Y335638D02*
Y329544D01*
X337773Y328402D01*
X337393Y328021D01*
X336631Y327640D01*
X335869D01*
X335107Y328021D01*
X334726Y328402D01*
X334346Y329544D01*
Y330306D01*
X340211Y334115D02*
X340973Y334496D01*
X342115Y335638D01*
Y327640D01*
D18*
X385149Y321155D02*
Y316584D01*
X384864Y315728D01*
X384578Y315442D01*
X384007Y315156D01*
X383436D01*
X382864Y315442D01*
X382579Y315728D01*
X382293Y316584D01*
Y317156D01*
X386978Y319727D02*
Y320012D01*
X387263Y320584D01*
X387549Y320869D01*
X388120Y321155D01*
X389263D01*
X389834Y320869D01*
X390120Y320584D01*
X390405Y320012D01*
Y319441D01*
X390120Y318870D01*
X389548Y318013D01*
X386692Y315156D01*
X390691D01*
M02*
