G04*
G04 #@! TF.GenerationSoftware,Altium Limited,Altium Designer,25.8.1 (18)*
G04*
G04 Layer_Color=2752767*
%FSLAX44Y44*%
%MOMM*%
G71*
G04*
G04 #@! TF.SameCoordinates,39AAA382-7428-4F97-BBA3-EFEDAE657E92*
G04*
G04*
G04 #@! TF.FilePolarity,Positive*
G04*
G01*
G75*
%ADD67C,0.0508*%
%ADD68C,0.0677*%
D67*
X220180Y394208D02*
X218148Y398272D01*
X222212D01*
X220180Y394208D01*
X195180D02*
X193148Y398272D01*
X197212D01*
X195180Y394208D01*
X182680D02*
X180648Y398272D01*
X184712D01*
X182680Y394208D01*
X120960Y477952D02*
X118928Y482016D01*
X122992D01*
X120960Y477952D01*
X170180Y394208D02*
X168148Y398272D01*
X172212D01*
X170180Y394208D01*
X322580Y395278D02*
X320548Y399342D01*
X324612D01*
X322580Y395278D01*
X140660Y493344D02*
X138628Y497408D01*
X142692D01*
X140660Y493344D01*
X322580Y370278D02*
X320548Y374342D01*
X324612D01*
X322580Y370278D01*
X207680Y394208D02*
X205648Y398272D01*
X209712D01*
X207680Y394208D01*
X130810Y485648D02*
X128778Y489712D01*
X132842D01*
X130810Y485648D01*
X356342Y491542D02*
Y495606D01*
X360406D01*
Y491542D01*
X356342D01*
X322580Y382778D02*
X320548Y386842D01*
X324612D01*
X322580Y382778D01*
X50468Y277968D02*
Y282032D01*
X54532D01*
Y277968D01*
X50468D01*
X356338Y64394D02*
Y68458D01*
X360402D01*
Y64394D01*
X356338D01*
X268028Y160626D02*
X269044Y161642D01*
X270060D01*
X269044Y162658D01*
X270060Y163674D01*
X269044D01*
X268028Y164690D01*
X267012Y163674D01*
X265996D01*
X267012Y162658D01*
X265996Y161642D01*
X267012D01*
X268028Y160626D01*
X233680Y113538D02*
X234696Y114554D01*
X235712D01*
X234696Y115570D01*
X235712Y116586D01*
X234696D01*
X233680Y117602D01*
X232664Y116586D01*
X231648D01*
X232664Y115570D01*
X231648Y114554D01*
X232664D01*
X233680Y113538D01*
X214610Y113558D02*
X215626Y114574D01*
X216642D01*
X215626Y115590D01*
X216642Y116606D01*
X215626D01*
X214610Y117622D01*
X213594Y116606D01*
X212578D01*
X213594Y115590D01*
X212578Y114574D01*
X213594D01*
X214610Y113558D01*
X269240Y136398D02*
X270256Y137414D01*
X271272D01*
X270256Y138430D01*
X271272Y139446D01*
X270256D01*
X269240Y140462D01*
X268224Y139446D01*
X267208D01*
X268224Y138430D01*
X267208Y137414D01*
X268224D01*
X269240Y136398D01*
X219709Y458858D02*
X220725Y459874D01*
X221741D01*
X220725Y460890D01*
X221741Y461906D01*
X220725D01*
X219709Y462922D01*
X218693Y461906D01*
X217677D01*
X218693Y460890D01*
X217677Y459874D01*
X218693D01*
X219709Y458858D01*
X181609D02*
X182625Y459874D01*
X183641D01*
X182625Y460890D01*
X183641Y461906D01*
X182625D01*
X181609Y462922D01*
X180593Y461906D01*
X179577D01*
X180593Y460890D01*
X179577Y459874D01*
X180593D01*
X181609Y458858D01*
X200659Y432188D02*
X201675Y433204D01*
X202691D01*
X201675Y434220D01*
X202691Y435236D01*
X201675D01*
X200659Y436252D01*
X199643Y435236D01*
X198627D01*
X199643Y434220D01*
X198627Y433204D01*
X199643D01*
X200659Y432188D01*
X281939Y338208D02*
X282955Y339224D01*
X283971D01*
X282955Y340240D01*
X283971Y341256D01*
X282955D01*
X281939Y342272D01*
X280923Y341256D01*
X279907D01*
X280923Y340240D01*
X279907Y339224D01*
X280923D01*
X281939Y338208D01*
Y455048D02*
X282955Y456064D01*
X283971D01*
X282955Y457080D01*
X283971Y458096D01*
X282955D01*
X281939Y459112D01*
X280923Y458096D01*
X279907D01*
X280923Y457080D01*
X279907Y456064D01*
X280923D01*
X281939Y455048D01*
Y380118D02*
X282955Y381134D01*
X283971D01*
X282955Y382150D01*
X283971Y383166D01*
X282955D01*
X281939Y384182D01*
X280923Y383166D01*
X279907D01*
X280923Y382150D01*
X279907Y381134D01*
X280923D01*
X281939Y380118D01*
X237489Y376308D02*
X238505Y377324D01*
X239521D01*
X238505Y378340D01*
X239521Y379356D01*
X238505D01*
X237489Y380372D01*
X236473Y379356D01*
X235457D01*
X236473Y378340D01*
X235457Y377324D01*
X236473D01*
X237489Y376308D01*
X236219Y414408D02*
X237235Y415424D01*
X238251D01*
X237235Y416440D01*
X238251Y417456D01*
X237235D01*
X236219Y418472D01*
X235203Y417456D01*
X234187D01*
X235203Y416440D01*
X234187Y415424D01*
X235203D01*
X236219Y414408D01*
X143509Y458858D02*
X144525Y459874D01*
X145541D01*
X144525Y460890D01*
X145541Y461906D01*
X144525D01*
X143509Y462922D01*
X142493Y461906D01*
X141477D01*
X142493Y460890D01*
X141477Y459874D01*
X142493D01*
X143509Y458858D01*
X149859Y408058D02*
X150875Y409074D01*
X151891D01*
X150875Y410090D01*
X151891Y411106D01*
X150875D01*
X149859Y412122D01*
X148843Y411106D01*
X147827D01*
X148843Y410090D01*
X147827Y409074D01*
X148843D01*
X149859Y408058D01*
X167639Y382658D02*
X168655Y383674D01*
X169671D01*
X168655Y384690D01*
X169671Y385706D01*
X168655D01*
X167639Y386722D01*
X166623Y385706D01*
X165607D01*
X166623Y384690D01*
X165607Y383674D01*
X166623D01*
X167639Y382658D01*
X162559Y432188D02*
X163575Y433204D01*
X164591D01*
X163575Y434220D01*
X164591Y435236D01*
X163575D01*
X162559Y436252D01*
X161543Y435236D01*
X160527D01*
X161543Y434220D01*
X160527Y433204D01*
X161543D01*
X162559Y432188D01*
X195580Y84328D02*
X196596Y85344D01*
X197612D01*
X196596Y86360D01*
X197612Y87376D01*
X196596D01*
X195580Y88392D01*
X194564Y87376D01*
X193548D01*
X194564Y86360D01*
X193548Y85344D01*
X194564D01*
X195580Y84328D01*
X131613Y135740D02*
X132629Y136756D01*
X133645D01*
X132629Y137772D01*
X133645Y138788D01*
X132629D01*
X131613Y139804D01*
X130597Y138788D01*
X129581D01*
X130597Y137772D01*
X129581Y136756D01*
X130597D01*
X131613Y135740D01*
X254000Y89408D02*
X255016Y90424D01*
X256032D01*
X255016Y91440D01*
X256032Y92456D01*
X255016D01*
X254000Y93472D01*
X252984Y92456D01*
X251968D01*
X252984Y91440D01*
X251968Y90424D01*
X252984D01*
X254000Y89408D01*
X259080Y119888D02*
X260096Y120904D01*
X261112D01*
X260096Y121920D01*
X261112Y122936D01*
X260096D01*
X259080Y123952D01*
X258064Y122936D01*
X257048D01*
X258064Y121920D01*
X257048Y120904D01*
X258064D01*
X259080Y119888D01*
X128270Y64008D02*
X129286Y65024D01*
X130302D01*
X129286Y66040D01*
X130302Y67056D01*
X129286D01*
X128270Y68072D01*
X127254Y67056D01*
X126238D01*
X127254Y66040D01*
X126238Y65024D01*
X127254D01*
X128270Y64008D01*
X27239Y206966D02*
X28255Y207982D01*
X29271D01*
X28255Y208998D01*
X29271Y210014D01*
X28255D01*
X27239Y211030D01*
X26223Y210014D01*
X25207D01*
X26223Y208998D01*
X25207Y207982D01*
X26223D01*
X27239Y206966D01*
X281184Y135946D02*
X282200Y136962D01*
X283216D01*
X282200Y137978D01*
X283216Y138994D01*
X282200D01*
X281184Y140010D01*
X280168Y138994D01*
X279152D01*
X280168Y137978D01*
X279152Y136962D01*
X280168D01*
X281184Y135946D01*
X177800Y112268D02*
X178816Y113284D01*
X179832D01*
X178816Y114300D01*
X179832Y115316D01*
X178816D01*
X177800Y116332D01*
X176784Y115316D01*
X175768D01*
X176784Y114300D01*
X175768Y113284D01*
X176784D01*
X177800Y112268D01*
X297180Y522478D02*
X298196Y523494D01*
X299212D01*
X298196Y524510D01*
X299212Y525526D01*
X298196D01*
X297180Y526542D01*
X296164Y525526D01*
X295148D01*
X296164Y524510D01*
X295148Y523494D01*
X296164D01*
X297180Y522478D01*
X245110Y155448D02*
X246126Y156464D01*
X247142D01*
X246126Y157480D01*
X247142Y158496D01*
X246126D01*
X245110Y159512D01*
X244094Y158496D01*
X243078D01*
X244094Y157480D01*
X243078Y156464D01*
X244094D01*
X245110Y155448D01*
Y179578D02*
X246126Y180594D01*
X247142D01*
X246126Y181610D01*
X247142Y182626D01*
X246126D01*
X245110Y183642D01*
X244094Y182626D01*
X243078D01*
X244094Y181610D01*
X243078Y180594D01*
X244094D01*
X245110Y179578D01*
X289560Y160528D02*
X290576Y161544D01*
X291592D01*
X290576Y162560D01*
X291592Y163576D01*
X290576D01*
X289560Y164592D01*
X288544Y163576D01*
X287528D01*
X288544Y162560D01*
X287528Y161544D01*
X288544D01*
X289560Y160528D01*
X300990Y140208D02*
X302006Y141224D01*
X303022D01*
X302006Y142240D01*
X303022Y143256D01*
X302006D01*
X300990Y144272D01*
X299974Y143256D01*
X298958D01*
X299974Y142240D01*
X298958Y141224D01*
X299974D01*
X300990Y140208D01*
Y116078D02*
X302006Y117094D01*
X303022D01*
X302006Y118110D01*
X303022Y119126D01*
X302006D01*
X300990Y120142D01*
X299974Y119126D01*
X298958D01*
X299974Y118110D01*
X298958Y117094D01*
X299974D01*
X300990Y116078D01*
Y90678D02*
X302006Y91694D01*
X303022D01*
X302006Y92710D01*
X303022Y93726D01*
X302006D01*
X300990Y94742D01*
X299974Y93726D01*
X298958D01*
X299974Y92710D01*
X298958Y91694D01*
X299974D01*
X300990Y90678D01*
X248920Y42418D02*
X249936Y43434D01*
X250952D01*
X249936Y44450D01*
X250952Y45466D01*
X249936D01*
X248920Y46482D01*
X247904Y45466D01*
X246888D01*
X247904Y44450D01*
X246888Y43434D01*
X247904D01*
X248920Y42418D01*
X287020Y37338D02*
X288036Y38354D01*
X289052D01*
X288036Y39370D01*
X289052Y40386D01*
X288036D01*
X287020Y41402D01*
X286004Y40386D01*
X284988D01*
X286004Y39370D01*
X284988Y38354D01*
X286004D01*
X287020Y37338D01*
X224790Y80518D02*
X225806Y81534D01*
X226822D01*
X225806Y82550D01*
X226822Y83566D01*
X225806D01*
X224790Y84582D01*
X223774Y83566D01*
X222758D01*
X223774Y82550D01*
X222758Y81534D01*
X223774D01*
X224790Y80518D01*
X201930Y102108D02*
X202946Y103124D01*
X203962D01*
X202946Y104140D01*
X203962Y105156D01*
X202946D01*
X201930Y106172D01*
X200914Y105156D01*
X199898D01*
X200914Y104140D01*
X199898Y103124D01*
X200914D01*
X201930Y102108D01*
X299720Y196088D02*
X300736Y197104D01*
X301752D01*
X300736Y198120D01*
X301752Y199136D01*
X300736D01*
X299720Y200152D01*
X298704Y199136D01*
X297688D01*
X298704Y198120D01*
X297688Y197104D01*
X298704D01*
X299720Y196088D01*
X287020Y215138D02*
X288036Y216154D01*
X289052D01*
X288036Y217170D01*
X289052Y218186D01*
X288036D01*
X287020Y219202D01*
X286004Y218186D01*
X284988D01*
X286004Y217170D01*
X284988Y216154D01*
X286004D01*
X287020Y215138D01*
X299720Y234188D02*
X300736Y235204D01*
X301752D01*
X300736Y236220D01*
X301752Y237236D01*
X300736D01*
X299720Y238252D01*
X298704Y237236D01*
X297688D01*
X298704Y236220D01*
X297688Y235204D01*
X298704D01*
X299720Y234188D01*
X144780Y157988D02*
X145796Y159004D01*
X146812D01*
X145796Y160020D01*
X146812Y161036D01*
X145796D01*
X144780Y162052D01*
X143764Y161036D01*
X142748D01*
X143764Y160020D01*
X142748Y159004D01*
X143764D01*
X144780Y157988D01*
X133350Y182118D02*
X134366Y183134D01*
X135382D01*
X134366Y184150D01*
X135382Y185166D01*
X134366D01*
X133350Y186182D01*
X132334Y185166D01*
X131318D01*
X132334Y184150D01*
X131318Y183134D01*
X132334D01*
X133350Y182118D01*
X165100Y212598D02*
X166116Y213614D01*
X167132D01*
X166116Y214630D01*
X167132Y215646D01*
X166116D01*
X165100Y216662D01*
X164084Y215646D01*
X163068D01*
X164084Y214630D01*
X163068Y213614D01*
X164084D01*
X165100Y212598D01*
X266700Y10668D02*
X267716Y11684D01*
X268732D01*
X267716Y12700D01*
X268732Y13716D01*
X267716D01*
X266700Y14732D01*
X265684Y13716D01*
X264668D01*
X265684Y12700D01*
X264668Y11684D01*
X265684D01*
X266700Y10668D01*
X331470Y98298D02*
X332486Y99314D01*
X333502D01*
X332486Y100330D01*
X333502Y101346D01*
X332486D01*
X331470Y102362D01*
X330454Y101346D01*
X329438D01*
X330454Y100330D01*
X329438Y99314D01*
X330454D01*
X331470Y98298D01*
X210820Y281178D02*
X211836Y282194D01*
X212852D01*
X211836Y283210D01*
X212852Y284226D01*
X211836D01*
X210820Y285242D01*
X209804Y284226D01*
X208788D01*
X209804Y283210D01*
X208788Y282194D01*
X209804D01*
X210820Y281178D01*
X250190D02*
X251206Y282194D01*
X252222D01*
X251206Y283210D01*
X252222Y284226D01*
X251206D01*
X250190Y285242D01*
X249174Y284226D01*
X248158D01*
X249174Y283210D01*
X248158Y282194D01*
X249174D01*
X250190Y281178D01*
X230986Y262500D02*
X232002Y263516D01*
X233018D01*
X232002Y264532D01*
X233018Y265548D01*
X232002D01*
X230986Y266564D01*
X229970Y265548D01*
X228954D01*
X229970Y264532D01*
X228954Y263516D01*
X229970D01*
X230986Y262500D01*
X328930Y272288D02*
X329946Y273304D01*
X330962D01*
X329946Y274320D01*
X330962Y275336D01*
X329946D01*
X328930Y276352D01*
X327914Y275336D01*
X326898D01*
X327914Y274320D01*
X326898Y273304D01*
X327914D01*
X328930Y272288D01*
X346710Y278638D02*
X347726Y279654D01*
X348742D01*
X347726Y280670D01*
X348742Y281686D01*
X347726D01*
X346710Y282702D01*
X345694Y281686D01*
X344678D01*
X345694Y280670D01*
X344678Y279654D01*
X345694D01*
X346710Y278638D01*
X24999Y222848D02*
X26015Y223864D01*
X27031D01*
X26015Y224880D01*
X27031Y225896D01*
X26015D01*
X24999Y226912D01*
X23983Y225896D01*
X22967D01*
X23983Y224880D01*
X22967Y223864D01*
X23983D01*
X24999Y222848D01*
Y322848D02*
X26015Y323864D01*
X27031D01*
X26015Y324880D01*
X27031Y325896D01*
X26015D01*
X24999Y326912D01*
X23983Y325896D01*
X22967D01*
X23983Y324880D01*
X22967Y323864D01*
X23983D01*
X24999Y322848D01*
X37499Y347848D02*
X38515Y348864D01*
X39531D01*
X38515Y349880D01*
X39531Y350896D01*
X38515D01*
X37499Y351912D01*
X36483Y350896D01*
X35467D01*
X36483Y349880D01*
X35467Y348864D01*
X36483D01*
X37499Y347848D01*
X62499Y147848D02*
X63515Y148864D01*
X64531D01*
X63515Y149880D01*
X64531Y150896D01*
X63515D01*
X62499Y151912D01*
X61483Y150896D01*
X60467D01*
X61483Y149880D01*
X60467Y148864D01*
X61483D01*
X62499Y147848D01*
X49999Y172848D02*
X51015Y173864D01*
X52031D01*
X51015Y174880D01*
X52031Y175896D01*
X51015D01*
X49999Y176912D01*
X48983Y175896D01*
X47967D01*
X48983Y174880D01*
X47967Y173864D01*
X48983D01*
X49999Y172848D01*
Y222848D02*
X51015Y223864D01*
X52031D01*
X51015Y224880D01*
X52031Y225896D01*
X51015D01*
X49999Y226912D01*
X48983Y225896D01*
X47967D01*
X48983Y224880D01*
X47967Y223864D01*
X48983D01*
X49999Y222848D01*
Y322848D02*
X51015Y323864D01*
X52031D01*
X51015Y324880D01*
X52031Y325896D01*
X51015D01*
X49999Y326912D01*
X48983Y325896D01*
X47967D01*
X48983Y324880D01*
X47967Y323864D01*
X48983D01*
X49999Y322848D01*
X62499Y347848D02*
X63515Y348864D01*
X64531D01*
X63515Y349880D01*
X64531Y350896D01*
X63515D01*
X62499Y351912D01*
X61483Y350896D01*
X60467D01*
X61483Y349880D01*
X60467Y348864D01*
X61483D01*
X62499Y347848D01*
X87499Y97848D02*
X88515Y98864D01*
X89531D01*
X88515Y99880D01*
X89531Y100896D01*
X88515D01*
X87499Y101912D01*
X86483Y100896D01*
X85467D01*
X86483Y99880D01*
X85467Y98864D01*
X86483D01*
X87499Y97848D01*
X74999Y122848D02*
X76015Y123864D01*
X77031D01*
X76015Y124880D01*
X77031Y125896D01*
X76015D01*
X74999Y126912D01*
X73983Y125896D01*
X72967D01*
X73983Y124880D01*
X72967Y123864D01*
X73983D01*
X74999Y122848D01*
Y222848D02*
X76015Y223864D01*
X77031D01*
X76015Y224880D01*
X77031Y225896D01*
X76015D01*
X74999Y226912D01*
X73983Y225896D01*
X72967D01*
X73983Y224880D01*
X72967Y223864D01*
X73983D01*
X74999Y222848D01*
X87499Y247848D02*
X88515Y248864D01*
X89531D01*
X88515Y249880D01*
X89531Y250896D01*
X88515D01*
X87499Y251912D01*
X86483Y250896D01*
X85467D01*
X86483Y249880D01*
X85467Y248864D01*
X86483D01*
X87499Y247848D01*
X74999Y322848D02*
X76015Y323864D01*
X77031D01*
X76015Y324880D01*
X77031Y325896D01*
X76015D01*
X74999Y326912D01*
X73983Y325896D01*
X72967D01*
X73983Y324880D01*
X72967Y323864D01*
X73983D01*
X74999Y322848D01*
X87499Y347848D02*
X88515Y348864D01*
X89531D01*
X88515Y349880D01*
X89531Y350896D01*
X88515D01*
X87499Y351912D01*
X86483Y350896D01*
X85467D01*
X86483Y349880D01*
X85467Y348864D01*
X86483D01*
X87499Y347848D01*
X99999Y222848D02*
X101015Y223864D01*
X102031D01*
X101015Y224880D01*
X102031Y225896D01*
X101015D01*
X99999Y226912D01*
X98983Y225896D01*
X97967D01*
X98983Y224880D01*
X97967Y223864D01*
X98983D01*
X99999Y222848D01*
X112499Y247848D02*
X113515Y248864D01*
X114531D01*
X113515Y249880D01*
X114531Y250896D01*
X113515D01*
X112499Y251912D01*
X111483Y250896D01*
X110467D01*
X111483Y249880D01*
X110467Y248864D01*
X111483D01*
X112499Y247848D01*
X99999Y272848D02*
X101015Y273864D01*
X102031D01*
X101015Y274880D01*
X102031Y275896D01*
X101015D01*
X99999Y276912D01*
X98983Y275896D01*
X97967D01*
X98983Y274880D01*
X97967Y273864D01*
X98983D01*
X99999Y272848D01*
X112499Y297848D02*
X113515Y298864D01*
X114531D01*
X113515Y299880D01*
X114531Y300896D01*
X113515D01*
X112499Y301912D01*
X111483Y300896D01*
X110467D01*
X111483Y299880D01*
X110467Y298864D01*
X111483D01*
X112499Y297848D01*
X99999Y322848D02*
X101015Y323864D01*
X102031D01*
X101015Y324880D01*
X102031Y325896D01*
X101015D01*
X99999Y326912D01*
X98983Y325896D01*
X97967D01*
X98983Y324880D01*
X97967Y323864D01*
X98983D01*
X99999Y322848D01*
X112499Y347848D02*
X113515Y348864D01*
X114531D01*
X113515Y349880D01*
X114531Y350896D01*
X113515D01*
X112499Y351912D01*
X111483Y350896D01*
X110467D01*
X111483Y349880D01*
X110467Y348864D01*
X111483D01*
X112499Y347848D01*
Y447848D02*
X113515Y448864D01*
X114531D01*
X113515Y449880D01*
X114531Y450896D01*
X113515D01*
X112499Y451912D01*
X111483Y450896D01*
X110467D01*
X111483Y449880D01*
X110467Y448864D01*
X111483D01*
X112499Y447848D01*
X99999Y472848D02*
X101015Y473864D01*
X102031D01*
X101015Y474880D01*
X102031Y475896D01*
X101015D01*
X99999Y476912D01*
X98983Y475896D01*
X97967D01*
X98983Y474880D01*
X97967Y473864D01*
X98983D01*
X99999Y472848D01*
X137499Y247848D02*
X138515Y248864D01*
X139531D01*
X138515Y249880D01*
X139531Y250896D01*
X138515D01*
X137499Y251912D01*
X136483Y250896D01*
X135467D01*
X136483Y249880D01*
X135467Y248864D01*
X136483D01*
X137499Y247848D01*
X124999Y272848D02*
X126015Y273864D01*
X127031D01*
X126015Y274880D01*
X127031Y275896D01*
X126015D01*
X124999Y276912D01*
X123983Y275896D01*
X122967D01*
X123983Y274880D01*
X122967Y273864D01*
X123983D01*
X124999Y272848D01*
Y322848D02*
X126015Y323864D01*
X127031D01*
X126015Y324880D01*
X127031Y325896D01*
X126015D01*
X124999Y326912D01*
X123983Y325896D01*
X122967D01*
X123983Y324880D01*
X122967Y323864D01*
X123983D01*
X124999Y322848D01*
X137499Y347848D02*
X138515Y348864D01*
X139531D01*
X138515Y349880D01*
X139531Y350896D01*
X138515D01*
X137499Y351912D01*
X136483Y350896D01*
X135467D01*
X136483Y349880D01*
X135467Y348864D01*
X136483D01*
X137499Y347848D01*
X149999Y322848D02*
X151015Y323864D01*
X152031D01*
X151015Y324880D01*
X152031Y325896D01*
X151015D01*
X149999Y326912D01*
X148983Y325896D01*
X147967D01*
X148983Y324880D01*
X147967Y323864D01*
X148983D01*
X149999Y322848D01*
X162499Y497848D02*
X163515Y498864D01*
X164531D01*
X163515Y499880D01*
X164531Y500896D01*
X163515D01*
X162499Y501912D01*
X161483Y500896D01*
X160467D01*
X161483Y499880D01*
X160467Y498864D01*
X161483D01*
X162499Y497848D01*
X187499Y147848D02*
X188515Y148864D01*
X189531D01*
X188515Y149880D01*
X189531Y150896D01*
X188515D01*
X187499Y151912D01*
X186483Y150896D01*
X185467D01*
X186483Y149880D01*
X185467Y148864D01*
X186483D01*
X187499Y147848D01*
X174999Y172848D02*
X176015Y173864D01*
X177031D01*
X176015Y174880D01*
X177031Y175896D01*
X176015D01*
X174999Y176912D01*
X173983Y175896D01*
X172967D01*
X173983Y174880D01*
X172967Y173864D01*
X173983D01*
X174999Y172848D01*
X187499Y197848D02*
X188515Y198864D01*
X189531D01*
X188515Y199880D01*
X189531Y200896D01*
X188515D01*
X187499Y201912D01*
X186483Y200896D01*
X185467D01*
X186483Y199880D01*
X185467Y198864D01*
X186483D01*
X187499Y197848D01*
X199999Y22848D02*
X201015Y23864D01*
X202031D01*
X201015Y24880D01*
X202031Y25896D01*
X201015D01*
X199999Y26912D01*
X198983Y25896D01*
X197967D01*
X198983Y24880D01*
X197967Y23864D01*
X198983D01*
X199999Y22848D01*
X212499Y147848D02*
X213515Y148864D01*
X214531D01*
X213515Y149880D01*
X214531Y150896D01*
X213515D01*
X212499Y151912D01*
X211483Y150896D01*
X210467D01*
X211483Y149880D01*
X210467Y148864D01*
X211483D01*
X212499Y147848D01*
X199999Y172848D02*
X201015Y173864D01*
X202031D01*
X201015Y174880D01*
X202031Y175896D01*
X201015D01*
X199999Y176912D01*
X198983Y175896D01*
X197967D01*
X198983Y174880D01*
X197967Y173864D01*
X198983D01*
X199999Y172848D01*
X212499Y197848D02*
X213515Y198864D01*
X214531D01*
X213515Y199880D01*
X214531Y200896D01*
X213515D01*
X212499Y201912D01*
X211483Y200896D01*
X210467D01*
X211483Y199880D01*
X210467Y198864D01*
X211483D01*
X212499Y197848D01*
X199999Y522848D02*
X201015Y523864D01*
X202031D01*
X201015Y524880D01*
X202031Y525896D01*
X201015D01*
X199999Y526912D01*
X198983Y525896D01*
X197967D01*
X198983Y524880D01*
X197967Y523864D01*
X198983D01*
X199999Y522848D01*
X224999D02*
X226015Y523864D01*
X227031D01*
X226015Y524880D01*
X227031Y525896D01*
X226015D01*
X224999Y526912D01*
X223983Y525896D01*
X222967D01*
X223983Y524880D01*
X222967Y523864D01*
X223983D01*
X224999Y522848D01*
X281149Y306738D02*
X282165Y307754D01*
X283181D01*
X282165Y308770D01*
X283181Y309786D01*
X282165D01*
X281149Y310802D01*
X280133Y309786D01*
X279117D01*
X280133Y308770D01*
X279117Y307754D01*
X280133D01*
X281149Y306738D01*
X312499Y297848D02*
X313515Y298864D01*
X314531D01*
X313515Y299880D01*
X314531Y300896D01*
X313515D01*
X312499Y301912D01*
X311483Y300896D01*
X310467D01*
X311483Y299880D01*
X310467Y298864D01*
X311483D01*
X312499Y297848D01*
X309959Y466898D02*
X310975Y467914D01*
X311991D01*
X310975Y468930D01*
X311991Y469946D01*
X310975D01*
X309959Y470962D01*
X308943Y469946D01*
X307927D01*
X308943Y468930D01*
X307927Y467914D01*
X308943D01*
X309959Y466898D01*
X324999Y122848D02*
X326015Y123864D01*
X327031D01*
X326015Y124880D01*
X327031Y125896D01*
X326015D01*
X324999Y126912D01*
X323983Y125896D01*
X322967D01*
X323983Y124880D01*
X322967Y123864D01*
X323983D01*
X324999Y122848D01*
X337499Y147848D02*
X338515Y148864D01*
X339531D01*
X338515Y149880D01*
X339531Y150896D01*
X338515D01*
X337499Y151912D01*
X336483Y150896D01*
X335467D01*
X336483Y149880D01*
X335467Y148864D01*
X336483D01*
X337499Y147848D01*
X324999Y172848D02*
X326015Y173864D01*
X327031D01*
X326015Y174880D01*
X327031Y175896D01*
X326015D01*
X324999Y176912D01*
X323983Y175896D01*
X322967D01*
X323983Y174880D01*
X322967Y173864D01*
X323983D01*
X324999Y172848D01*
X337499Y197848D02*
X338515Y198864D01*
X339531D01*
X338515Y199880D01*
X339531Y200896D01*
X338515D01*
X337499Y201912D01*
X336483Y200896D01*
X335467D01*
X336483Y199880D01*
X335467Y198864D01*
X336483D01*
X337499Y197848D01*
X324999Y222848D02*
X326015Y223864D01*
X327031D01*
X326015Y224880D01*
X327031Y225896D01*
X326015D01*
X324999Y226912D01*
X323983Y225896D01*
X322967D01*
X323983Y224880D01*
X322967Y223864D01*
X323983D01*
X324999Y222848D01*
Y322848D02*
X326015Y323864D01*
X327031D01*
X326015Y324880D01*
X327031Y325896D01*
X326015D01*
X324999Y326912D01*
X323983Y325896D01*
X322967D01*
X323983Y324880D01*
X322967Y323864D01*
X323983D01*
X324999Y322848D01*
X337499Y397848D02*
X338515Y398864D01*
X339531D01*
X338515Y399880D01*
X339531Y400896D01*
X338515D01*
X337499Y401912D01*
X336483Y400896D01*
X335467D01*
X336483Y399880D01*
X335467Y398864D01*
X336483D01*
X337499Y397848D01*
Y447848D02*
X338515Y448864D01*
X339531D01*
X338515Y449880D01*
X339531Y450896D01*
X338515D01*
X337499Y451912D01*
X336483Y450896D01*
X335467D01*
X336483Y449880D01*
X335467Y448864D01*
X336483D01*
X337499Y447848D01*
X362499D02*
X363515Y448864D01*
X364531D01*
X363515Y449880D01*
X364531Y450896D01*
X363515D01*
X362499Y451912D01*
X361483Y450896D01*
X360467D01*
X361483Y449880D01*
X360467Y448864D01*
X361483D01*
X362499Y447848D01*
X374999Y22848D02*
X376015Y23864D01*
X377031D01*
X376015Y24880D01*
X377031Y25896D01*
X376015D01*
X374999Y26912D01*
X373983Y25896D01*
X372967D01*
X373983Y24880D01*
X372967Y23864D01*
X373983D01*
X374999Y22848D01*
X387499Y97848D02*
X388515Y98864D01*
X389531D01*
X388515Y99880D01*
X389531Y100896D01*
X388515D01*
X387499Y101912D01*
X386483Y100896D01*
X385467D01*
X386483Y99880D01*
X385467Y98864D01*
X386483D01*
X387499Y97848D01*
X374999Y372848D02*
X376015Y373864D01*
X377031D01*
X376015Y374880D01*
X377031Y375896D01*
X376015D01*
X374999Y376912D01*
X373983Y375896D01*
X372967D01*
X373983Y374880D01*
X372967Y373864D01*
X373983D01*
X374999Y372848D01*
X387499Y447848D02*
X388515Y448864D01*
X389531D01*
X388515Y449880D01*
X389531Y450896D01*
X388515D01*
X387499Y451912D01*
X386483Y450896D01*
X385467D01*
X386483Y449880D01*
X385467Y448864D01*
X386483D01*
X387499Y447848D01*
X412499Y47848D02*
X413515Y48864D01*
X414531D01*
X413515Y49880D01*
X414531Y50896D01*
X413515D01*
X412499Y51912D01*
X411483Y50896D01*
X410467D01*
X411483Y49880D01*
X410467Y48864D01*
X411483D01*
X412499Y47848D01*
X399999Y72848D02*
X401015Y73864D01*
X402031D01*
X401015Y74880D01*
X402031Y75896D01*
X401015D01*
X399999Y76912D01*
X398983Y75896D01*
X397967D01*
X398983Y74880D01*
X397967Y73864D01*
X398983D01*
X399999Y72848D01*
Y172848D02*
X401015Y173864D01*
X402031D01*
X401015Y174880D01*
X402031Y175896D01*
X401015D01*
X399999Y176912D01*
X398983Y175896D01*
X397967D01*
X398983Y174880D01*
X397967Y173864D01*
X398983D01*
X399999Y172848D01*
Y222848D02*
X401015Y223864D01*
X402031D01*
X401015Y224880D01*
X402031Y225896D01*
X401015D01*
X399999Y226912D01*
X398983Y225896D01*
X397967D01*
X398983Y224880D01*
X397967Y223864D01*
X398983D01*
X399999Y222848D01*
Y372848D02*
X401015Y373864D01*
X402031D01*
X401015Y374880D01*
X402031Y375896D01*
X401015D01*
X399999Y376912D01*
X398983Y375896D01*
X397967D01*
X398983Y374880D01*
X397967Y373864D01*
X398983D01*
X399999Y372848D01*
Y422848D02*
X401015Y423864D01*
X402031D01*
X401015Y424880D01*
X402031Y425896D01*
X401015D01*
X399999Y426912D01*
X398983Y425896D01*
X397967D01*
X398983Y424880D01*
X397967Y423864D01*
X398983D01*
X399999Y422848D01*
Y472848D02*
X401015Y473864D01*
X402031D01*
X401015Y474880D01*
X402031Y475896D01*
X401015D01*
X399999Y476912D01*
X398983Y475896D01*
X397967D01*
X398983Y474880D01*
X397967Y473864D01*
X398983D01*
X399999Y472848D01*
X412499Y497848D02*
X413515Y498864D01*
X414531D01*
X413515Y499880D01*
X414531Y500896D01*
X413515D01*
X412499Y501912D01*
X411483Y500896D01*
X410467D01*
X411483Y499880D01*
X410467Y498864D01*
X411483D01*
X412499Y497848D01*
X399999Y522848D02*
X401015Y523864D01*
X402031D01*
X401015Y524880D01*
X402031Y525896D01*
X401015D01*
X399999Y526912D01*
X398983Y525896D01*
X397967D01*
X398983Y524880D01*
X397967Y523864D01*
X398983D01*
X399999Y522848D01*
X437499Y497848D02*
X438515Y498864D01*
X439531D01*
X438515Y499880D01*
X439531Y500896D01*
X438515D01*
X437499Y501912D01*
X436483Y500896D01*
X435467D01*
X436483Y499880D01*
X435467Y498864D01*
X436483D01*
X437499Y497848D01*
X93979Y427108D02*
X94995Y428124D01*
X96011D01*
X94995Y429140D01*
X96011Y430156D01*
X94995D01*
X93979Y431172D01*
X92963Y430156D01*
X91947D01*
X92963Y429140D01*
X91947Y428124D01*
X92963D01*
X93979Y427108D01*
X104139Y390278D02*
X105155Y391294D01*
X106171D01*
X105155Y392310D01*
X106171Y393326D01*
X105155D01*
X104139Y394342D01*
X103123Y393326D01*
X102107D01*
X103123Y392310D01*
X102107Y391294D01*
X103123D01*
X104139Y390278D01*
X68579Y397898D02*
X69595Y398914D01*
X70611D01*
X69595Y399930D01*
X70611Y400946D01*
X69595D01*
X68579Y401962D01*
X67563Y400946D01*
X66547D01*
X67563Y399930D01*
X66547Y398914D01*
X67563D01*
X68579Y397898D01*
X118109Y368688D02*
X119125Y369704D01*
X120141D01*
X119125Y370720D01*
X120141Y371736D01*
X119125D01*
X118109Y372752D01*
X117093Y371736D01*
X116077D01*
X117093Y370720D01*
X116077Y369704D01*
X117093D01*
X118109Y368688D01*
X88899D02*
X89915Y369704D01*
X90931D01*
X89915Y370720D01*
X90931Y371736D01*
X89915D01*
X88899Y372752D01*
X87883Y371736D01*
X86867D01*
X87883Y370720D01*
X86867Y369704D01*
X87883D01*
X88899Y368688D01*
X57149Y375038D02*
X58165Y376054D01*
X59181D01*
X58165Y377070D01*
X59181Y378086D01*
X58165D01*
X57149Y379102D01*
X56133Y378086D01*
X55117D01*
X56133Y377070D01*
X55117Y376054D01*
X56133D01*
X57149Y375038D01*
X146049Y77858D02*
X147065Y78874D01*
X148081D01*
X147065Y79890D01*
X148081Y80906D01*
X147065D01*
X146049Y81922D01*
X145033Y80906D01*
X144017D01*
X145033Y79890D01*
X144017Y78874D01*
X145033D01*
X146049Y77858D01*
X154939Y48648D02*
X155955Y49664D01*
X156971D01*
X155955Y50680D01*
X156971Y51696D01*
X155955D01*
X154939Y52712D01*
X153923Y51696D01*
X152907D01*
X153923Y50680D01*
X152907Y49664D01*
X153923D01*
X154939Y48648D01*
X57149Y198508D02*
X58165Y199524D01*
X59181D01*
X58165Y200540D01*
X59181Y201556D01*
X58165D01*
X57149Y202572D01*
X56133Y201556D01*
X55117D01*
X56133Y200540D01*
X55117Y199524D01*
X56133D01*
X57149Y198508D01*
X185419Y44838D02*
X186435Y45854D01*
X187451D01*
X186435Y46870D01*
X187451Y47886D01*
X186435D01*
X185419Y48902D01*
X184403Y47886D01*
X183387D01*
X184403Y46870D01*
X183387Y45854D01*
X184403D01*
X185419Y44838D01*
X327659Y20708D02*
X328675Y21724D01*
X329691D01*
X328675Y22740D01*
X329691Y23756D01*
X328675D01*
X327659Y24772D01*
X326643Y23756D01*
X325627D01*
X326643Y22740D01*
X325627Y21724D01*
X326643D01*
X327659Y20708D01*
X400049Y138818D02*
X401065Y139834D01*
X402081D01*
X401065Y140850D01*
X402081Y141866D01*
X401065D01*
X400049Y142882D01*
X399033Y141866D01*
X398017D01*
X399033Y140850D01*
X398017Y139834D01*
X399033D01*
X400049Y138818D01*
X156209Y263278D02*
X157225Y264294D01*
X158241D01*
X157225Y265310D01*
X158241Y266326D01*
X157225D01*
X156209Y267342D01*
X155193Y266326D01*
X154177D01*
X155193Y265310D01*
X154177Y264294D01*
X155193D01*
X156209Y263278D01*
X273050Y428498D02*
X274066Y429514D01*
X275082D01*
X274066Y430530D01*
X275082Y431546D01*
X274066D01*
X273050Y432562D01*
X272034Y431546D01*
X271018D01*
X272034Y430530D01*
X271018Y429514D01*
X272034D01*
X273050Y428498D01*
X242570Y349758D02*
X243586Y350774D01*
X244602D01*
X243586Y351790D01*
X244602Y352806D01*
X243586D01*
X242570Y353822D01*
X241554Y352806D01*
X240538D01*
X241554Y351790D01*
X240538Y350774D01*
X241554D01*
X242570Y349758D01*
X306080Y350278D02*
X307096Y351294D01*
X308112D01*
X307096Y352310D01*
X308112Y353326D01*
X307096D01*
X306080Y354342D01*
X305064Y353326D01*
X304048D01*
X305064Y352310D01*
X304048Y351294D01*
X305064D01*
X306080Y350278D01*
X258486Y446278D02*
X259502Y447294D01*
X260518D01*
X259502Y448310D01*
X260518Y449326D01*
X259502D01*
X258486Y450342D01*
X257470Y449326D01*
X256454D01*
X257470Y448310D01*
X256454Y447294D01*
X257470D01*
X258486Y446278D01*
X247650Y117348D02*
X248666Y118364D01*
X249682D01*
X248666Y119380D01*
X249682Y120396D01*
X248666D01*
X247650Y121412D01*
X246634Y120396D01*
X245618D01*
X246634Y119380D01*
X245618Y118364D01*
X246634D01*
X247650Y117348D01*
X229870Y135128D02*
X230886Y136144D01*
X231902D01*
X230886Y137160D01*
X231902Y138176D01*
X230886D01*
X229870Y139192D01*
X228854Y138176D01*
X227838D01*
X228854Y137160D01*
X227838Y136144D01*
X228854D01*
X229870Y135128D01*
X251286Y455168D02*
X252302Y456184D01*
X253318D01*
X252302Y457200D01*
X253318Y458216D01*
X252302D01*
X251286Y459232D01*
X250270Y458216D01*
X249254D01*
X250270Y457200D01*
X249254Y456184D01*
X250270D01*
X251286Y455168D01*
X241084Y101142D02*
X242101Y102158D01*
X243116D01*
X242101Y103174D01*
X243116Y104190D01*
X242101D01*
X241084Y105206D01*
X240068Y104190D01*
X239053D01*
X240068Y103174D01*
X239053Y102158D01*
X240068D01*
X241084Y101142D01*
X251460Y71628D02*
X252476Y72644D01*
X253492D01*
X252476Y73660D01*
X253492Y74676D01*
X252476D01*
X251460Y75692D01*
X250444Y74676D01*
X249428D01*
X250444Y73660D01*
X249428Y72644D01*
X250444D01*
X251460Y71628D01*
X247650Y502158D02*
X248666Y503174D01*
X249682D01*
X248666Y504190D01*
X249682Y505206D01*
X248666D01*
X247650Y506222D01*
X246634Y505206D01*
X245618D01*
X246634Y504190D01*
X245618Y503174D01*
X246634D01*
X247650Y502158D01*
X255270Y256274D02*
X256286Y257290D01*
X257302D01*
X256286Y258306D01*
X257302Y259322D01*
X256286D01*
X255270Y260338D01*
X254254Y259322D01*
X253238D01*
X254254Y258306D01*
X253238Y257290D01*
X254254D01*
X255270Y256274D01*
X245110Y243078D02*
X246126Y244094D01*
X247142D01*
X246126Y245110D01*
X247142Y246126D01*
X246126D01*
X245110Y247142D01*
X244094Y246126D01*
X243078D01*
X244094Y245110D01*
X243078Y244094D01*
X244094D01*
X245110Y243078D01*
X265430Y437388D02*
X266446Y438404D01*
X267462D01*
X266446Y439420D01*
X267462Y440436D01*
X266446D01*
X265430Y441452D01*
X264414Y440436D01*
X263398D01*
X264414Y439420D01*
X263398Y438404D01*
X264414D01*
X265430Y437388D01*
D68*
X75692Y441936D02*
G03*
X75692Y441936I-2032J0D01*
G01*
X363102Y280000D02*
G03*
X363102Y280000I-2032J0D01*
G01*
Y127600D02*
G03*
X363102Y127600I-2032J0D01*
G01*
X388502D02*
G03*
X388502Y127600I-2032J0D01*
G01*
X363102Y305400D02*
G03*
X363102Y305400I-2032J0D01*
G01*
X388502Y432400D02*
G03*
X388502Y432400I-2032J0D01*
G01*
Y381600D02*
G03*
X388502Y381600I-2032J0D01*
G01*
Y356200D02*
G03*
X388502Y356200I-2032J0D01*
G01*
Y407000D02*
G03*
X388502Y407000I-2032J0D01*
G01*
X363102D02*
G03*
X363102Y407000I-2032J0D01*
G01*
Y356200D02*
G03*
X363102Y356200I-2032J0D01*
G01*
Y381600D02*
G03*
X363102Y381600I-2032J0D01*
G01*
Y432400D02*
G03*
X363102Y432400I-2032J0D01*
G01*
X388502Y203800D02*
G03*
X388502Y203800I-2032J0D01*
G01*
Y153000D02*
G03*
X388502Y153000I-2032J0D01*
G01*
Y178400D02*
G03*
X388502Y178400I-2032J0D01*
G01*
X363102D02*
G03*
X363102Y178400I-2032J0D01*
G01*
Y153000D02*
G03*
X363102Y153000I-2032J0D01*
G01*
Y203800D02*
G03*
X363102Y203800I-2032J0D01*
G01*
X388502Y229200D02*
G03*
X388502Y229200I-2032J0D01*
G01*
Y305400D02*
G03*
X388502Y305400I-2032J0D01*
G01*
Y254600D02*
G03*
X388502Y254600I-2032J0D01*
G01*
Y280000D02*
G03*
X388502Y280000I-2032J0D01*
G01*
Y330800D02*
G03*
X388502Y330800I-2032J0D01*
G01*
X363102D02*
G03*
X363102Y330800I-2032J0D01*
G01*
Y254600D02*
G03*
X363102Y254600I-2032J0D01*
G01*
Y229200D02*
G03*
X363102Y229200I-2032J0D01*
G01*
X62992Y419939D02*
G03*
X62992Y419939I-2032J0D01*
G01*
X37592Y375944D02*
G03*
X37592Y375944I-2032J0D01*
G01*
X50292Y397941D02*
G03*
X50292Y397941I-2032J0D01*
G01*
M02*
